<?xml version="1.0" encoding="UTF-8" standalone="no"?>
<svg
   xmlns:dc="http://purl.org/dc/elements/1.1/"
   xmlns:cc="http://creativecommons.org/ns#"
   xmlns:rdf="http://www.w3.org/1999/02/22-rdf-syntax-ns#"
   xmlns:svg="http://www.w3.org/2000/svg"
   xmlns="http://www.w3.org/2000/svg"
   xmlns:sodipodi="http://sodipodi.sourceforge.net/DTD/sodipodi-0.dtd"
   xmlns:inkscape="http://www.inkscape.org/namespaces/inkscape"
   width="312.50003"
   height="312.88306"
   viewBox="0 0 312.50003 312.88305"
   class="css-1j8o68f"
   version="1.1"
   id="svg150"
   sodipodi:docname="dandelion-logo-full-reaching-grey.svg"
   inkscape:version="0.92.5 (2060ec1f9f, 2020-04-08)">
  <metadata
     id="metadata154">
    <rdf:RDF>
      <cc:Work
         rdf:about="">
        <dc:format>image/svg+xml</dc:format>
        <dc:type
           rdf:resource="http://purl.org/dc/dcmitype/StillImage" />
        <dc:title></dc:title>
      </cc:Work>
    </rdf:RDF>
  </metadata>
  <sodipodi:namedview
     pagecolor="#ffffff"
     bordercolor="#666666"
     borderopacity="1"
     objecttolerance="10"
     gridtolerance="10"
     guidetolerance="10"
     inkscape:pageopacity="0"
     inkscape:pageshadow="2"
     inkscape:window-width="1920"
     inkscape:window-height="983"
     id="namedview152"
     showgrid="false"
     inkscape:pagecheckerboard="true"
     inkscape:zoom="1.3300156"
     inkscape:cx="100.54015"
     inkscape:cy="134.77268"
     inkscape:window-x="0"
     inkscape:window-y="27"
     inkscape:window-maximized="1"
     inkscape:current-layer="svg150"
     showguides="false" />
  <defs
     id="SvgjsDefs4842" />
  <g
     id="SvgjsG4843"
     featurekey="rootContainer"
     transform="matrix(3.0487807,0,0,3.0487807,0,-0.60975599)"
     style="fill:#000000">
    <path
       d="M 23.3,83.5 Z M 78.6,45.7 h 0.3 z m 23.5,7.9 a 15.2,15.2 0 0 0 -0.6,-1.9 V 51 c 0.2,-0.3 0.4,-0.5 0.4,-1.6 0,-1.1 0,-1.6 -0.1,-2.4 -0.1,-0.8 -0.1,-1.7 -0.2,-2.6 l -0.7,-0.8 A 49.6,49.6 0 0 0 93.2,23.7 H 92.8 A 2.6,2.6 0 0 0 92.5,23 h 0.2 l -1,-1.4 A 40.3,40.3 0 0 0 87.4,15.7 28.9,28.9 0 0 0 80.9,10.2 58.5,58.5 0 0 0 74.2,6.6 L 72,5.5 71,5 A 52.6,52.6 0 0 0 58.3,0.6 L 57,0.3 55.6,0.2 H 48 A 51.1,51.1 0 0 0 30.4,3.8 l -0.6,0.3 a 76.9,76.9 0 0 0 -7.8,4.3 37.7,37.7 0 0 0 -5.6,4.4 54.5,54.5 0 0 0 -4.9,5.5 68.2,68.2 0 0 0 -4.1,6 38.7,38.7 0 0 0 -3.1,6.5 l -0.6,1.3 a 40.8,40.8 0 0 0 -2.9,9.7 60,60 0 0 0 -0.7,6.3 c 0,0.7 0,1.3 -0.1,1.9 v 5.9 c 0.1,1.1 0.2,2.1 0.3,3.2 0.1,1.1 0.3,2.1 0.6,3.2 a 64.4,64.4 0 0 0 2.4,7.4 46.2,46.2 0 0 0 3,6.3 39.5,39.5 0 0 0 4,6.1 l 1.4,1.6 A 52.7,52.7 0 0 0 25.4,95 l 1.5,0.9 1.4,0.8 a 26.9,26.9 0 0 0 7.7,3.7 50.5,50.5 0 0 0 6.6,1.7 l 3.4,0.5 3.4,0.2 a 40.9,40.9 0 0 0 10.1,-0.9 l 2.8,-0.7 2.9,-0.7 a 36.5,36.5 0 0 0 4.9,-1.6 l 1.4,-0.6 1.4,-0.7 2.7,-1.4 a 54.9,54.9 0 0 0 9.7,-6.5 c 2.2,-1.9 4.3,-4.2 6.3,-6.3 l 0.9,-1.1 c 1.2,-2.1 2.7,-4 4,-6.1 l 0.6,-0.8 c 1.6,-3.2 2.8,-6.6 4.2,-9.8 l 0.2,-0.7 a 53.4,53.4 0 0 0 0.9,-6.1 c 0.1,-1 0.1,-2 0.1,-2.9 a 17.6,17.6 0 0 0 -0.4,-2.3 z m -14,-29.3 a 0.4,0.4 0 0 1 0.3,0.4 0.4,0.4 0 0 1 -0.4,0.4 l -0.3,-0.2 v -0.2 a 0.4,0.4 0 0 1 0.2,-0.3 z m 0,51 H 88 l -0.3,0.2 a 0.4,0.4 0 0 1 -0.3,-0.3 0.6,0.6 0 0 1 0.2,-0.5 h 0.1 l 0.2,-0.2 h 0.3 c 0.1,0.5 0,0.7 0,0.8 z M 87.9,44 a 0.7,0.7 0 0 1 -0.6,0.3 l -0.2,-0.2 a 0.4,0.4 0 0 1 0.4,-0.5 h 0.2 z m -0.3,25.7 h 0.2 a 0.4,0.4 0 0 1 0.4,0.3 0.5,0.5 0 0 1 -0.1,0.5 h -0.2 a 0.4,0.4 0 0 1 -0.4,-0.3 0.5,0.5 0 0 1 0.1,-0.5 z m 1.1,-4.2 c 0,-0.3 0.3,-0.3 0.3,-0.3 h 0.3 c 0.3,0 0.3,0.3 0.3,0.4 l -0.2,0.3 h -0.5 z m 0.9,13.6 h -0.4 a 0.5,0.5 0 0 1 -0.1,-0.4 l 0.4,-0.2 h 0.1 c 0.3,0 0.3,0.3 0.3,0.4 z m 0.1,-24.4 h -0.2 l -0.2,-0.2 a 0.5,0.5 0 0 1 0.1,-0.4 0.6,0.6 0 0 1 0.6,-0.2 l 0.2,0.4 a 0.5,0.5 0 0 1 -0.5,0.3 z m 2.2,-30.3 h -0.3 l -0.4,-0.2 a 0.4,0.4 0 0 1 0,-0.4 h 0.5 l 0.2,0.2 a 0.3,0.3 0 0 1 0,0.3 z m 0.2,1.4 A 0.5,0.5 0 0 1 92,26.1 l -0.2,0.3 A 0.4,0.4 0 0 1 91.4,25.9 0.5,0.5 0 0 1 92,25.5 Z m -0.6,10.4 v 0.4 h -0.1 a 0.8,0.8 0 0 1 -0.6,0.3 h -0.6 a 0.4,0.4 0 0 1 -0.1,-0.5 0.7,0.7 0 0 1 0.5,-0.5 h 0.1 a 0.7,0.7 0 0 1 0.8,0.2 z m -0.9,22.4 0.5,0.2 a 0.4,0.4 0 0 1 0,0.4 h -0.9 v -0.3 a 0.4,0.4 0 0 1 0.4,-0.4 z m 0.5,-0.7 a 0.5,0.5 0 0 1 0.1,-0.3 l 0.3,-0.2 a 0.7,0.7 0 0 1 0.4,0.8 h -0.6 z m 0.1,0.8 0.3,-0.2 c 0.3,0 0.4,0.3 0.4,0.4 a 0.4,0.4 0 0 1 -0.4,0.4 h -0.2 a 0.6,0.6 0 0 1 -0.1,-0.7 z m 0.6,11.7 H 92 A 0.7,0.7 0 0 1 92.3,71 L 92,71.2 a 0.6,0.6 0 0 1 -0.5,-0.4 0.4,0.4 0 0 1 0.3,-0.5 z M 91.9,42 h -0.3 v -0.3 a 0.6,0.6 0 0 1 0.8,-0.4 l 0.2,0.4 H 92.5 C 92.3,41.8 92.1,42 91.9,42 Z M 92.3,31 H 92 l -0.2,-0.2 a 0.5,0.5 0 0 1 0.1,-0.5 L 92.2,30 c 0.5,0 0.4,0.5 0.4,0.7 z M 82.1,53.9 a 0.5,0.5 0 0 1 -0.4,-0.2 h -0.1 l -0.2,-0.3 a 0.4,0.4 0 0 1 0.7,0 0.6,0.6 0 0 1 0.1,0.5 z m 3.5,-34.1 c 0,0.1 -0.2,0.3 -0.5,0.3 h -0.5 l -0.3,-0.3 a 0.8,0.8 0 0 1 0.9,-0.6 h 0.1 v 0.2 z m -0.7,4.3 a 0.5,0.5 0 0 1 0.1,0.4 h -0.3 a 0.4,0.4 0 0 1 -0.3,-0.2 h 0.1 L 84.3,24 c 0,-0.2 0.4,-0.2 0.6,0.1 z m -0.6,19 a 0.5,0.5 0 0 1 -0.1,0.4 l -0.4,0.2 h -0.1 l -0.2,-0.4 a 0.6,0.6 0 0 1 0.6,-0.4 z M 83.5,81 v 0.2 l -0.3,0.2 H 83 l -0.2,-0.3 v -0.2 l 0.3,-0.2 h 0.2 z M 83.2,68.4 H 82.9 L 82.7,68.2 V 68 l 0.2,-0.2 h 0.5 a 0.4,0.4 0 0 1 0.1,0.3 z m 0.9,-15.3 -0.2,-0.3 a 0.4,0.4 0 0 1 0.4,-0.3 l 0.6,0.3 H 85 v 0.3 a 0.4,0.4 0 0 1 -0.4,0.3 l -0.5,-0.2 z m 1,29 h 0.4 v 0.4 a 0.4,0.4 0 0 1 -0.4,0.4 H 85 L 84.8,82.7 A 0.5,0.5 0 0 1 85,82.1 Z m 0.5,-3.9 a 0.5,0.5 0 0 1 0.1,-0.5 l 0.4,-0.3 0.2,0.2 0.3,0.2 a 0.5,0.5 0 0 1 -0.1,0.4 l -0.4,0.2 H 86 Z M 86.4,52.9 86,53.1 h -0.1 l -0.2,-0.2 a 0.5,0.5 0 0 1 0.4,-0.5 l 0.2,-0.2 h 0.3 l 0.2,0.2 v 0.3 l -0.2,0.2 z M 86,31.6 86.2,31.3 h 0.4 a 0.5,0.5 0 0 1 0.1,0.4 l -0.4,0.2 h -0.1 c -0.3,0 -0.3,-0.3 -0.3,-0.4 z m -3.8,-18 -0.2,0.2 h -0.3 l -0.2,-0.2 a 0.4,0.4 0 0 1 0.1,-0.4 h 0.1 z M 80,44.3 c 0,0 -0.3,-0.3 -0.2,-0.5 l 0.2,-0.2 0.3,0.2 c 0.3,0 0.4,0.2 0.4,0.3 0,0.1 -0.1,0.3 -0.4,0.3 H 80 Z m 0.1,19.3 v 0.2 c -0.5,0.1 -0.2,-0.6 0,-0.3 z m -15,30.3 H 65 a 0.4,0.4 0 0 1 0.6,0.1 0.6,0.6 0 0 1 -0.1,0.6 H 65.3 C 65,94.6 65,94.3 65,94.2 h 0.1 z m -1.8,-4.5 c 0.1,-0.1 0.1,-0.2 0,-0.2 h 0.1 V 89 c 0.2,0 0.4,0.2 0.4,0.5 a 0.4,0.4 0 0 1 -0.1,0.3 H 63.5 V 89.6 Z M 60.8,18.9 60.6,18.7 v -0.2 l 0.2,-0.2 a 0.5,0.5 0 0 1 0.5,0.1 0.4,0.4 0 0 1 0.1,0.3 l -0.2,0.2 z m -0.1,0.8 v -0.3 c 0.3,-0.1 0.3,0.5 0,0.4 z m -0.9,52.5 a 0.2,0.2 0 0 1 0,-0.2 h 0.1 a 0.3,0.3 0 0 0 0,-0.2 v -0.3 h 0.3 a 0.5,0.5 0 0 1 0.1,0.4 0.5,0.5 0 0 1 -0.5,0.5 z M 59.6,70 59.2,69.8 a 0.5,0.5 0 0 1 -0.1,-0.4 l -0.2,-0.3 v -0.2 l 0.3,-0.2 h 0.2 l 0.2,0.3 h 0.2 a 0.5,0.5 0 0 1 0.1,0.4 l -0.2,0.2 z m 0,4.3 H 59.2 L 59,74.1 a 0.4,0.4 0 0 1 0.1,-0.4 l 0.3,-0.2 0.3,0.3 a 0.5,0.5 0 0 1 -0.2,0.5 z m -2.3,13.2 c 0,-0.2 0.1,-0.4 0.6,-0.4 H 58 l 0.2,0.2 A 0.5,0.5 0 0 1 58,87.9 l -0.2,0.2 h -0.1 a 0.4,0.4 0 0 1 -0.4,-0.3 h 0.1 z M 55.1,44.7 c 0,0.3 -0.2,0.3 -0.3,0.3 h -0.3 l -0.3,-0.2 a 0.9,0.9 0 0 1 0.1,-0.5 V 44.1 H 54.2 L 54,43.9 a 2.5,2.5 0 0 1 0.5,-1.3 h 0.4 a 1.8,1.8 0 0 1 -0.1,1 1.3,1.3 0 0 0 0.3,1.1 z m -0.8,38.5 -0.2,0.3 a 0.6,0.6 0 0 1 -0.6,-0.6 v -0.2 h 0.2 l 0.2,-0.2 h 0.2 a 0.6,0.6 0 0 1 0.1,0.5 0.8,0.8 0 0 0 0.1,0.2 z m 0,5.5 -0.2,0.3 -0.3,0.2 c -0.3,-0.1 -0.3,-0.4 -0.3,-0.5 a 0.7,0.7 0 0 0 0,-0.1 l 0.2,-0.3 h 0.2 l 0.2,0.3 h 0.1 z m -2,-22.3 c 0.1,-0.1 0.1,-0.2 0,-0.2 h 0.1 V 66 c 0.2,0 0.4,0.2 0.4,0.5 a 0.4,0.4 0 0 1 -0.1,0.3 h -0.2 v -0.2 z m 0.3,-1 h -0.3 l -0.2,-0.2 v -0.3 l 0.2,-0.2 h 0.4 a 0.5,0.5 0 0 1 0.1,0.4 z M 52.5,25 h -0.1 l -0.2,-0.2 a 0.5,0.5 0 0 1 0.1,-0.3 l 0.3,-0.3 0.3,0.2 0.2,0.3 a 0.5,0.5 0 0 1 -0.6,0.4 z M 52.8,23.8 52.5,24 A 0.7,0.7 0 0 1 52.1,23.2 L 52.3,23 h 0.3 l 0.2,0.2 z M 52,97.3 52.2,97.1 h 0.1 a 0.5,0.5 0 0 1 0.6,0.1 H 53 a 0.5,0.5 0 0 1 -0.1,0.4 l -0.4,0.2 -0.4,-0.2 a 0.5,0.5 0 0 1 0,-0.2 z M 42.8,43.7 h -0.3 a 0.7,0.7 0 0 1 0.2,0.4 l 0.3,0.2 a 0.5,0.5 0 0 1 -0.1,0.4 H 42.5 L 42.3,44.3 42,44.1 41.8,43.8 a 0.4,0.4 0 0 1 0.4,-0.2 h 0.1 a 0.4,0.4 0 0 1 0,-0.3 h 0.1 L 42.2,43 C 42,43 41.6,42.9 41.7,42.4 l 0.2,-0.2 a 0.6,0.6 0 0 1 0.6,0.2 0.5,0.5 0 0 1 0.1,0.4 h 0.1 a 0.4,0.4 0 0 1 0.4,0.3 c 0,0.2 -0.2,0.4 -0.3,0.6 z m 0.1,8.7 h -0.4 a 0.6,0.6 0 0 1 -0.4,-0.6 l 0.2,-0.2 h 0.4 l 0.2,0.2 a 0.6,0.6 0 0 1 0,0.6 z m -2.4,34.2 c 0,-0.3 0.3,-0.3 0.4,-0.3 H 41 l 0.3,0.2 v 0.3 L 41.1,87 H 41 a 0.4,0.4 0 0 1 -0.3,-0.2 h 0.1 z m -2.7,-23 -0.3,0.3 c -0.1,0 -0.5,-0.1 -0.4,-0.7 L 37.3,63 h 0.4 a 0.5,0.5 0 0 1 0.1,0.4 0.8,0.8 0 0 0 0.1,0.2 z m -2.5,30.1 a 0.5,0.5 0 0 1 0.1,-0.4 0.4,0.4 0 0 1 0.4,-0.1 L 36,93.5 H 35.9 A 0.4,0.4 0 0 1 36.2,94 L 36,94.2 A 0.4,0.4 0 0 1 35.6,94 Z M 16.7,19.6 h -0.4 l -0.2,-0.2 a 0.3,0.3 0 0 1 0.3,-0.3 h 0.4 l 0.2,0.2 a 0.3,0.3 0 0 1 -0.3,0.3 z m 0.7,0.3 h 0.1 l 0.2,0.3 a 0.5,0.5 0 0 1 -0.5,0.3 H 16.9 A 0.5,0.5 0 0 1 16.8,20.1 L 17,19.9 Z m -0.7,14.4 a 0.4,0.4 0 0 1 0,0.4 H 16.3 L 16.1,34.4 H 16 a 0.3,0.3 0 0 1 0.1,-0.3 0.5,0.5 0 0 1 0.6,0.2 z M 16,79.5 16.2,79.3 h 0.3 l 0.2,0.2 v 0.3 L 16.5,80 H 16.2 L 16,79.8 Z m 0.7,-0.7 c -0.3,-0.1 -0.3,-0.4 -0.3,-0.5 a 0.7,0.7 0 0 0 0,-0.1 l 0.3,-0.3 a 0.4,0.4 0 0 1 0.4,0.3 0.5,0.5 0 0 1 -0.1,0.5 z m 0,-4.8 h -0.2 v -0.2 c 0,-0.2 0.1,-0.4 0.3,-0.4 l 0.3,-0.2 a 0.4,0.4 0 0 1 0.3,0.4 0.6,0.6 0 0 1 -0.7,0.4 z M 17,36.2 H 16.7 V 36 c 0,-0.1 0.1,-0.3 0.4,-0.3 h 0.3 l 0.2,0.4 A 0.5,0.5 0 0 1 17,36.2 Z m 0.4,-10 H 17 l -0.2,-0.4 a 0.7,0.7 0 0 1 -0.2,-0.6 h 0.2 L 17,25 h 0.3 l 0.2,0.3 c 0,0.2 0.1,0.3 0.4,0.4 l 0.2,0.3 a 0.4,0.4 0 0 1 -0.4,0.4 H 17.3 Z M 33.3,40 c 0.1,-0.4 0.5,-0.4 0.7,-0.1 a 0.4,0.4 0 0 1 0,0.4 h -0.5 l -0.2,-0.4 z m 0,-15.6 -0.2,-0.3 v -0.2 l 0.3,-0.2 h 0.2 l 0.2,0.3 v 0.2 l -0.3,0.2 z m 1.2,23.8 h 0.2 a 0.6,0.6 0 0 1 0.1,0.5 0.2,0.2 0 0 0 0,0.2 l -0.2,0.3 a 0.9,0.9 0 0 1 -0.7,-0.7 v -0.2 a 0.5,0.5 0 0 1 -0.2,-0.4 l 0.2,-0.3 h 0.4 l 0.2,0.3 z m 0.2,10.2 -0.4,0.2 a 0.5,0.5 0 0 1 -0.4,-0.2 0.5,0.5 0 0 1 0,-0.5 h 0.4 c 0.3,0 0.4,0.2 0.4,0.3 a 0.4,0.4 0 0 1 0,0.1 z M 34.4,69.6 A 0.5,0.5 0 0 1 34.5,70 H 34.4 L 34,70.2 a 0.5,0.5 0 0 1 -0.4,-0.3 h -0.1 l -0.2,-0.4 a 0.7,0.7 0 0 1 1.1,0 z m 0.1,-7.4 H 34.3 L 34.1,62 a 0.4,0.4 0 0 1 0.1,-0.3 0.5,0.5 0 0 1 0.4,-0.2 H 35 l 0.3,0.2 V 62 a 0.8,0.8 0 0 1 -0.8,0.1 z M 35,40.6 h -0.2 v -0.2 a 0.4,0.4 0 0 0 0,-0.2 0.6,0.6 0 0 1 -0.1,-0.3 h 0.2 a 0.4,0.4 0 0 1 0,-0.2 l 0.2,-0.2 H 35 a 0.4,0.4 0 0 1 0.4,0.2 v 0.2 a 0.3,0.3 0 0 1 0.4,0.2 0.5,0.5 0 0 1 0,0.5 z m -0.2,-25.1 0.3,-0.2 a 0.7,0.7 0 0 1 0.3,0.6 l -0.2,0.2 h -0.4 a 0.5,0.5 0 0 1 -0.1,-0.4 z m 0.8,3.8 0.2,0.2 a 0.3,0.3 0 0 1 -0.1,0.3 H 35.4 L 35,19.6 a 0.4,0.4 0 0 1 0,-0.4 h 0.5 z M 35.2,56 35.4,55.8 h 0.4 l 0.2,0.4 a 0.6,0.6 0 0 1 -0.6,0.4 H 35.3 L 35.1,56.4 Z M 31.4,14.7 a 0.3,0.3 0 0 1 -0.2,-0.3 0.6,0.6 0 0 1 0.5,-0.5 0.4,0.4 0 0 1 0.3,0.2 0.4,0.4 0 0 1 -0.1,0.3 l -0.3,0.2 z m 0.4,27.8 0.3,-0.2 h 0.2 l 0.2,0.3 v 0.2 L 32.2,43 H 32 l -0.2,-0.3 z m -9,41.2 c 0,-0.2 0.1,-0.3 0.1,-0.4 a 0.6,0.6 0 0 1 0,-0.4 l 0.3,-0.2 c 0.3,0.1 0.6,0.3 0.6,0.6 a 0.5,0.5 0 0 1 -0.1,0.5 h -0.4 c 0,0.3 -0.2,0.4 -0.4,0.4 v -0.3 z m -2.2,-26.1 0.3,0.2 0.2,0.3 a 0.5,0.5 0 0 1 -0.5,0.4 l -0.4,-0.2 a 0.5,0.5 0 0 1 -0.1,-0.4 l 0.3,-0.2 h -0.1 z m 0.7,-34 a 0.4,0.4 0 0 1 -0.4,0.3 l -0.4,-0.2 a 0.4,0.4 0 0 1 0,-0.4 H 21 l 0.2,0.2 a 0.4,0.4 0 0 1 0,0.1 z m -0.6,2.9 h 0.1 a 0.5,0.5 0 0 1 0.4,0.5 l -0.4,0.2 h -0.1 c -0.1,0 -0.3,-0.1 -0.3,-0.3 l 0.3,-0.3 z m 0.7,23.8 v 0.3 l -0.2,0.3 -0.3,0.2 a 0.3,0.3 0 0 1 -0.3,-0.4 0.5,0.5 0 0 1 0.8,-0.4 z m -0.9,30.1 h 0.6 l 0.3,0.2 a 0.4,0.4 0 0 1 -0.1,0.3 l -0.4,0.2 h -0.3 a 0.4,0.4 0 0 1 -0.2,-0.7 z m 0.8,-1.7 v -0.2 l 0.3,-0.2 h 0.1 l 0.3,0.2 v 0.2 a 0.4,0.4 0 0 1 -0.4,0.4 H 21.4 Z M 21.7,57.8 H 21.6 L 21.4,57.6 A 0.7,0.7 0 0 1 21.5,57.1 0.5,0.5 0 0 1 22,57 l 0.2,0.3 c -0.1,0.2 -0.2,0.6 -0.6,0.6 z M 22,30 h -0.5 v -0.4 h 0.2 l 0.2,-0.3 h 0.4 a 0.4,0.4 0 0 1 0.5,0.2 0.6,0.6 0 0 1 0.1,0.6 l -0.2,0.2 H 22 Z m 0.7,-13.1 a 0.6,0.6 0 0 1 0.7,-0.4 v 0.3 a 0.5,0.5 0 0 1 -0.3,0.4 H 23 l -0.3,0.2 a 0.4,0.4 0 0 1 0,-0.6 z m 1,6 V 23 l -0.3,0.2 H 23.2 L 23,22.9 v -0.2 l 0.3,-0.2 h 0.2 z m 0.1,64.2 0.3,-0.2 a 0.4,0.4 0 0 1 0.3,0.4 0.5,0.5 0 0 1 -0.4,0.4 l -0.3,-0.2 v -0.2 a 0.4,0.4 0 0 1 0.1,-0.2 z M 24.2,36 24,36.3 h -0.5 a 0.4,0.4 0 0 1 -0.1,-0.5 0.2,0.2 0 0 0 0,-0.1 l 0.2,-0.3 h 0.1 v -0.3 a 0.7,0.7 0 0 1 0.6,-0.3 l 0.3,0.2 v 0.3 l -0.2,0.2 h -0.3 a 1,1 0 0 1 0.1,0.5 z m 1,-9.6 h 0.2 v -0.2 h 0.3 v 0.2 a 0.3,0.3 0 0 1 -0.3,0.4 v -0.2 z m 0,3.9 c 0,0.1 -0.1,0.2 -0.1,0.2 l -0.3,0.3 -0.3,-0.2 a 0.5,0.5 0 0 1 0,-0.4 0.5,0.5 0 0 0 0,-0.2 l 0.2,-0.3 a 0.4,0.4 0 0 1 0.4,0.2 0.4,0.4 0 0 1 0.1,0.4 z m -0.1,-9.6 h -0.3 l -0.2,-0.2 a 0.3,0.3 0 0 1 0,-0.1 h -0.1 v -0.3 a 0.3,0.3 0 0 1 0.3,-0.2 l 0.6,0.3 a 0.5,0.5 0 0 1 0.1,0.4 z m 0.1,20.1 v -0.3 h -0.1 l -0.2,-0.2 a 1.3,1.3 0 0 1 0,-0.6 h -0.1 l -0.2,-0.3 -0.3,-0.3 v -0.2 a 0.3,0.3 0 0 0 0.1,-0.3 l 0.3,-0.3 a 0.9,0.9 0 0 1 0.5,0.6 h 0.4 l 0.2,0.3 a 0.4,0.4 0 0 1 -0.4,0.3 h 0.3 c 0.1,0 0.3,0 0.4,0.2 h 0.1 v 0.4 a 0.2,0.2 0 0 0 0,0.2 h 0.1 l 0.2,0.4 a 0.4,0.4 0 0 1 -0.3,0.2 L 25.8,40.7 H 26 L 25.8,41 h -0.2 a 0.5,0.5 0 0 1 -0.4,-0.2 z m 0,6.9 a 0.5,0.5 0 0 1 -0.5,0.4 h -0.1 l -0.2,-0.2 a 0.4,0.4 0 0 1 0,-0.4 0.4,0.4 0 0 1 0.3,-0.1 H 25 Z m 3.4,-37 h -0.8 l -0.3,-0.2 v -0.2 c 0,-0.3 0.3,-0.5 0.6,-0.5 l 0.5,0.2 a 0.5,0.5 0 0 1 0.1,0.7 z m 0,13.5 h 0.2 a 0.4,0.4 0 0 1 0.4,0.3 0.5,0.5 0 0 1 -0.1,0.5 H 29 a 0.4,0.4 0 0 1 -0.4,-0.3 0.5,0.5 0 0 1 0.1,-0.5 z m -0.8,50 H 27.5 L 27.3,74 v -0.2 l 0.4,-0.2 h 0.1 c 0.1,0 0.3,0.1 0.3,0.3 z M 27.1,59.6 26.9,59.4 V 59.2 L 27.1,59 a 0.5,0.5 0 0 1 0.5,0.1 0.4,0.4 0 0 1 0.1,0.3 l -0.2,0.2 z M 27.6,23.9 H 27 v -0.4 l 0.2,-0.2 0.2,-0.3 a 0.8,0.8 0 0 1 0.6,0.2 v 0.3 a 0.5,0.5 0 0 1 -0.3,0.4 z m 0,-8.3 a 0.4,0.4 0 0 1 -0.2,0.3 l -0.2,0.2 c -0.3,0 -0.3,-0.3 -0.3,-0.4 l 0.4,-0.2 h 0.2 z m -0.8,16.9 0.3,-0.2 h 0.2 l 0.2,0.3 v 0.2 L 27.2,33 H 27 l -0.2,-0.3 z m -0.1,2 0.2,0.3 c 0,0.2 -0.1,0.5 -0.5,0.5 h -0.1 l -0.2,-0.2 v -0.4 l 0.2,-0.2 z M 26.9,76 a 0.4,0.4 0 0 1 0.4,-0.3 0.4,0.4 0 0 1 0.4,0.2 0.3,0.3 0 0 1 0,0.3 l -0.3,0.2 -0.3,-0.2 A 0.4,0.4 0 0 1 26.9,76 Z m 1.1,5.8 a 0.4,0.4 0 0 1 0,0.4 H 27.7 L 27.4,82 27.2,81.7 c 0.2,-0.2 0.6,-0.1 0.8,0.1 z M 27.9,79.2 V 79 l 0.2,-0.2 a 0.5,0.5 0 0 1 0.5,0.1 0.4,0.4 0 0 1 0.1,0.3 l -0.2,0.2 h -0.3 z m 0.8,-6.6 a 0.5,0.5 0 0 1 0.1,-0.5 H 29 c 0.3,0.1 0.3,0.4 0.3,0.5 L 29,72.9 a 0.4,0.4 0 0 1 -0.3,-0.3 z m 0.4,-21.5 0.2,-0.2 h 0.4 l 0.2,0.2 a 1.4,1.4 0 0 0 0,0.3 0.6,0.6 0 0 1 -0.2,0.6 h -0.4 a 0.9,0.9 0 0 1 -0.2,-0.9 z m 1.3,-3.2 c -0.1,0 -0.1,0 -0.1,-0.4 h 0.1 V 47 c 0.3,0 0.5,0.3 0.5,0.7 A 0.7,0.7 0 0 1 30.8,48 l -0.4,0.2 z M 30.2,21.7 c -0.1,-0.2 0,-0.4 0.1,-0.6 h 0.2 l 0.3,0.2 a 0.6,0.6 0 0 1 -0.1,0.6 l -0.2,0.2 z m 0,28.4 0.2,0.2 a 0.3,0.3 0 0 1 -0.1,0.3 H 30 l -0.4,-0.2 a 0.4,0.4 0 0 1 0,-0.4 h 0.5 z m 0,5 0.2,0.2 a 0.5,0.5 0 0 1 -0.1,0.4 0.6,0.6 0 0 1 -0.5,0.2 h -0.2 l -0.2,-0.3 a 0.7,0.7 0 0 1 0.8,-0.4 z m -0.6,12.7 0.2,-0.2 h 0.3 l 0.2,0.2 v 0.3 l -0.2,0.2 h -0.3 l -0.2,-0.2 z m 0.9,1.3 h 0.2 l 0.3,0.2 v 0.4 l -0.2,0.2 -0.5,-0.2 a 0.7,0.7 0 0 1 -0.2,-0.6 z m 0,1.5 0.3,-0.2 H 31 l 0.2,0.3 v 0.2 l -0.3,0.2 H 30.7 L 30.5,70.8 Z M 30.9,30 h -0.4 l -0.2,-0.3 c 0.1,-0.2 0.2,-0.3 0.3,-0.3 l 0.3,0.2 0.2,0.3 a 0.3,0.3 0 0 1 -0.2,0.2 z M 19.2,28.9 h 0.1 l 0.3,0.2 a 0.6,0.6 0 0 1 -0.1,0.5 0.8,0.8 0 0 1 -0.6,0.2 L 18.7,29.6 C 18.5,29 19,28.9 19.2,28.9 Z m -0.3,-8 c 0,-0.3 0.3,-0.3 0.4,-0.3 h 0.1 l 0.3,0.2 v 0.3 l -0.3,0.2 -0.3,-0.2 z m -0.2,29.9 h 0.5 a 0.4,0.4 0 0 1 0.3,0.2 h -0.1 l 0.2,0.3 a 0.4,0.4 0 0 1 -0.4,0.3 L 18.8,51.4 A 0.4,0.4 0 0 1 18.7,50.8 Z M 19.3,76 h 0.2 a 0.4,0.4 0 0 1 0.4,0.3 h -0.1 l 0.2,0.3 a 0.4,0.4 0 0 1 -0.4,0.2 0.5,0.5 0 0 1 -0.5,-0.4 0.4,0.4 0 0 1 0.2,-0.5 z m -0.2,9.6 h 0.2 a 0.3,0.3 0 0 1 0.3,0.3 0.4,0.4 0 0 1 0.1,0.4 h -0.3 l -0.5,-0.5 a 0.4,0.4 0 0 1 0.2,-0.3 z m 0.8,1.1 a 0.6,0.6 0 0 1 0.5,0.3 z m 15.3,-11 h 0.1 v -0.3 a 0.5,0.5 0 1 1 0,0.9 V 76 h -0.1 z m 1,-14.8 v -0.4 a 0.6,0.6 0 0 1 0.6,-0.2 h 0.1 l 0.4,0.2 a 0.6,0.6 0 0 1 -0.7,0.6 h -0.2 z m 1.6,-15.4 h -0.1 l -0.2,-0.2 a 0.5,0.5 0 0 1 0.1,-0.5 h 0.1 l 0.3,-0.2 0.3,0.2 a 0.5,0.5 0 0 1 0,0.4 l -0.2,0.2 z M 38,34.3 h -0.2 a 0.7,0.7 0 0 1 -0.1,-0.4 v -0.2 a 0.5,0.5 0 0 1 0.6,-0.1 h 0.1 l 0.3,0.3 A 0.8,0.8 0 0 1 38,34.3 Z m 0.6,2.4 A 0.3,0.3 0 0 1 38.5,37 h -0.3 a 0.5,0.5 0 0 1 -0.4,-0.4 0.3,0.3 0 0 1 0.1,-0.3 h 0.2 a 0.6,0.6 0 0 1 0.5,0.5 z m -0.3,18.8 h 0.1 l 0.3,-0.2 a 0.5,0.5 0 0 1 0.2,0.5 0.6,0.6 0 0 1 -0.5,0.5 H 38.2 L 38,56.1 a 0.5,0.5 0 0 1 0.3,-0.5 z m 1.6,4.7 -0.3,0.2 -0.3,-0.2 a 0.4,0.4 0 0 1 -0.1,-0.3 0.4,0.4 0 0 1 0.4,-0.3 0.4,0.4 0 0 1 0.4,0.2 0.3,0.3 0 0 1 -0.1,0.5 z m 0.2,2.1 v 0.2 l -0.3,0.2 H 39.6 L 39.4,62.4 V 62.2 L 39.7,62 h 0.2 z M 39.4,13.8 39.1,14 38.8,13.8 a 0.4,0.4 0 0 1 0.3,-0.6 0.4,0.4 0 0 1 0.4,0.2 0.3,0.3 0 0 1 0,0.5 z m -0.9,55.9 v -0.4 l 0.3,-0.2 c 0.4,0.1 0.7,0.4 0.7,0.9 v 0.2 h -0.9 v -0.7 z m 0.9,10.9 h 0.3 a 0.5,0.5 0 0 1 0.3,0.7 l -0.3,0.2 a 0.6,0.6 0 0 1 -0.3,-0.5 0.5,0.5 0 0 1 0,-0.4 z M 39.8,63.4 A 0.4,0.4 0 0 1 39.9,63 l 0.3,-0.2 0.3,0.3 a 0.5,0.5 0 0 1 -0.1,0.4 H 40 Z M 41.5,46.7 V 47 H 41 a 0.4,0.4 0 0 1 -0.1,-0.3 h 0.2 l -0.3,-0.3 c 0,-0.3 0.3,-0.3 0.4,-0.3 h 0.1 l 0.3,0.2 z m 0.1,24.6 v 0.2 l -0.3,0.2 H 41.1 L 40.9,71.4 V 71.2 L 41.2,71 h 0.2 z M 40.7,14.1 v -1 h 0.1 V 13 h 0.3 a 0.6,0.6 0 0 1 0.2,0.4 0.6,0.6 0 0 1 -0.5,0.8 z M 41,88.9 c 0.1,-0.2 0.2,-0.2 0.3,-0.2 l 0.3,0.2 0.3,0.2 a 0.3,0.3 0 0 1 -0.1,0.3 H 41.2 L 40.9,89.1 A 0.3,0.3 0 0 1 41,88.9 Z M 41.4,45.2 H 41.3 C 41.2,45.2 41,45.1 41,44.9 l 0.3,-0.3 h 0.1 a 0.5,0.5 0 0 1 0.4,0.5 z M 42,28.8 v -0.2 l 0.3,-0.2 a 0.5,0.5 0 0 1 0.4,0.5 l -0.2,0.2 h -0.4 z m 2.1,-7.3 h 0.4 a 0.5,0.5 0 0 1 0.1,0.4 l -0.2,0.2 H 44 a 0.5,0.5 0 0 1 -0.1,-0.4 z m -0.2,-2.3 h -0.2 l -0.2,-0.3 v -0.2 l 0.3,-0.2 H 44 l 0.2,0.3 V 19 Z m -0.8,38.6 h 0.1 l 0.5,-0.2 h 0.1 l 0.2,0.2 v 0.3 l -0.3,0.2 h -0.2 a 0.4,0.4 0 0 1 -0.4,-0.5 z m 0.7,-11.6 a 0.5,0.5 0 0 1 -0.5,-0.5 v -0.2 a 0.8,0.8 0 0 1 1,0 v 0.2 a 0.6,0.6 0 0 1 -0.5,0.6 z m 0.4,-2.3 H 44.1 A 0.5,0.5 0 0 1 43.8,43.4 L 44,43.2 h 0.1 c 0.4,0 0.5,0.4 0.5,0.5 z M 44,32.2 V 32 a 1,1 0 0 1 0.2,-0.8 h 0.7 l 0.2,0.2 v 0.2 a 0.6,0.6 0 0 1 0.1,0.8 h -0.4 z m 1.8,57 a 0.6,0.6 0 0 1 -0.1,0.5 h -0.5 a 0.5,0.5 0 0 1 -0.3,-0.6 l 0.2,-0.2 h 0.4 z M 45.7,84 46,83.7 l 0.3,0.2 a 0.4,0.4 0 0 1 0,0.3 L 46,84.4 C 45.7,84.3 45.7,84 45.7,83.9 a 1,1 0 0 0 0,0.1 z m 0.7,-8.1 v -0.4 h 0.1 a 0.4,0.4 0 0 1 0.4,0.3 0.9,0.9 0 0 1 0.1,0.3 c 0,0.4 -0.2,0.4 -0.3,0.4 h -0.4 a 0.4,0.4 0 0 1 0,-0.3 z m 0.3,-2.4 h 0.1 a 1,1 0 0 1 0.9,0 v 0.7 l -0.4,0.2 a 1,1 0 0 1 -0.6,-0.3 h -0.1 v -0.3 z m 3.6,14.9 h 0.3 a 0.7,0.7 0 0 1 0.4,0.5 0.5,0.5 0 0 1 -0.1,0.5 H 50.5 C 50.3,89.2 50,88.8 50.4,88.5 Z m -0.2,-4.8 0.3,-0.2 a 0.5,0.5 0 0 1 0.3,0.5 0.4,0.4 0 0 1 -0.4,0.4 h -0.2 a 0.7,0.7 0 0 1 0.1,-0.6 z m 0.5,-1.1 H 50.2 A 0.5,0.5 0 0 1 50,82.1 0.6,0.6 0 0 1 50.3,81.6 h 0.4 a 0.4,0.4 0 0 1 0.2,0.3 0.6,0.6 0 0 1 -0.2,0.7 z m 0.2,-13.1 a 0.6,0.6 0 0 1 -0.5,-0.2 0.5,0.5 0 0 1 -0.1,-0.3 v -0.3 c 0.1,-0.3 0.2,-0.4 0.4,-0.4 H 51 v 0.2 l 0.2,0.2 A 0.6,0.6 0 0 1 51.3,69 L 51,69.2 Z m -0.1,-7.1 c -0.4,-0.1 -0.4,-0.4 -0.4,-0.5 l 0.2,-0.2 a 0.5,0.5 0 0 1 0.5,0.1 0.5,0.5 0 0 1 0.1,0.5 h -0.4 z m 0.5,-16.6 -0.5,0.2 a 0.6,0.6 0 0 1 -0.6,-0.5 l 0.3,-0.3 h 0.7 l 0.2,0.2 a 0.6,0.6 0 0 1 -0.1,0.5 z m -1,27 a 0.4,0.4 0 0 1 0.3,0.5 0.5,0.5 0 0 1 -0.4,0.4 H 49.9 V 73.2 H 50 c 0,0 0,-0.1 0.1,-0.3 z M 49.9,25.2 h -0.2 c -0.4,0 -0.5,-0.4 -0.5,-0.6 l 0.2,-0.3 a 0.6,0.6 0 0 1 0.6,0.6 z m -3.1,57 a 0.5,0.5 0 0 1 -0.2,-0.6 l 0.3,-0.2 h 0.8 l 0.2,0.2 a 0.5,0.5 0 0 1 -0.3,0.6 h -0.1 l -0.3,0.2 H 47 l -0.2,-0.3 z m 0.3,1.9 a 0.5,0.5 0 0 1 0.5,0.2 l 0.3,0.4 h 0.2 a 0.4,0.4 0 0 1 0.4,0.4 0.5,0.5 0 0 1 -0.5,0.4 h -0.2 v -0.3 h -0.1 a 0.7,0.7 0 0 1 -0.6,-0.8 z m 2.1,-34.6 c 0,0.1 -0.1,0.3 -0.3,0.3 -0.2,0 -0.3,-0.2 -0.3,-0.3 h 0.1 l -0.2,-0.4 a 0.4,0.4 0 0 1 0.3,-0.2 c 0.3,0 0.3,0.3 0.4,0.4 H 49.1 Z M 49.1,71.8 48.8,72 a 0.7,0.7 0 0 1 -0.3,-0.6 l 0.3,-0.3 c 0.1,0.1 0.5,0.2 0.4,0.8 z m -0.5,-8.3 h 0.2 l 0.2,0.4 a 0.3,0.3 0 0 1 -0.3,0.2 h -0.2 l -0.2,-0.3 v -0.2 z m -0.3,32.7 v -0.3 a 0.5,0.5 0 0 1 0.5,0.1 h -0.2 l 0.3,-0.2 0.2,0.2 A 0.3,0.3 0 0 1 49,96.3 h -0.1 l -0.2,0.4 h -0.4 l -0.2,-0.3 z m 0.8,-0.9 H 49 L 48.8,95.1 V 94.7 L 49,94.5 h 0.2 l 0.2,0.2 v 0.4 z M 49.2,7.5 H 48.9 A 0.7,0.7 0 0 1 48.3,7.1 0.6,0.6 0 0 1 48.4,6.5 h 0.3 a 1.2,1.2 0 0 1 0.5,0.8 z m -0.8,41.2 c 0,0.2 -0.1,0.6 -0.6,0.6 h -0.2 a 0.4,0.4 0 0 1 -0.1,-0.5 0.3,0.3 0 0 0 0,-0.2 l 0.2,-0.3 h 0.5 z M 48,23.4 h -0.4 l -0.2,-0.2 a 0.5,0.5 0 0 1 0.1,-0.4 l 0.3,-0.2 0.3,0.3 a 0.4,0.4 0 0 1 0,0.6 z m 0,-10.7 -0.3,0.2 h -0.1 c -0.2,0 -0.6,-0.1 -0.5,-0.6 l 0.2,-0.2 h 0.2 a 0.4,0.4 0 0 1 0.5,0.6 z m 2.1,84.8 a 0.3,0.3 0 0 1 -0.4,-0.3 c 0,-0.2 0,-0.3 0.1,-0.4 h 0.4 L 50,96.5 v -0.2 l 0.3,-0.2 h 0.2 l 0.2,0.3 h -0.1 l 0.3,0.2 v 0.2 a 1.2,1.2 0 0 1 -0.4,0.8 h -0.2 a 0.4,0.4 0 0 1 -0.2,0 z m 0.9,-16 a 0.4,0.4 0 0 1 0,-0.4 h 0.7 l 0.2,0.2 a 0.3,0.3 0 0 1 -0.1,0.3 l -0.4,0.2 z m 5,-47.2 0.2,-0.2 a 0.6,0.6 0 0 1 0.5,0.1 l 0.3,0.3 a 0.5,0.5 0 0 1 -0.5,0.4 L 56.1,34.7 A 0.5,0.5 0 0 1 56,34.3 Z M 55.9,10.6 C 55.8,10.3 56.1,10 56.2,9.9 h 0.3 a 0.6,0.6 0 0 1 0.4,0.3 0.5,0.5 0 0 1 -0.1,0.4 v 0.2 L 56.5,11 C 56.1,10.9 55.9,10.8 55.9,10.6 Z M 53.8,48.4 54,48.2 a 0.4,0.4 0 0 1 0.4,0.1 0.5,0.5 0 0 1 0.1,0.4 0.6,0.6 0 0 0 0,0.1 l -0.3,0.3 c -0.1,0 -0.4,-0.1 -0.4,-0.7 z M 53.7,32.1 53.5,31.9 53.3,31.5 a 0.7,0.7 0 0 1 0.6,-0.3 l 0.2,0.2 A 0.6,0.6 0 0 1 54,31.9 Z m 0.4,-5.3 h -0.3 l -0.2,-0.3 v -0.2 l 0.3,-0.2 a 0.5,0.5 0 0 1 0.4,0.5 z m -1,-7 0.3,-0.2 0.2,-0.2 a 0.6,0.6 0 0 1 0.6,0.2 h 0.1 l 0.2,0.3 A 0.5,0.5 0 0 1 54,20.2 h -0.1 a 0.4,0.4 0 0 1 0,0.1 0.4,0.4 0 0 1 -0.5,0.3 h -0.1 l -0.2,-0.2 z m 0.2,30.3 a 0.4,0.4 0 0 1 0.5,0.2 0.7,0.7 0 0 1 -0.2,0.6 h -0.2 c -0.3,-0.1 -0.3,-0.4 -0.3,-0.5 a 0.9,0.9 0 0 0 0,-0.1 z m 0.1,8.5 h 0.5 l 0.2,0.3 a 0.4,0.4 0 0 1 -0.2,0.3 l -0.2,0.2 c -0.1,0 -0.3,0 -0.3,-0.3 z m 0.7,22.7 -0.2,-0.2 A 0.6,0.6 0 0 1 54,80.6 l 0.3,-0.2 a 0.7,0.7 0 0 1 0.3,0.6 l -0.2,0.3 z m 1.1,-43.2 -0.3,0.2 H 54.7 L 54.5,38 v -0.2 l 0.3,-0.2 H 55 l 0.2,0.3 z m 0.6,3.6 h 0.4 l 0.2,0.2 a 1,1 0 0 1 -0.2,0.8 h -0.3 l -0.3,-0.3 h -0.1 l -0.3,-0.3 c 0.1,-0.2 0.2,-0.4 0.5,-0.4 z m 0.6,6.3 a 0.5,0.5 0 0 1 0.1,0.4 l -0.2,0.2 H 56.2 A 0.7,0.7 0 0 1 55.7,48.3 H 55.6 V 48 c -0.1,-0.3 0.4,-0.3 0.7,0 z m 0.4,2.9 h 0.3 l 0.3,0.2 a 0.3,0.3 0 0 1 -0.3,0.3 h -0.4 v -0.3 c -0.3,-0.2 -0.1,-0.2 -0.1,-0.2 z m 0.8,11.3 v 0.4 H 57.4 L 57,62.8 h -0.3 v -0.2 a 0.8,0.8 0 0 1 0.7,-0.4 z m 0.7,-41.6 c -0.2,-0.2 0,-0.3 0,-0.5 v -0.2 a 0.5,0.5 0 0 1 0.5,0.5 0.4,0.4 0 0 1 -0.1,0.3 H 58.3 V 20.4 Z M 58.5,50 58.3,49.8 v -0.2 l 0.2,-0.2 c 0.3,-0.1 0.5,0.1 0.5,0.5 l -0.3,0.3 z m 0.4,-36.7 v 0.2 l -0.2,0.2 H 58.5 L 58.3,13.5 V 13.2 L 58.5,13 h 0.2 l 0.2,-0.3 0.3,-0.2 a 0.5,0.5 0 0 1 0.4,0.3 l 0.2,0.3 a 0.4,0.4 0 0 1 -0.4,0.3 H 59.1 Z M 60.2,42 59.8,41.8 h -0.2 l -0.3,-0.3 a 0.4,0.4 0 0 1 0.4,-0.4 l 0.7,0.3 h 0.1 v 0.3 c 0.1,0 0,0.3 -0.3,0.3 z m -0.6,-7.3 h 0.2 l 0.3,0.2 v 0.2 a 0.4,0.4 0 0 1 -0.4,0.4 h -0.2 v -0.4 l 0.3,-0.2 z M 74.1,11.2 a 0.8,0.8 0 0 1 0.1,0.3 l -0.3,0.2 h -0.6 a 0.7,0.7 0 0 1 -0.1,-0.8 0.6,0.6 0 0 1 0.5,-0.4 h 0.1 l 0.2,0.3 a 0.3,0.3 0 0 0 0.1,0.4 z m 1.4,-2.4 a 0.5,0.5 0 0 1 0.4,0.5 0.5,0.5 0 0 1 -0.5,0.4 H 75 V 9.1 l 0.3,-0.2 z m 0.7,74.6 -0.2,0.3 h -1.7 l -0.2,-0.3 0.2,-0.3 0.2,-0.3 h 0.9 A 0.6,0.6 0 0 1 76,82.6 l 0.2,0.2 a 0.6,0.6 0 0 1 -0.1,0.5 v 0.1 z M 73,71.1 h -0.3 l -0.2,-0.2 v -0.3 l 0.2,-0.2 h 0.5 l 0.2,0.2 h 0.3 L 74,71 h 0.3 a 0.6,0.6 0 0 1 -0.2,-0.6 h 0.2 a 0.8,0.8 0 0 1 -0.2,-0.6 0.3,0.3 0 0 1 0.3,-0.2 h 0.2 a 0.5,0.5 0 0 1 0.1,0.4 l 0.2,0.2 a 0.4,0.4 0 0 1 -0.1,0.3 0.6,0.6 0 0 1 0.2,0.6 l -0.3,0.2 a 0.9,0.9 0 0 1 0,0.6 0.5,0.5 0 0 1 -0.5,0.4 h -0.9 a 0.6,0.6 0 0 1 0,-0.4 z M 73.5,55 73.8,54.8 c 0.1,0.1 0.4,0.2 0.4,0.4 a 0.4,0.4 0 0 1 -0.1,0.4 H 73.8 A 0.7,0.7 0 0 1 73.5,55 Z m 1.4,-17.9 -0.3,0.2 a 0.3,0.3 0 0 1 -0.2,-0.4 0.5,0.5 0 0 1 0.5,-0.4 0.4,0.4 0 0 1 0.4,0.2 0.4,0.4 0 0 1 -0.5,0.4 z m 0.4,29.4 0.2,0.2 V 67 l -0.2,0.2 H 75 L 74.8,67 V 66.7 L 75,66.5 Z m -1.8,19.7 h 0.4 l 0.2,0.2 0.3,0.3 A 0.4,0.4 0 0 1 74,87.1 l -0.3,-0.2 a 0.6,0.6 0 0 1 -0.2,-0.7 z m 2,-13.8 -0.2,-0.2 v -0.4 l 0.3,-0.2 a 0.6,0.6 0 0 1 0.4,0.6 c 0,0 -0.1,0.2 -0.5,0.2 z m 0.2,-50 h -0.4 l -0.2,-0.3 v -0.2 l 0.3,-0.2 a 0.5,0.5 0 0 1 0.4,0.5 z m -0.7,-8.7 0.2,0.2 a 0.4,0.4 0 0 1 -0.1,0.4 l -0.2,0.2 H 74.7 L 74.5,14.3 V 14 l 0.2,-0.2 z M 74.9,19 a 0.4,0.4 0 0 1 0,0.4 h -0.4 l -0.2,-0.3 h -0.1 a 0.3,0.3 0 0 1 0.1,-0.3 0.5,0.5 0 0 1 0.6,0.2 z M 74,30.5 a 0.8,0.8 0 0 1 0.2,0.6 l -0.3,0.2 -0.8,-0.4 v -0.3 a 0.6,0.6 0 0 1 0.8,-0.1 z m -0.7,21 v 0.4 L 73,52.1 a 0.7,0.7 0 0 1 -0.5,-0.2 v -0.2 h -0.1 l -0.3,0.2 c -0.3,0 -0.3,-0.3 -0.3,-0.4 L 72,51.2 h 0.4 l 0.2,0.2 0.2,-0.2 H 73 Z m -0.7,-31 -0.2,0.2 a 0.6,0.6 0 0 1 -0.6,-0.4 0.5,0.5 0 0 1 0.1,-0.6 h 0.3 a 0.7,0.7 0 0 1 0.3,0.8 z m -0.3,19.8 v 0.2 C 71.7,40.7 72,40 72.2,40.3 Z M 72,48.1 h 0.3 l 0.2,0.2 v 0.3 l -0.2,0.2 h -0.1 a 0.4,0.4 0 0 1 -0.4,-0.2 l -0.2,-0.3 c -0.1,0.1 0,-0.1 0.3,-0.1 z M 71.8,68 h 0.4 v 0.4 H 72 a 0.6,0.6 0 0 1 -0.5,0.3 l -0.3,-0.3 a 0.4,0.4 0 0 0 0,-0.2 L 70.9,68 a 0.4,0.4 0 0 1 0.4,-0.4 z m -0.7,8.6 a 0.5,0.5 0 0 1 0.1,-0.4 h 0.4 l 0.2,0.2 a 0.4,0.4 0 0 1 0,0.1 v 0.2 c 0,0.2 -0.2,0.3 -0.5,0.3 V 76.8 77 h -0.1 z m 0.3,13.5 -0.2,0.3 H 70.9 L 70.7,90 v -0.2 l 0.2,-0.2 c 0.3,0 0.4,0.1 0.4,0.5 z M 71.1,65 a 0.5,0.5 0 0 1 -0.4,0.3 l -0.2,-0.2 a 0.5,0.5 0 0 1 0.1,-0.3 l 0.2,-0.3 H 71 v 0.4 z m -1.5,1.4 H 69.2 L 69,66.2 a 0.4,0.4 0 0 1 0.1,-0.4 l 0.3,-0.2 0.3,0.3 a 0.5,0.5 0 0 1 -0.2,0.5 z m 0,6.3 -0.3,0.2 H 69 a 0.7,0.7 0 0 1 0,-0.7 h 0.4 a 0.6,0.6 0 0 1 0.2,0.5 z m -0.4,-25 -0.3,-0.3 a 0.4,0.4 0 0 1 0.7,-0.3 0.5,0.5 0 0 1 0.1,0.4 l -0.4,0.2 z m 0.5,16.5 V 64 l 0.2,-0.2 h 0.2 l 0.2,0.2 a 0.4,0.4 0 0 1 -0.1,0.3 0.5,0.5 0 0 1 -0.4,0.2 z M 71,33.5 70.7,33.7 h -0.4 l -0.2,-0.3 h -0.2 l -0.4,-0.2 a 0.4,0.4 0 0 1 0,-0.4 h 0.2 a 0.4,0.4 0 0 1 0.5,0.2 h -0.1 l 0.2,0.3 h 0.2 l 0.3,-0.2 H 71 l 0.2,0.2 z M 70.3,9.6 H 69.9 C 69.5,9.5 69.5,9.2 69.5,9.1 h 0.4 c 0.4,0.1 0.5,0.3 0.4,0.5 z m -0.7,6.9 a 0.6,0.6 0 0 1 -0.5,0.3 L 68.7,16.6 V 16.4 C 68.8,16.1 69,16 69.1,16 h 0.4 z M 68.9,51.6 H 69 l 0.3,0.3 a 0.6,0.6 0 0 1 -0.2,0.4 H 69 l -0.3,0.2 -0.3,-0.2 a 0.4,0.4 0 0 1 0.1,-0.4 z m -0.7,24 h -0.1 a 0.3,0.3 0 0 1 0.1,-0.3 0.5,0.5 0 0 1 0.7,0.1 0.4,0.4 0 0 1 0,0.4 h -0.4 l -0.2,-0.3 z m 0.2,-6.4 -0.2,0.2 H 67.9 L 67.7,69.2 V 69 l 0.2,-0.2 a 0.5,0.5 0 0 1 0.5,0.1 0.4,0.4 0 0 1 0,0.3 z M 67.5,40.1 h -0.3 a 0.7,0.7 0 0 1 0,-0.7 h 0.2 a 0.7,0.7 0 0 1 0.7,0.2 h 0.1 v 0.3 a 0.8,0.8 0 0 1 -0.7,0.2 z m -0.8,38.6 h -0.3 l -0.2,-0.2 v -0.2 l 0.4,-0.2 h 0.1 c 0.1,0 0.3,0.1 0.3,0.3 z m -0.6,-15 -0.3,0.2 h -0.2 c -0.1,-0.1 -0.1,-0.3 0,-0.7 H 66 a 0.7,0.7 0 0 1 0.1,0.4 z m 0.2,8 0.2,0.2 a 0.4,0.4 0 0 1 -0.4,0.5 H 66 l -0.3,-0.3 c 0,-0.4 0.3,-0.5 0.7,-0.5 z M 65.6,53.2 65.3,53.4 H 65.1 L 65,53 v -0.2 l 0.3,-0.2 h 0.2 l 0.2,0.3 z m -0.1,27.2 0.4,-0.2 a 0.6,0.6 0 0 1 0.4,0.6 L 66.1,81 H 65.8 L 65.6,80.8 Z M 66.8,69 66.5,68.8 66.3,68.5 c 0.1,-0.4 0.5,-0.4 0.7,-0.1 a 0.4,0.4 0 0 1 0,0.4 z M 68,28.3 h -0.4 l -0.2,-0.2 v -0.4 l 0.2,-0.2 h 0.2 c 0.5,0 0.5,0.4 0.5,0.6 z M 67.3,26.5 67,26.7 H 66.7 L 66.4,26.3 A 0.3,0.3 0 0 1 66.7,26 l 0.6,0.3 a 0.5,0.5 0 0 1 0.1,0.4 z M 66.5,56.8 66.2,57 a 0.6,0.6 0 0 1 -0.5,-0.4 0.4,0.4 0 0 1 0.2,-0.4 h 0.2 c 0.2,-0.1 0.5,0 0.5,0.6 z m -2.4,-18 a 0.6,0.6 0 0 1 0.2,-0.5 h 0.1 a 0.5,0.5 0 0 1 0.6,0.3 0.6,0.6 0 0 1 -0.1,0.6 h -0.3 l -0.3,0.2 -0.4,-0.2 V 39 a 0.5,0.5 0 0 1 0.2,-0.2 z m -0.6,-3.1 a 0.5,0.5 0 0 1 0.1,-0.4 l 0.2,-0.2 H 64 l 0.2,0.2 v 0.3 L 64,35.8 h -0.3 z m 1.3,-5.6 h -0.2 l -0.2,-0.2 a 0.4,0.4 0 0 1 0.1,-0.4 l 0.2,-0.2 h 0.2 l 0.2,0.2 A 0.4,0.4 0 0 1 65,29.9 Z m -1.5,-6.4 -0.4,0.2 h -0.1 a 1,1 0 0 1 -0.4,0.5 H 62 a 0.3,0.3 0 0 1 -0.2,-0.4 0.8,0.8 0 0 1 0.5,-0.6 0.5,0.5 0 0 1 0.1,-0.3 h 0.4 c 0.3,0 0.4,0.2 0.4,0.3 a 0.4,0.4 0 0 1 0.1,0.3 z M 62.4,55 a 0.6,0.6 0 0 1 -0.5,-0.3 0.5,0.5 0 0 1 0,-0.5 H 62 a 0.5,0.5 0 0 1 0.5,0.3 l 0.2,0.3 A 0.5,0.5 0 0 1 62.4,55 Z m 0,40.1 H 62 l -0.3,-0.2 a 0.2,0.2 0 0 1 0.1,-0.2 0.6,0.6 0 0 1 0.1,-0.4 h 0.4 a 0.7,0.7 0 0 1 0.1,0.8 z m 0.4,-21.8 h 0.5 l 0.2,0.2 a 0.4,0.4 0 0 1 -0.4,0.4 l -0.4,-0.2 a 0.5,0.5 0 0 1 -0.1,-0.4 z m 0.9,14.1 a 0.7,0.7 0 0 1 -0.1,-0.5 l 0.2,-0.2 h 0.3 l 0.2,0.2 v 0.4 l -0.2,0.2 h -0.5 z m 0.6,-36.9 0.2,-0.2 a 0.5,0.5 0 0 1 0.5,0.4 l 0.2,0.4 -0.4,0.2 -0.4,-0.2 A 0.7,0.7 0 0 1 64.3,50.5 Z M 65,81.6 c 0,-0.3 0.3,-0.3 0.4,-0.3 h 0.1 l 0.3,0.2 a 0.5,0.5 0 0 1 -0.1,0.4 l -0.4,0.2 H 65.2 L 65,81.9 a 0.3,0.3 0 0 1 0,-0.3 z m 12,7.8 -0.2,-0.3 a 0.5,0.5 0 0 1 0.5,-0.3 h 0.5 L 78,89 a 0.6,0.6 0 0 1 -0.1,0.4 l -0.2,0.2 a 0.7,0.7 0 0 1 -0.5,-0.2 z m 0.9,-22.5 h -0.2 l -0.2,-0.3 v -0.2 l 0.3,-0.2 H 78 l 0.2,0.3 v 0.2 z m 1.5,-31.3 a 0.3,0.3 0 0 1 -0.2,-0.4 c 0,-0.2 0.3,-0.3 0.7,-0.4 l 0.3,0.2 v 0.3 l -0.3,0.2 H 79.8 Z M 80,14.5 h -0.3 l -0.2,-0.2 a 0.4,0.4 0 0 1 0.4,-0.4 l 0.4,0.2 a 0.5,0.5 0 0 1 0.1,0.4 v 0.2 z m -0.1,15.3 a 0.4,0.4 0 0 1 0.1,0.4 l -0.2,0.2 H 79.6 A 0.5,0.5 0 0 1 79.2,30.2 L 79,29.9 a 0.4,0.4 0 0 1 0.4,-0.3 z m -0.8,6 0.2,0.2 v 0.3 l -0.2,0.2 h -0.3 l -0.2,-0.2 a 0.4,0.4 0 0 1 0.1,-0.4 l 0.2,-0.2 z m -0.6,10.1 v -0.3 h 0.1 V 45.3 A 0.4,0.4 0 0 1 79,45.7 0.4,0.4 0 0 1 78.9,46 h -0.3 v -0.3 z m 0.7,-3.6 c -0.3,0.4 -0.6,-0.2 0,0 z M 78.6,44 v 0.5 l -0.2,0.2 A 0.4,0.4 0 0 1 78,44.4 0.7,0.7 0 0 1 78.1,43.7 h 0.5 z m -0.8,4.9 h 0.1 l 0.3,-0.3 a 0.4,0.4 0 0 1 0.3,0.3 l 0.3,0.2 c 0,0.4 -0.2,0.5 -0.4,0.5 H 78.3 L 78,49.4 a 0.3,0.3 0 0 1 -0.2,-0.2 c -0.3,-0.2 -0.1,-0.3 0,-0.4 z M 78.2,89 h 0.1 a 0.5,0.5 0 0 1 0.6,0.3 0.6,0.6 0 0 1 -0.1,0.6 h -0.2 a 0.7,0.7 0 0 1 -0.4,-0.5 0.5,0.5 0 0 1 0,-0.4 z m 0.6,-5.6 h -0.2 l -0.2,-0.3 h 0.1 l -0.3,-0.2 a 0.4,0.4 0 0 1 0,-0.3 l 0.2,-0.2 a 0.4,0.4 0 0 1 0.5,0.2 0.6,0.6 0 0 1 0,0.4 h 0.2 l 0.2,0.3 v 0.2 z M 79.1,44 c -0.1,-0.2 0,-0.4 0.1,-0.6 l 0.2,-0.2 0.3,0.2 c 0.1,0.2 0,0.4 -0.1,0.6 l -0.2,0.2 z m 1.5,32.8 0.2,-0.2 H 81 l 0.2,0.2 a 0.4,0.4 0 0 1 -0.1,0.3 L 80.7,77.3 80.4,77 Z M 41.4,3.8 V 4 A 0.3,0.3 0 0 1 41.1,4.2 0.4,0.4 0 0 1 40.8,4 h 0.5 z M 17.6,17.1 h 0.2 a 0.4,0.4 0 0 1 0.3,0.4 0.6,0.6 0 0 1 -0.2,0.4 h -0.3 v -0.2 l -0.2,-0.2 z m -2.8,8.6 c 0.3,0.1 0.4,0.2 0.4,0.4 a 0.4,0.4 0 0 1 -0.4,0.4 L 14.4,26.3 V 26 a 0.4,0.4 0 0 1 0.2,-0.3 z M 14,26 a 0.4,0.4 0 0 1 -0.4,0.4 h -0.2 a 0.6,0.6 0 0 1 -0.1,-0.5 l 0.3,-0.2 c 0.4,-0.1 0.5,0.1 0.5,0.3 z m -2.3,40.1 -0.2,-0.2 -0.3,-0.3 a 0.4,0.4 0 0 1 0.4,-0.3 h 0.7 a 0.4,0.4 0 0 1 0,0.4 0.4,0.4 0 0 1 -0.3,0.1 z M 10,61.6 9.8,61.8 H 9.4 L 9.2,61.6 v -0.2 l 0.2,-0.2 a 0.5,0.5 0 0 1 0.5,0.1 0.4,0.4 0 0 1 0.1,0.3 z m -1.9,5.5 a 0.8,0.8 0 0 1 0.8,-0.5 l 0.3,0.2 A 0.6,0.6 0 0 1 9,67.3 H 8.9 L 8.7,67.6 H 8.6 A 0.4,0.4 0 0 1 8.2,67.3 H 8.3 Z M 5.2,41.3 A 0.4,0.4 0 0 1 5,41.7 V 41.2 Z M 4.4,57.4 H 4.3 V 56.8 L 4.5,57 Z M 5.9,50.5 C 6.2,50.4 6.4,50.6 6.4,51 L 6.1,51.3 H 5.9 L 5.6,51 V 50.8 Z M 5.2,62.6 A 0.4,0.4 0 0 1 5.6,62.3 0.4,0.4 0 0 1 6,62.7 0.4,0.4 0 0 1 5.7,63.1 C 5.5,63.1 5.3,62.9 5.3,62.9 A 0.3,0.3 0 0 1 5.2,62.6 Z M 5.6,58.1 A 0.6,0.6 0 0 1 5.7,57.5 H 6 a 0.6,0.6 0 0 1 0.4,0.4 0.6,0.6 0 0 1 -0.2,0.5 H 6.1 A 0.4,0.4 0 0 1 5.7,58.1 Z M 6.5,57 H 6 L 5.8,56.6 A 1.8,1.8 0 0 1 5.7,56.3 L 5.9,56.1 H 6 c 0.1,0 0.3,0 0.3,0.3 H 6.4 A 0.5,0.5 0 0 1 6.7,57 Z m 0,-3.1 H 5.8 L 5.6,53.6 a 0.6,0.6 0 0 1 0.6,-0.5 l 0.4,0.2 a 0.6,0.6 0 0 1 0.1,0.5 z M 6.5,49.2 5.9,49 A 0.4,0.4 0 0 1 5.8,48.6 v -0.2 a 0.5,0.5 0 0 1 0.7,0.1 H 6.6 V 49 a 0.5,0.5 0 0 1 -0.1,0.2 z m 0.4,6 h 0.4 v 0.4 A 0.4,0.4 0 0 1 6.9,56 H 7 L 6.8,55.8 A 0.5,0.5 0 0 1 6.9,55.2 Z M 7.4,53.9 H 7.2 L 7,53.5 v -0.2 l 0.3,-0.2 h 0.2 l 0.2,0.3 v 0.2 z M 8.3,40.8 H 8.2 l 0.3,0.3 C 8.4,41.3 8.3,41.4 8.2,41.4 L 7.9,41.2 7.7,40.9 c 0,-0.1 0.1,-0.3 0.3,-0.3 a 0.3,0.3 0 0 1 0.3,0.2 z m 0,-8.5 a 0.4,0.4 0 0 1 0.4,-0.4 l 0.4,0.2 a 0.5,0.5 0 0 1 0.1,0.4 L 9,32.7 H 8.4 Z M 7.9,33.7 H 7.6 A 0.6,0.6 0 0 1 7.5,33.2 L 7.8,33 c 0.3,0 0.4,0.3 0.4,0.4 A 0.4,0.4 0 0 1 7.8,33.7 Z M 7.8,51 7.6,50.7 c 0,-0.3 0.3,-0.3 0.4,-0.3 l 0.3,0.2 V 51 L 8,51.2 Z m 2.4,-1.8 0.3,-0.2 h 0.2 l 0.2,0.3 v 0.2 l -0.3,0.2 H 10.4 L 10.2,49.4 Z M 12.6,28.7 V 29 c -0.1,0.3 -0.2,0.3 -0.3,0.3 H 12 L 11.7,29.1 A 0.3,0.3 0 0 1 12,28.8 Z M 12.5,25.8 V 26 c -0.6,0.2 -0.3,-0.5 -0.1,-0.1 z m -0.3,7.5 a 0.5,0.5 0 0 1 0.1,0.4 L 12,34 h -0.4 a 0.5,0.5 0 0 1 -0.1,-0.4 l 0.2,-0.2 h 0.4 z m -0.3,19.3 v -0.3 c 0.2,0 0.2,0.6 -0.1,0.4 z m 0,7.5 H 12 l 0.2,0.3 v 0.2 l -0.3,0.2 h -0.2 l -0.2,-0.3 v -0.2 z m 0.1,-20 c 0,-0.5 0.4,-0.6 0.6,-0.6 h 0.2 l 0.3,0.2 A 0.6,0.6 0 0 1 13,40 l -0.2,0.3 h -0.5 z m 1,-15.3 h -0.4 a 0.9,0.9 0 0 1 0.2,0.4 0.4,0.4 0 0 1 -0.2,0.5 h -0.4 a 0.5,0.5 0 0 1 -0.1,-0.4 h 0.1 L 12,25 a 0.4,0.4 0 0 1 0.3,-0.2 h 0.1 c 0.1,-0.3 0.2,-0.4 0.4,-0.4 h 0.4 v 0.2 c 0.1,0.1 -0.1,0.2 -0.2,0.2 z m -1.2,-0.5 h 0.1 v 0.2 h -0.1 v 0.3 h -0.2 z m 0.4,23.5 v -0.2 l 0.3,-0.2 a 0.5,0.5 0 0 1 0.4,0.5 l -0.2,0.2 h -0.4 z m 0.1,25.3 0.2,-0.2 H 13 l 0.2,0.3 a 0.5,0.5 0 0 1 -0.5,0.4 h -0.1 l -0.2,-0.2 z m 0.5,-19.2 h -0.1 l -0.2,-0.2 a 0.5,0.5 0 0 1 0.1,-0.4 0.5,0.5 0 0 1 0.7,0 v 0.2 a 0.5,0.5 0 0 1 -0.4,0.4 z m 0.3,-31.5 -0.2,0.2 0.2,-0.3 a 0.5,0.5 0 0 1 0.1,0.1 z M 4.4,58.8 v -0.4 h 0.2 l 0.2,0.2 A 0.4,0.4 0 0 1 4.7,59 l -0.2,0.2 z m 40.4,39.7 z m 13.7,-0.2 a 0.6,0.6 0 0 1 0.2,-0.4 h 0.1 L 59,97.7 a 0.6,0.6 0 0 1 0.7,0.3 v 0.2 z M 93.7,41.7 H 93.5 L 93.3,41.5 V 41.2 L 93.5,41 h 0.4 l 0.2,0.3 v 0.2 z m 0.1,29.7 H 94 l 0.2,0.3 V 72 l -0.3,0.2 h -0.2 l -0.2,-0.3 v -0.2 z m 1,-17.4 v 0.4 h -0.1 v 0.3 a 0.5,0.5 0 1 1 0,-0.9 v 0.3 z m 0.6,-2.5 -0.3,0.2 C 94.8,51.6 94.8,51.3 94.8,51.2 L 95,51 l 0.3,0.2 a 0.4,0.4 0 0 1 0,0.4 z m 1,-1.8 a 0.3,0.3 0 0 1 0.3,-0.2 c 0.2,0 0.4,0.2 0.4,0.4 a 0.4,0.4 0 0 1 -0.2,0.4 h -0.1 a 0.4,0.4 0 0 1 -0.3,-0.4 h 0.1 z m 0.2,8.5 h 0.1 c 0.2,0 0.4,0.1 0.4,0.4 l -0.3,0.3 h -0.1 c -0.3,0 -0.3,-0.3 -0.3,-0.4 z M 98.9,40.3 99.2,40 a 0.5,0.5 0 0 1 0.3,0.3 0.4,0.4 0 0 1 -0.1,0.4 H 99 A 0.3,0.3 0 0 1 98.8,40.2 Z M 98.5,55.7 A 0.5,0.5 0 0 1 98,56 l -0.5,-0.2 a 0.5,0.5 0 0 1 -0.1,-0.5 l 0.3,-0.2 H 98 l -0.2,0.2 0.4,-0.2 a 0.4,0.4 0 0 1 0.2,0.6 z M 98.4,40.2 a 0.5,0.5 0 0 1 -0.1,0.5 L 98,41 h -0.6 l -0.2,-0.2 a 0.6,0.6 0 0 1 1,-0.5 z M 97,34.1 97.2,33.9 h 0.3 a 0.4,0.4 0 0 1 0.1,0.3 l 0.5,0.2 a 0.5,0.5 0 0 1 0.1,0.4 L 97.9,35 a 1.7,1.7 0 0 1 -0.8,-0.4 v -0.4 c 0,0 -0.2,0.1 -0.2,-0.1 z m -0.6,0.5 h 0.3 a 1.1,1.1 0 0 1 0.2,0.8 l -0.3,0.2 c -0.3,0 -0.4,-0.4 -0.4,-0.5 v -0.3 z m -0.1,2.2 h 0.3 a 0.7,0.7 0 0 1 0.3,0.6 l -0.3,0.2 c -0.1,-0.1 -0.4,-0.2 -0.4,-0.4 a 0.4,0.4 0 0 1 -0.1,-0.4 z m -0.3,7.3 -0.3,0.2 -0.4,-0.2 v 0.2 H 94.2 L 93.9,44.1 A 0.6,0.6 0 0 1 94,43.8 l 0.2,-0.2 h 1.1 v -0.2 a 0.6,0.6 0 0 1 0.6,0.2 0.6,0.6 0 0 1 0.1,0.5 z m -1.6,-9.6 0.2,-0.2 h 0.2 l 0.3,0.3 h 0.2 l 0.2,0.3 v 0.2 l -0.3,0.2 H 95 V 35 h -0.2 l -0.2,-0.4 z m 0.1,0.5 a 1.4,1.4 0 0 1 0.7,0.3 h 0.4 a 0.4,0.4 0 0 1 0,0.3 l -0.2,0.2 h -0.3 v 0.3 H 95 l 0.2,0.3 v 0.4 L 94.9,37 h -0.3 a 0.4,0.4 0 0 1 -0.2,-0.4 h -0.1 a 0.6,0.6 0 0 1 -0.5,-0.6 0.6,0.6 0 0 1 -0.4,-0.2 0.3,0.3 0 0 1 -0.1,-0.3 0.4,0.4 0 0 1 0.4,-0.3 0.4,0.4 0 0 1 0.4,0.4 h 0.3 v 0.2 h 0.1 a 0.7,0.7 0 0 1 -0.4,-0.5 l 0.2,-0.2 z M 92.8,34.8 A 0.5,0.5 0 0 1 93,34.4 h 0.2 a 0.7,0.7 0 0 1 0,-0.2 V 34 h 0.2 a 0.3,0.3 0 0 1 0.3,0.2 H 94 l 0.2,0.2 c 0,0.3 -0.5,0.4 -0.6,0.4 a 1.4,1.4 0 0 1 0,0.2 0.7,0.7 0 0 0 0,0.1 l -0.4,0.2 h -0.1 c 0,0.1 -0.1,0.2 -0.1,0.2 v 0.2 h -0.3 a 0.5,0.5 0 0 1 -0.2,-0.4 0.4,0.4 0 0 1 0.3,-0.4 z"
       id="path3"
       inkscape:connector-curvature="0"
       style="fill:#000000" />
  </g>
  <g
     id="SvgjsG4844"
     featurekey="symbolFeature-0"
     transform="matrix(0.90359471,0,0,0.90359471,156.98406,113.65227)"
     style="fill:#b3b3b3">
    <path
       d="m 59.393,25.715 c 0,5.777 -4.684,10.458 -10.461,10.458 -5.78,0 -10.459,-4.681 -10.459,-10.458 0,-5.781 4.679,-10.461 10.459,-10.461 5.777,-10e-4 10.461,4.68 10.461,10.461 z"
       id="path6"
       inkscape:connector-curvature="0"
       style="fill:#b3b3b3" />
    <path
       d="m 38.741,32.013 c 0,0.932 -0.756,1.688 -1.687,1.688 -0.935,0 -1.689,-0.756 -1.689,-1.688 0,-0.938 0.754,-1.69 1.689,-1.69 0.931,0 1.687,0.752 1.687,1.69 z"
       id="path8"
       inkscape:connector-curvature="0"
       style="fill:#b3b3b3" />
    <circle
       cx="31.497999"
       cy="31.025999"
       r="1.691"
       id="circle10"
       style="fill:#b3b3b3" />
    <circle
       cx="36.780998"
       cy="37.083"
       r="1.691"
       id="circle12"
       style="fill:#b3b3b3" />
    <path
       d="m 30.298,24.234 c 0,0.935 -0.754,1.692 -1.688,1.692 -0.934,0 -1.694,-0.757 -1.694,-1.692 0,-0.931 0.76,-1.691 1.694,-1.691 0.934,0 1.688,0.76 1.688,1.691 z"
       id="path14"
       inkscape:connector-curvature="0"
       style="fill:#b3b3b3" />
    <path
       d="m 31.496,18.667 c 0,0.938 -0.757,1.695 -1.688,1.695 -0.934,0 -1.693,-0.756 -1.693,-1.695 0,-0.931 0.759,-1.691 1.693,-1.691 0.93,0.001 1.688,0.76 1.688,1.691 z"
       id="path16"
       inkscape:connector-curvature="0"
       style="fill:#b3b3b3" />
    <path
       d="m 34.528,14.358 c 0,0.933 -0.762,1.687 -1.693,1.687 -0.935,0 -1.688,-0.754 -1.688,-1.687 0,-0.935 0.753,-1.694 1.688,-1.694 0.931,0 1.693,0.759 1.693,1.694 z"
       id="path18"
       inkscape:connector-curvature="0"
       style="fill:#b3b3b3" />
    <path
       d="m 37.054,9.844 c 0,0.935 -0.758,1.689 -1.689,1.689 -0.939,0 -1.696,-0.754 -1.696,-1.689 0,-0.933 0.757,-1.691 1.696,-1.691 0.931,0 1.689,0.758 1.689,1.691 z"
       id="path20"
       inkscape:connector-curvature="0"
       style="fill:#b3b3b3" />
    <path
       d="m 44.656,6.865 c 0,0.938 -0.753,1.691 -1.687,1.691 -0.932,0 -1.688,-0.753 -1.688,-1.691 0,-0.933 0.757,-1.691 1.688,-1.691 0.934,0 1.687,0.758 1.687,1.691 z"
       id="path22"
       inkscape:connector-curvature="0"
       style="fill:#b3b3b3" />
    <path
       d="m 52.795,6.865 c 0,0.938 -0.752,1.691 -1.693,1.691 -0.931,0 -1.688,-0.753 -1.688,-1.691 0,-0.933 0.757,-1.691 1.688,-1.691 0.941,0 1.693,0.758 1.693,1.691 z"
       id="path24"
       inkscape:connector-curvature="0"
       style="fill:#b3b3b3" />
    <circle
       cx="56.546001"
       cy="8.5559998"
       r="1.6900001"
       id="circle26"
       style="fill:#b3b3b3" />
    <circle
       cx="62.042"
       cy="10.391"
       r="1.6900001"
       id="circle28"
       style="fill:#b3b3b3" />
    <circle
       cx="65.424004"
       cy="14.094"
       r="1.691"
       id="circle30"
       style="fill:#b3b3b3" />
    <path
       d="m 70,19.281 c 0,0.935 -0.756,1.691 -1.688,1.691 -0.934,0 -1.695,-0.756 -1.695,-1.691 0,-0.933 0.762,-1.688 1.695,-1.688 0.932,0 1.688,0.755 1.688,1.688 z"
       id="path32"
       inkscape:connector-curvature="0"
       style="fill:#b3b3b3" />
    <path
       d="m 70.848,25.133 c 0,0.932 -0.76,1.688 -1.695,1.688 -0.934,0 -1.688,-0.756 -1.688,-1.688 0,-0.931 0.754,-1.689 1.688,-1.689 0.935,0 1.695,0.758 1.695,1.689 z"
       id="path34"
       inkscape:connector-curvature="0"
       style="fill:#b3b3b3" />
    <path
       d="m 70.848,30.323 c 0,0.931 -0.76,1.69 -1.695,1.69 -0.934,0 -1.688,-0.759 -1.688,-1.69 0,-0.938 0.754,-1.692 1.688,-1.692 0.935,-0.001 1.695,0.754 1.695,1.692 z"
       id="path36"
       inkscape:connector-curvature="0"
       style="fill:#b3b3b3" />
    <path
       d="m 68.805,34.482 c 0,0.931 -0.756,1.691 -1.689,1.691 -0.939,0 -1.693,-0.76 -1.693,-1.691 0,-0.932 0.754,-1.688 1.693,-1.688 0.933,0.001 1.689,0.757 1.689,1.688 z"
       id="path38"
       inkscape:connector-curvature="0"
       style="fill:#b3b3b3" />
    <path
       d="m 76.155289,56.184465 c 0,0.936 -0.758,1.696 -1.689,1.696 -0.934,0 -1.693,-0.76 -1.693,-1.696 0,-0.932 0.76,-1.688 1.693,-1.688 0.932,0 1.689,0.756 1.689,1.688 z"
       id="path40"
       inkscape:connector-curvature="0"
       style="fill:#b3b3b3" />
    <path
       d="m 57.289,42.228 c 0,0.937 -0.762,1.696 -1.693,1.696 -0.936,0 -1.689,-0.759 -1.689,-1.696 0,-0.931 0.754,-1.686 1.689,-1.686 0.931,0 1.693,0.754 1.693,1.686 z"
       id="path42"
       inkscape:connector-curvature="0"
       style="fill:#b3b3b3" />
    <path
       d="m 52.795,38.773 c 0,0.931 -0.752,1.69 -1.693,1.69 -0.931,0 -1.688,-0.759 -1.688,-1.69 0,-0.937 0.757,-1.691 1.688,-1.691 0.941,10e-4 1.693,0.754 1.693,1.691 z"
       id="path44"
       inkscape:connector-curvature="0"
       style="fill:#b3b3b3" />
    <path
       d="m 50.733652,41.79411 c 0,0.937 -0.757,1.696 -1.688,1.696 -0.934,0 -1.691,-0.759 -1.691,-1.696 0,-0.931 0.757,-1.686 1.691,-1.686 0.931,0 1.688,0.754 1.688,1.686 z"
       id="path46"
       inkscape:connector-curvature="0"
       style="fill:#b3b3b3" />
    <path
       d="m 46.351,38.357 c 0,0.932 -0.754,1.691 -1.694,1.691 -0.931,0 -1.687,-0.759 -1.687,-1.691 0,-0.933 0.756,-1.69 1.687,-1.69 0.939,0 1.694,0.757 1.694,1.69 z"
       id="path48"
       inkscape:connector-curvature="0"
       style="fill:#b3b3b3" />
    <path
       d="m 59.560863,174.19003 c 0,1.2587 -1.015818,2.26915 -2.265127,2.26915 -1.253334,0 -2.265127,-1.0091 -2.265127,-2.26915 0,-1.25065 1.011793,-2.26915 2.265127,-2.26915 1.249309,0 2.265127,1.0185 2.265127,2.26915 z"
       id="path50"
       inkscape:connector-curvature="0"
       style="stroke-width:1.34189987;fill:#b3b3b3" />
    <circle
       cx="40.865002"
       cy="35.391998"
       r="1.688"
       id="circle52"
       style="fill:#b3b3b3" />
    <path
       d="m -80.268648,128.96103 c 0,1.6902 -1.3626,3.0492 -3.0384,3.0492 -1.6812,0 -3.0474,-1.3572 -3.0474,-3.0492 0,-1.6794 1.3662,-3.0384 3.0474,-3.0384 1.6758,0.002 3.0384,1.359 3.0384,3.0384 z"
       id="path54"
       inkscape:connector-curvature="0"
       style="stroke-width:1.80000007;fill:#b3b3b3" />
    <path
       d="m 37.042,21.169 c 0,0.937 -0.756,1.69 -1.688,1.69 -0.935,0 -1.689,-0.754 -1.689,-1.69 0,-0.932 0.754,-1.69 1.689,-1.69 0.932,0 1.688,0.758 1.688,1.69 z"
       id="path56"
       inkscape:connector-curvature="0"
       style="fill:#b3b3b3" />
    <path
       d="m 39.598,16.045 c 0,0.931 -0.762,1.691 -1.687,1.691 -0.935,0 -1.695,-0.76 -1.695,-1.691 0,-0.931 0.76,-1.687 1.695,-1.687 0.925,0 1.687,0.756 1.687,1.687 z"
       id="path58"
       inkscape:connector-curvature="0"
       style="fill:#b3b3b3" />
    <path
       d="m 42.969,12.664 c 0,0.932 -0.755,1.694 -1.688,1.694 -0.938,0 -1.693,-0.763 -1.693,-1.694 0,-0.931 0.756,-1.688 1.693,-1.688 0.933,10e-4 1.688,0.756 1.688,1.688 z"
       id="path60"
       inkscape:connector-curvature="0"
       style="fill:#b3b3b3" />
    <circle
       cx="47.241001"
       cy="10.977"
       r="1.691"
       id="circle62"
       style="fill:#b3b3b3" />
    <path
       d="m 55.174,12.082 c 0,0.935 -0.755,1.691 -1.694,1.691 -0.933,0 -1.688,-0.756 -1.688,-1.691 0,-0.933 0.755,-1.691 1.688,-1.691 0.939,0 1.694,0.757 1.694,1.691 z"
       id="path64"
       inkscape:connector-curvature="0"
       style="fill:#b3b3b3" />
    <path
       d="m 59.932,14.358 c 0,0.933 -0.76,1.687 -1.695,1.687 -0.934,0 -1.688,-0.754 -1.688,-1.687 0,-0.935 0.754,-1.694 1.688,-1.694 0.935,0 1.695,0.759 1.695,1.694 z"
       id="path66"
       inkscape:connector-curvature="0"
       style="fill:#b3b3b3" />
    <path
       d="m 64.01,18.635 c 0,0.931 -0.754,1.691 -1.688,1.691 -0.93,0 -1.693,-0.76 -1.693,-1.691 0,-0.937 0.764,-1.691 1.693,-1.691 0.934,0 1.688,0.755 1.688,1.691 z"
       id="path68"
       inkscape:connector-curvature="0"
       style="fill:#b3b3b3" />
    <path
       d="m 65.422,23.536 c 0,0.937 -0.756,1.694 -1.689,1.694 -0.932,0 -1.691,-0.758 -1.691,-1.694 0,-0.931 0.76,-1.691 1.691,-1.691 0.933,0 1.689,0.759 1.689,1.691 z"
       id="path70"
       inkscape:connector-curvature="0"
       style="fill:#b3b3b3" />
    <path
       d="m 64.646,28.956 c 0,0.935 -0.758,1.687 -1.689,1.687 -0.934,0 -1.693,-0.752 -1.693,-1.687 0,-0.935 0.76,-1.694 1.693,-1.694 0.932,-0.001 1.689,0.759 1.689,1.694 z"
       id="path72"
       inkscape:connector-curvature="0"
       style="fill:#b3b3b3" />
    <path
       d="m 63.307,33.701 c 0,0.935 -0.754,1.691 -1.689,1.691 -0.932,0 -1.686,-0.756 -1.686,-1.691 0,-0.931 0.754,-1.688 1.686,-1.688 0.935,0 1.689,0.757 1.689,1.688 z"
       id="path74"
       inkscape:connector-curvature="0"
       style="fill:#b3b3b3" />
    <path
       d="m 59.393,37.083 c 0,0.931 -0.76,1.691 -1.695,1.691 -0.932,0 -1.686,-0.76 -1.686,-1.691 0,-0.933 0.754,-1.691 1.686,-1.691 0.935,0 1.695,0.757 1.695,1.691 z"
       id="path76"
       inkscape:connector-curvature="0"
       style="fill:#b3b3b3" />
    <path
       d="M 36.779,37.083"
       id="path78"
       inkscape:connector-curvature="0"
       style="fill:#b3b3b3" />
    <path
       d="M 37.054,32.013"
       id="path80"
       inkscape:connector-curvature="0"
       style="fill:#b3b3b3" />
    <path
       d="m 36.957,37.197 -0.355,-0.229 c 0.249,-0.388 6.171,-9.52 12.267,-11.455 l 0.128,0.403 c -5.951,1.889 -11.98,11.187 -12.04,11.281 z"
       id="path82"
       inkscape:connector-curvature="0"
       style="fill:#b3b3b3" />
    <path
       d="m 37.255,32.079 -0.401,-0.132 c 0.78,-2.381 3.12,-4.274 6.769,-5.475 2.73,-0.898 5.268,-1.103 5.293,-1.104 l 0.032,0.422 c -0.099,0.007 -9.905,0.828 -11.693,6.289 z"
       id="path88"
       inkscape:connector-curvature="0"
       style="fill:#b3b3b3" />
    <path
       d="m 31.705,31.058 -0.418,-0.064 c 0.794,-5.128 16.935,-5.473 17.622,-5.485 l 0.008,0.423 c -0.166,0.003 -16.472,0.347 -17.212,5.126 z"
       id="path90"
       inkscape:connector-curvature="0"
       style="fill:#b3b3b3" />
    <path
       d="M 48.852,25.425 C 48.703,25.364 33.883,19.363 28.758,24.384 l -0.296,-0.302 c 2.244,-2.2 6.395,-2.704 12.333,-1.5 4.389,0.89 8.18,2.436 8.217,2.452 z"
       id="path92"
       inkscape:connector-curvature="0"
       style="fill:#b3b3b3" />
    <path
       d="m 48.808,24.405 c -0.075,-0.054 -7.601,-5.39 -13.374,-3.041 l -0.159,-0.392 c 2.485,-1.011 5.66,-0.794 9.179,0.625 2.644,1.066 4.582,2.45 4.602,2.464 z"
       id="path94"
       inkscape:connector-curvature="0"
       style="fill:#b3b3b3" />
    <path
       d="M 48.412,25.745 C 48.282,25.642 35.293,15.413 29.921,18.846 L 29.693,18.49 c 5.625,-3.595 18.438,6.493 18.981,6.924 z"
       id="path96"
       inkscape:connector-curvature="0"
       style="fill:#b3b3b3" />
    <path
       d="m 48.754,24.93 c -0.06,-0.093 -5.989,-9.225 -10.819,-8.675 l -0.048,-0.42 c 5.098,-0.579 10.976,8.48 11.223,8.867 z"
       id="path98"
       inkscape:connector-curvature="0"
       style="fill:#b3b3b3" />
    <path
       d="M 49.209,25.977 C 49.175,25.84 45.699,12.297 32.872,14.567 L 32.799,14.151 C 46.014,11.82 49.585,25.736 49.62,25.877 Z"
       id="path100"
       inkscape:connector-curvature="0"
       style="fill:#b3b3b3" />
    <path
       d="M 48.332,25.929 C 48.331,25.841 48.171,17.11 44.651,13.965 43.698,13.114 42.567,12.744 41.302,12.874 L 41.26,12.453 c 1.398,-0.137 2.629,0.265 3.673,1.197 3.659,3.269 3.817,11.907 3.822,12.273 z"
       id="path102"
       inkscape:connector-curvature="0"
       style="fill:#b3b3b3" />
    <path
       d="M 48.343,25.686 C 48.289,25.522 42.847,9.269 35.387,10.055 l -0.044,-0.42 c 3.297,-0.347 6.552,2.24 9.689,7.688 2.314,4.018 3.698,8.19 3.712,8.232 z"
       id="path104"
       inkscape:connector-curvature="0"
       style="fill:#b3b3b3" />
    <path
       d="M 48.702,26.839 C 48.685,26.657 47.014,8.649 42.893,7.062 l 0.152,-0.395 c 4.363,1.681 6.009,19.381 6.077,20.134 z"
       id="path106"
       inkscape:connector-curvature="0"
       style="fill:#b3b3b3" />
    <path
       d="M 48.248,26.567 47.826,26.548 C 48.068,20.92 48.091,11.763 47.125,11.154 l 0.226,-0.357 c 1.459,0.92 1.003,13.298 0.897,15.77 z"
       id="path108"
       inkscape:connector-curvature="0"
       style="fill:#b3b3b3" />
    <path
       d="m 48.321,27.423 0.011,-1.184 c 0.006,-0.631 0.169,-15.504 2.589,-19.484 l 0.361,0.22 c -1.979,3.255 -2.415,14.493 -2.505,18.127 1.281,-3.031 5.183,-11.366 9.48,-10.954 l -0.041,0.421 c -4.793,-0.456 -9.428,11.625 -9.475,11.747 z"
       id="path110"
       inkscape:connector-curvature="0"
       style="fill:#b3b3b3" />
    <path
       d="m 48.025,25.751 -0.416,-0.072 c 0.088,-0.505 2.197,-12.391 5.793,-13.794 l 0.154,0.394 c -3.377,1.317 -5.51,13.351 -5.531,13.472 z"
       id="path112"
       inkscape:connector-curvature="0"
       style="fill:#b3b3b3" />
    <path
       d="m 48.622,25.236 -0.423,-0.013 c 0.001,-0.041 0.135,-4.118 1.207,-8.201 1.436,-5.471 3.901,-8.472 7.129,-8.678 l 0.027,0.422 c -7.374,0.471 -7.936,16.31 -7.94,16.47 z"
       id="path114"
       inkscape:connector-curvature="0"
       style="fill:#b3b3b3" />
    <path
       d="m 48.243,26.132 -0.387,-0.17 c 0.305,-0.695 7.556,-17.01 14.223,-15.78 l -0.076,0.416 C 55.647,9.424 48.316,25.965 48.243,26.132 Z"
       id="path116"
       inkscape:connector-curvature="0"
       style="fill:#b3b3b3" />
    <path
       d="M 47.172,26.354 47.91,25.539 C 48.349,25.055 58.739,13.687 66.353,14.147 l -0.027,0.422 c -6.206,-0.408 -14.714,7.76 -17.314,10.425 3.772,-1.781 16.502,-7.554 19.88,-6.022 l -0.174,0.385 c -3.726,-1.681 -20.39,6.431 -20.558,6.514 z"
       id="path118"
       inkscape:connector-curvature="0"
       style="fill:#b3b3b3" />
    <path
       d="m 47.947,26.316 -0.261,-0.333 c 0.451,-0.353 11.074,-8.627 14.696,-7.55 l -0.121,0.405 C 58.853,17.819 48.056,26.23 47.947,26.316 Z"
       id="path120"
       inkscape:connector-curvature="0"
       style="fill:#b3b3b3" />
    <path
       d="M 56.509134,173.30839 C 50.06113,142.97607 42.353992,49.094936 42.047784,45.024419 l -0.06748,-0.648272 -0.09961,-0.80186 c -0.267162,-1.610115 0.761469,-11.936443 2.781531,-17.034627 3.565766,-6.157767 2.30979,-17.2002722 10.43357,-5.685997 l 3.667893,6.431795 C 44.29674,6.7669218 42.284274,42.134709 42.347703,43.111706 42.880635,50.10481 51.161092,144.77562 57.197219,173.16555 Z"
       id="path122"
       inkscape:connector-curvature="0"
       style="stroke-width:3.65094042;fill:#b3b3b3"
       sodipodi:nodetypes="cccccccccc" />
    <path
       d="M 69.062,25.324 C 63.528,22.74 49.247,25.002 49.103,25.024 l -0.067,-0.417 c 0.591,-0.095 14.551,-2.307 20.206,0.334 z"
       id="path124"
       inkscape:connector-curvature="0"
       style="fill:#b3b3b3" />
    <path
       d="M 62.798,29.095 C 59.419,25.226 48.9,24.832 48.794,24.828 l 0.014,-0.423 c 0.44,0.015 10.81,0.405 14.309,4.411 z"
       id="path126"
       inkscape:connector-curvature="0"
       style="fill:#b3b3b3" />
    <path
       d="M 68.946,30.368 C 68.316,27.511 53.898,25.842 48.395,25.441 l 0.031,-0.422 c 0.82,0.06 20.107,1.51 20.932,5.258 z"
       id="path128"
       inkscape:connector-curvature="0"
       style="fill:#b3b3b3" />
    <path
       d="M 61.439,33.815 C 58.252,28.871 48.745,25.416 48.649,25.381 l 0.143,-0.397 c 0.396,0.142 9.738,3.537 13.003,8.603 z"
       id="path130"
       inkscape:connector-curvature="0"
       style="fill:#b3b3b3" />
    <path
       d="M 66.919,34.561 C 64.925,29.586 48.899,24.486 48.737,24.436 l 0.127,-0.403 c 0.668,0.21 16.379,5.212 18.447,10.372 z"
       id="path132"
       inkscape:connector-curvature="0"
       style="fill:#b3b3b3" />
    <path
       d="M 57.896,37.155 57.5,37.009 c 0.1,-0.272 0.011,-0.719 -0.256,-1.291 -1.55,-3.322 -8.133,-9.452 -8.726,-9.666 l 0.051,-0.141 -0.091,-0.263 c 0.44,-0.153 3.415,2.835 4.005,3.437 2.276,2.317 6.006,6.447 5.413,8.07 z"
       id="path134"
       inkscape:connector-curvature="0"
       style="fill:#b3b3b3" />
    <path
       d="M 73.832565,54.829951 C 72.898065,48.155837 49.24825,25.220431 49.012,24.994 l 0.024,-0.387 c 0.983501,0.934869 24.073016,23.017509 25.056516,30.057051 z"
       id="path136"
       inkscape:connector-curvature="0"
       style="stroke-width:1.98073578;fill:#b3b3b3"
       sodipodi:nodetypes="ccccc" />
    <path
       d="M 55.385,42.235 C 55.239,38.248 48.947,26.266 48.883,26.146 l 0.374,-0.197 c 0.261,0.496 6.401,12.189 6.55,16.271 z"
       id="path138"
       inkscape:connector-curvature="0"
       style="fill:#b3b3b3" />
    <path
       d="m 51.31,38.809 -0.417,-0.072 c 0.382,-2.214 -1.988,-10.506 -2.468,-12.151 -1.211,0.88 -6.633,5.009 -7.353,8.845 l -0.415,-0.078 c 0.839,-4.472 7.484,-9.091 7.767,-9.285 l 0.239,-0.165 0.083,0.278 c 0.123,0.41 3.003,10.081 2.564,12.628 z"
       id="path140"
       inkscape:connector-curvature="0"
       style="fill:#b3b3b3" />
    <path
       d="m 44.446,38.374 c -0.32,-4.099 4.582,-11.714 4.791,-12.036 l 0.354,0.229 c -0.05,0.078 -5.034,7.817 -4.725,11.773 z"
       id="path142"
       inkscape:connector-curvature="0"
       style="fill:#b3b3b3" />
    <path
       d="m 48.913,42.316 -0.384,-0.178 c 1.072,-2.31 -0.301,-17.153 -0.315,-17.303 l 0.421,-0.039 c 0.057,0.616 1.397,15.108 0.278,17.52 z"
       id="path144"
       inkscape:connector-curvature="0"
       style="fill:#b3b3b3" />
    <path
       style="fill:#b3b3b3;stroke-width:5.61841536"
       d="M 38.917099,25.648219 C 32.749425,15.335036 -65.974649,97.108494 -84.021892,129.52262 l -0.429664,0.0645 c 2.565574,-5.74452 10.719854,-16.18096 18.63244,-24.41459 C -53.839478,92.706812 -19.006857,59.073049 11.609477,37.681223 38.952187,18.13491 40.298188,25.230913 40.547171,25.095665 Z"
       id="path92-3"
       inkscape:connector-curvature="0"
       sodipodi:nodetypes="cccsccc" />
    <path
       style="fill:#b3b3b3;stroke-width:6.00069427"
       d="M 45.787882,16.609946 C 45.365588,15.747861 -12.333953,-76.602459 -61.348532,-68.722719 l -0.45907,-1.135849 c 18.196554,-2.391605 42.313055,6.128359 74.277101,40.958302 21.676397,23.2092335 34.638004,46.019841 34.74728,46.240536 z"
       id="path104-6"
       inkscape:connector-curvature="0"
       sodipodi:nodetypes="cccccc" />
    <circle
       style="fill:#b3b3b3;stroke-width:1.5"
       cx="157.73973"
       cy="-10.856774"
       r="2.5349998"
       id="circle28-5" />
    <path
       style="fill:#b3b3b3;stroke-width:3.97152042"
       d="m 57.567113,23.122335 -1.82102,0.559728 c 2.172924,-1.538699 53.831527,-37.659381 101.329517,-34.936216 l -0.54145,0.921006 C 111.25184,-12.932331 58.08719,22.752604 57.567113,23.122335 Z"
       id="path116-6"
       inkscape:connector-curvature="0"
       sodipodi:nodetypes="ccccc" />
    <circle
       style="fill:#b3b3b3;stroke-width:1.5"
       cx="-63.065041"
       cy="-68.923943"
       r="2.5349998"
       id="circle28-5-2" />
  </g>
  <g
     id="SvgjsG4845"
     featurekey="nameFeature-0"
     transform="matrix(0.5022452,0,0,0.5022452,63.09622,154.41625)"
     style="fill:#b3b3b3;fill-opacity:1">
    <path
       d="m 32.813,27.344 c -0.98961,2.3959 -2.3438,4.375 -4.0625,5.9375 -1.7709,1.6666 -3.8542,2.9688 -6.2501,3.9063 -2.3959,0.9375 -5.0781,1.4063 -8.0469,1.4063 H 5.7816 v -5.9375 h 8.5938 c 1.9791,0 3.776,-0.3125 5.3906,-0.9375 1.5625,-0.625 2.9166,-1.5104 4.0625,-2.6563 1.1459,-1.1459 2.0313,-2.5 2.6563,-4.0625 0.625,-1.5625 0.9375,-3.2813 0.9375,-5.1563 0,-1.8229 -0.3125,-3.5156 -0.9375,-5.0781 -0.625,-1.6146 -1.5104,-2.9427 -2.6563,-3.9844 C 22.7869,9.6877 21.4327,8.8024 19.7661,8.1252 18.0995,7.5002 16.3026,7.1877 14.3755,7.1877 H 5.7817 V 1.2502 h 8.6719 c 2.7604,0 5.4166,0.49477 7.9688,1.4844 2.3959,0.88539 4.5052,2.2135 6.3281,3.9844 1.7709,1.6146 3.125,3.5938 4.0625,5.9375 0.98961,2.3959 1.4844,4.8438 1.4844,7.3438 0,2.7084 -0.49477,5.1563 -1.4844,7.3438 z m 38.89,11.2497 h 7.0313 L 65.1403,1.3277 h -7.1094 l 7.8906,22.266 z m -28.7499,0 h 6.875 l 8.125,-19.844 -3.3594,-8.9063 z m 42.875,0 h 6.4844 V 18.6717 L 85.8281,9.5311 v 29.063 z M 111.766,1.406 V 27.109 L 93.407,1.406 h -7.0313 l 26.406,37.188 h 5.3906 V 1.406 Z m 44.047,25.938 c -0.98961,2.3959 -2.3438,4.375 -4.0625,5.9375 -1.7709,1.6666 -3.8542,2.9688 -6.2501,3.9063 -2.3959,0.9375 -5.0781,1.4063 -8.0469,1.4063 h -8.6719 v -5.9375 h 8.5938 c 1.9791,0 3.776,-0.3125 5.3906,-0.9375 1.5625,-0.625 2.9166,-1.5104 4.0625,-2.6563 1.1459,-1.1459 2.0313,-2.5 2.6563,-4.0625 0.625,-1.5625 0.9375,-3.2813 0.9375,-5.1563 0,-1.8229 -0.3125,-3.5156 -0.9375,-5.0781 -0.625,-1.6146 -1.5104,-2.9427 -2.6563,-3.9844 -1.0416,-1.0938 -2.3958,-1.9791 -4.0624,-2.6563 -1.6666,-0.625 -3.4635,-0.9375 -5.3906,-0.9375 h -8.5938 V 1.2502 h 8.6719 c 2.7604,0 5.4166,0.49477 7.9688,1.4844 2.3959,0.88539 4.5052,2.2135 6.3281,3.9844 1.7709,1.6146 3.125,3.5938 4.0625,5.9375 0.98961,2.3959 1.4844,4.8438 1.4844,7.3438 0,2.7084 -0.49477,5.1563 -1.4844,7.3438 z M 170.0938,1.406 h 27.813 v 5.9375 h -27.813 z m 0,31.2502 h 27.734 v 5.9375 h -27.734 z m 0,-15.7812 h 25.078 v 5.8594 h -25.078 z M 212.0313,1.406 h 6.4063 v 31.25 h 19.531 v 5.9375 h -25.938 V 1.4055 Z M 269.281,16.875 V 1.328 h -6.5625 v 37.344 h 6.5625 z m 35.063,15.7812 c -0.78125,-0.15625 -1.5105,-0.3907 -2.1876,-0.7032 -1.4584,-0.67711 -2.7344,-1.6146 -3.8281,-2.8125 -1.0416,-1.0938 -1.875,-2.4479 -2.5,-4.0625 -0.57289,-1.6146 -0.85938,-3.2552 -0.85938,-4.9219 v -0.15625 -0.23438 c 0,-1.7188 0.28648,-3.3854 0.85938,-5 0.67711,-1.6666 1.5105,-2.9948 2.5001,-3.9844 1.0416,-1.1979 2.2916,-2.1094 3.75,-2.7344 0.88539,-0.41664 1.6406,-0.67703 2.2656,-0.78117 V 1.4061 c -1.8229,0.26039 -3.4375,0.70313 -4.8438,1.3281 -2.2916,0.98961 -4.2448,2.3177 -5.8594,3.9844 -1.6146,1.6667 -2.8906,3.6458 -3.8281,5.9374 -0.9375,2.2916 -1.4063,4.6875 -1.4063,7.1875 v 0.15625 0.23438 c 0,2.5521 0.46875,4.948 1.4063,7.1876 0.83336,2.2396 2.0834,4.1927 3.75,5.8594 1.6666,1.7188 3.6198,3.0469 5.8594,3.9844 1.4063,0.625 3.0469,1.0677 4.9219,1.3281 v -5.9375 z M 325.594,20 l 8e-5,-0.23438 c 0,-2.5521 -0.46875,-4.948 -1.4063,-7.1876 -0.9375,-2.2916 -2.2135,-4.2708 -3.8281,-5.9374 -1.5625,-1.6666 -3.4896,-2.9688 -5.7813,-3.9063 -1.3021,-0.625 -2.8906,-1.0677 -4.7656,-1.3281 v 5.9375 l 0.9375,0.3125 c 0.46875,0.15625 0.83336,0.28648 1.0938,0.39063 1.4584,0.67711 2.7344,1.6146 3.8281,2.8125 1.0416,1.0938 1.875,2.4479 2.5,4.0625 0.57289,1.6146 0.85938,3.2552 0.85938,4.9219 V 20 20.23438 c 0,1.7188 -0.28648,3.3854 -0.85938,5 -0.67711,1.6666 -1.5105,2.9948 -2.5001,3.9844 -1.0416,1.1979 -2.2916,2.1094 -3.75,2.7344 -0.67711,0.3125 -1.3802,0.54688 -2.1094,0.70313 v 5.9375 c 1.5625,-0.20836 3.125,-0.65109 4.6875,-1.3282 2.1354,-0.88539 4.0885,-2.2135 5.8594,-3.9844 1.7188,-1.8229 2.9948,-3.802 3.8281,-5.9374 0.9375,-2.2916 1.4063,-4.6875 1.4063,-7.1875 v -0.15625 z m 6.2341,18.5937 h 6.4844 v -19.922 l -6.4844,-9.1406 v 29.063 z M 357.766,1.406 V 27.109 L 339.407,1.406 h -7.0313 l 26.406,37.188 h 5.3906 V 1.406 Z"
       id="path147"
       inkscape:connector-curvature="0"
       style="fill:#b3b3b3;fill-opacity:1" />
  </g>
</svg>
