<?xml version="1.0" encoding="UTF-8" standalone="no"?>
<!-- Created with Inkscape (http://www.inkscape.org/) -->

<svg
   xmlns:dc="http://purl.org/dc/elements/1.1/"
   xmlns:cc="http://creativecommons.org/ns#"
   xmlns:rdf="http://www.w3.org/1999/02/22-rdf-syntax-ns#"
   xmlns:svg="http://www.w3.org/2000/svg"
   xmlns="http://www.w3.org/2000/svg"
   xmlns:sodipodi="http://sodipodi.sourceforge.net/DTD/sodipodi-0.dtd"
   xmlns:inkscape="http://www.inkscape.org/namespaces/inkscape"
   width="210mm"
   height="297mm"
   viewBox="0 0 210 297"
   version="1.1"
   id="svg3920"
   inkscape:version="0.92.5 (2060ec1f9f, 2020-04-08)"
   sodipodi:docname="dandelion-text.svg">
  <defs
     id="defs3914" />
  <sodipodi:namedview
     id="base"
     pagecolor="#e6e6e6"
     bordercolor="#666666"
     borderopacity="1.0"
     inkscape:pageopacity="0"
     inkscape:pageshadow="2"
     inkscape:zoom="0.35"
     inkscape:cx="-137.14286"
     inkscape:cy="560"
     inkscape:document-units="mm"
     inkscape:current-layer="layer1"
     showgrid="false"
     inkscape:window-width="1920"
     inkscape:window-height="982"
     inkscape:window-x="0"
     inkscape:window-y="34"
     inkscape:window-maximized="1" />
  <metadata
     id="metadata3917">
    <rdf:RDF>
      <cc:Work
         rdf:about="">
        <dc:format>image/svg+xml</dc:format>
        <dc:type
           rdf:resource="http://purl.org/dc/dcmitype/StillImage" />
        <dc:title></dc:title>
      </cc:Work>
    </rdf:RDF>
  </metadata>
  <g
     inkscape:label="Capa 1"
     inkscape:groupmode="layer"
     id="layer1">
    <g
       id="SvgjsG4241"
       featurekey="nameFeature-0"
       transform="matrix(0.52863153,0,0,0.52863153,8.8046397,126.18604)"
       style="fill:#ffffff">
      <path
         d="m 32.813,27.344 c -0.98961,2.3959 -2.3438,4.375 -4.0625,5.9375 -1.7709,1.6666 -3.8542,2.9688 -6.2501,3.9063 -2.3959,0.9375 -5.0781,1.4063 -8.0469,1.4063 H 5.7816 v -5.9375 h 8.5938 c 1.9791,0 3.776,-0.3125 5.3906,-0.9375 1.5625,-0.625 2.9166,-1.5104 4.0625,-2.6563 1.1459,-1.1459 2.0313,-2.5 2.6563,-4.0625 0.625,-1.5625 0.9375,-3.2813 0.9375,-5.1563 0,-1.8229 -0.3125,-3.5156 -0.9375,-5.0781 -0.625,-1.6146 -1.5104,-2.9427 -2.6563,-3.9844 C 22.7869,9.6877 21.4327,8.8024 19.7661,8.1252 18.0995,7.5002 16.3026,7.1877 14.3755,7.1877 H 5.7817 V 1.2502 h 8.6719 c 2.7604,0 5.4166,0.49477 7.9688,1.4844 2.3959,0.88539 4.5052,2.2135 6.3281,3.9844 1.7709,1.6146 3.125,3.5938 4.0625,5.9375 0.98961,2.3959 1.4844,4.8438 1.4844,7.3438 0,2.7084 -0.49477,5.1563 -1.4844,7.3438 z m 38.89,11.2497 h 7.0313 L 65.1403,1.3277 h -7.1094 l 7.8906,22.266 z m -28.7499,0 h 6.875 l 8.125,-19.844 -3.3594,-8.9063 z m 42.875,0 h 6.4844 V 18.6717 L 85.8281,9.5311 v 29.063 z M 111.766,1.406 V 27.109 L 93.407,1.406 h -7.0313 l 26.406,37.188 h 5.3906 V 1.406 Z m 44.047,25.938 c -0.98961,2.3959 -2.3438,4.375 -4.0625,5.9375 -1.7709,1.6666 -3.8542,2.9688 -6.2501,3.9063 -2.3959,0.9375 -5.0781,1.4063 -8.0469,1.4063 h -8.6719 v -5.9375 h 8.5938 c 1.9791,0 3.776,-0.3125 5.3906,-0.9375 1.5625,-0.625 2.9166,-1.5104 4.0625,-2.6563 1.1459,-1.1459 2.0313,-2.5 2.6563,-4.0625 0.625,-1.5625 0.9375,-3.2813 0.9375,-5.1563 0,-1.8229 -0.3125,-3.5156 -0.9375,-5.0781 -0.625,-1.6146 -1.5104,-2.9427 -2.6563,-3.9844 -1.0416,-1.0938 -2.3958,-1.9791 -4.0624,-2.6563 -1.6666,-0.625 -3.4635,-0.9375 -5.3906,-0.9375 h -8.5938 V 1.2502 h 8.6719 c 2.7604,0 5.4166,0.49477 7.9688,1.4844 2.3959,0.88539 4.5052,2.2135 6.3281,3.9844 1.7709,1.6146 3.125,3.5938 4.0625,5.9375 0.98961,2.3959 1.4844,4.8438 1.4844,7.3438 0,2.7084 -0.49477,5.1563 -1.4844,7.3438 z M 170.0938,1.406 h 27.813 v 5.9375 h -27.813 z m 0,31.2502 h 27.734 v 5.9375 h -27.734 z m 0,-15.7812 h 25.078 v 5.8594 h -25.078 z M 212.0313,1.406 h 6.4063 v 31.25 h 19.531 v 5.9375 h -25.938 V 1.4055 Z M 269.281,16.875 V 1.328 h -6.5625 v 37.344 h 6.5625 z m 35.063,15.7812 c -0.78125,-0.15625 -1.5105,-0.3907 -2.1876,-0.7032 -1.4584,-0.67711 -2.7344,-1.6146 -3.8281,-2.8125 -1.0416,-1.0938 -1.875,-2.4479 -2.5,-4.0625 -0.57289,-1.6146 -0.85938,-3.2552 -0.85938,-4.9219 v -0.15625 -0.23438 c 0,-1.7188 0.28648,-3.3854 0.85938,-5 0.67711,-1.6666 1.5105,-2.9948 2.5001,-3.9844 1.0416,-1.1979 2.2916,-2.1094 3.75,-2.7344 0.88539,-0.41664 1.6406,-0.67703 2.2656,-0.78117 V 1.4061 c -1.8229,0.26039 -3.4375,0.70313 -4.8438,1.3281 -2.2916,0.98961 -4.2448,2.3177 -5.8594,3.9844 -1.6146,1.6667 -2.8906,3.6458 -3.8281,5.9374 -0.9375,2.2916 -1.4063,4.6875 -1.4063,7.1875 v 0.15625 0.23438 c 0,2.5521 0.46875,4.948 1.4063,7.1876 0.83336,2.2396 2.0834,4.1927 3.75,5.8594 1.6666,1.7188 3.6198,3.0469 5.8594,3.9844 1.4063,0.625 3.0469,1.0677 4.9219,1.3281 v -5.9375 z M 325.594,20 l 8e-5,-0.23438 c 0,-2.5521 -0.46875,-4.948 -1.4063,-7.1876 -0.9375,-2.2916 -2.2135,-4.2708 -3.8281,-5.9374 -1.5625,-1.6666 -3.4896,-2.9688 -5.7813,-3.9063 -1.3021,-0.625 -2.8906,-1.0677 -4.7656,-1.3281 v 5.9375 l 0.9375,0.3125 c 0.46875,0.15625 0.83336,0.28648 1.0938,0.39063 1.4584,0.67711 2.7344,1.6146 3.8281,2.8125 1.0416,1.0938 1.875,2.4479 2.5,4.0625 0.57289,1.6146 0.85938,3.2552 0.85938,4.9219 V 20 20.23438 c 0,1.7188 -0.28648,3.3854 -0.85938,5 -0.67711,1.6666 -1.5105,2.9948 -2.5001,3.9844 -1.0416,1.1979 -2.2916,2.1094 -3.75,2.7344 -0.67711,0.3125 -1.3802,0.54688 -2.1094,0.70313 v 5.9375 c 1.5625,-0.20836 3.125,-0.65109 4.6875,-1.3282 2.1354,-0.88539 4.0885,-2.2135 5.8594,-3.9844 1.7188,-1.8229 2.9948,-3.802 3.8281,-5.9374 0.9375,-2.2916 1.4063,-4.6875 1.4063,-7.1875 v -0.15625 z m 6.2341,18.5937 h 6.4844 v -19.922 l -6.4844,-9.1406 v 29.063 z M 357.766,1.406 V 27.109 L 339.407,1.406 h -7.0313 l 26.406,37.188 h 5.3906 V 1.406 Z"
         id="path147"
         inkscape:connector-curvature="0"
         style="fill:#ffffff" />
    </g>
  </g>
</svg>
