<?xml version="1.0" encoding="UTF-8" standalone="no"?>
<svg
   xmlns:dc="http://purl.org/dc/elements/1.1/"
   xmlns:cc="http://creativecommons.org/ns#"
   xmlns:rdf="http://www.w3.org/1999/02/22-rdf-syntax-ns#"
   xmlns:svg="http://www.w3.org/2000/svg"
   xmlns="http://www.w3.org/2000/svg"
   xmlns:sodipodi="http://sodipodi.sourceforge.net/DTD/sodipodi-0.dtd"
   xmlns:inkscape="http://www.inkscape.org/namespaces/inkscape"
   width="312.5"
   height="354.8830514588185"
   viewBox="0 0 312.5 354.8830514588185"
   class="css-1j8o68f"
   version="1.1"
   id="svg150"
   sodipodi:docname="dandelion-logo-full.svg"
   inkscape:version="0.92.5 (2060ec1f9f, 2020-04-08)">
  <metadata
     id="metadata154">
    <rdf:RDF>
      <cc:Work
         rdf:about="">
        <dc:format>image/svg+xml</dc:format>
        <dc:type
           rdf:resource="http://purl.org/dc/dcmitype/StillImage" />
        <dc:title></dc:title>
      </cc:Work>
    </rdf:RDF>
  </metadata>
  <sodipodi:namedview
     pagecolor="#ffffff"
     bordercolor="#666666"
     borderopacity="1"
     objecttolerance="10"
     gridtolerance="10"
     guidetolerance="10"
     inkscape:pageopacity="0"
     inkscape:pageshadow="2"
     inkscape:window-width="1920"
     inkscape:window-height="983"
     id="namedview152"
     showgrid="false"
     inkscape:pagecheckerboard="true"
     inkscape:zoom="1.3300156"
     inkscape:cx="211.79983"
     inkscape:cy="226.3864"
     inkscape:window-x="0"
     inkscape:window-y="27"
     inkscape:window-maximized="1"
     inkscape:current-layer="svg150"
     showguides="false" />
  <defs
     id="SvgjsDefs4842" />
  <g
     id="SvgjsG4843"
     featurekey="rootContainer"
     transform="matrix(3.048780714735131,0,0,3.048780714735131,-6.133100338119904e-7,41.3902438479669)"
     fill="#ffffff">
    <path
       d="M23.3 83.5zm55.3-37.8h.3-.3zm23.5 7.9a15.2 15.2 0 0 0-.6-1.9V51c.2-.3.4-.5.4-1.6s0-1.6-.1-2.4-.1-1.7-.2-2.6l-.7-.8a49.6 49.6 0 0 0-7.7-19.9h-.4a2.6 2.6 0 0 0-.3-.7h.2l-1-1.4a40.3 40.3 0 0 0-4.3-5.9 28.9 28.9 0 0 0-6.5-5.5 58.5 58.5 0 0 0-6.7-3.6L72 5.5 71 5A52.6 52.6 0 0 0 58.3.6L57 .3 55.6.2H48a51.1 51.1 0 0 0-17.6 3.6l-.6.3A76.9 76.9 0 0 0 22 8.4a37.7 37.7 0 0 0-5.6 4.4 54.5 54.5 0 0 0-4.9 5.5 68.2 68.2 0 0 0-4.1 6 38.7 38.7 0 0 0-3.1 6.5l-.6 1.3a40.8 40.8 0 0 0-2.9 9.7 60 60 0 0 0-.7 6.3c0 .7 0 1.3-.1 1.9v5.9c.1 1.1.2 2.1.3 3.2s.3 2.1.6 3.2a64.4 64.4 0 0 0 2.4 7.4 46.2 46.2 0 0 0 3 6.3 39.5 39.5 0 0 0 4 6.1l1.4 1.6A52.7 52.7 0 0 0 25.4 95l1.5.9 1.4.8a26.9 26.9 0 0 0 7.7 3.7 50.5 50.5 0 0 0 6.6 1.7l3.4.5 3.4.2a40.9 40.9 0 0 0 10.1-.9l2.8-.7 2.9-.7a36.5 36.5 0 0 0 4.9-1.6l1.4-.6 1.4-.7 2.7-1.4a54.9 54.9 0 0 0 9.7-6.5c2.2-1.9 4.3-4.2 6.3-6.3l.9-1.1c1.2-2.1 2.7-4 4-6.1l.6-.8c1.6-3.2 2.8-6.6 4.2-9.8l.2-.7a53.4 53.4 0 0 0 .9-6.1c.1-1 .1-2 .1-2.9a17.6 17.6 0 0 0-.4-2.3zm-14-29.3a.4.4 0 0 1 .3.4.4.4 0 0 1-.4.4l-.3-.2v-.2a.4.4 0 0 1 .2-.3zm0 51H88l-.3.2a.4.4 0 0 1-.3-.3.6.6 0 0 1 .2-.5h.1l.2-.2h.3c.1.5 0 .7 0 .8zM87.9 44a.7.7 0 0 1-.6.3l-.2-.2a.4.4 0 0 1 .4-.5h.2zm-.3 25.7h.2a.4.4 0 0 1 .4.3.5.5 0 0 1-.1.5h-.2a.4.4 0 0 1-.4-.3.5.5 0 0 1 .1-.5zm1.1-4.2c0-.3.3-.3.3-.3h.3c.3 0 .3.3.3.4l-.2.3h-.5zm.9 13.6h-.4a.5.5 0 0 1-.1-.4l.4-.2h.1c.3 0 .3.3.3.4zm.1-24.4h-.2l-.2-.2a.5.5 0 0 1 .1-.4.6.6 0 0 1 .6-.2l.2.4a.5.5 0 0 1-.5.3zm2.2-30.3h-.3l-.4-.2a.4.4 0 0 1 0-.4h.5l.2.2a.3.3 0 0 1 0 .3zm.2 1.4a.5.5 0 0 1-.1.3l-.2.3a.4.4 0 0 1-.4-.5.5.5 0 0 1 .6-.4zm-.6 10.4v.4h-.1a.8.8 0 0 1-.6.3h-.6a.4.4 0 0 1-.1-.5.7.7 0 0 1 .5-.5h.1a.7.7 0 0 1 .8.2zm-.9 22.4l.5.2a.4.4 0 0 1 0 .4h-.9v-.3a.4.4 0 0 1 .4-.4zm.5-.7a.5.5 0 0 1 .1-.3l.3-.2a.7.7 0 0 1 .4.8h-.6zm.1.8l.3-.2c.3 0 .4.3.4.4a.4.4 0 0 1-.4.4h-.2a.6.6 0 0 1-.1-.7zm.6 11.7h.2a.7.7 0 0 1 .3.6l-.3.2a.6.6 0 0 1-.5-.4.4.4 0 0 1 .3-.5zm.1-28.4h-.3v-.3a.6.6 0 0 1 .8-.4l.2.4h-.1c-.2.1-.4.3-.6.3zm.4-11H92l-.2-.2a.5.5 0 0 1 .1-.5l.3-.3c.5 0 .4.5.4.7zM82.1 53.9a.5.5 0 0 1-.4-.2h-.1l-.2-.3a.4.4 0 0 1 .7 0 .6.6 0 0 1 .1.5zm3.5-34.1c0 .1-.2.3-.5.3h-.5l-.3-.3a.8.8 0 0 1 .9-.6h.1v.2zm-.7 4.3a.5.5 0 0 1 .1.4h-.3a.4.4 0 0 1-.3-.2h.1l-.2-.3c0-.2.4-.2.6.1zm-.6 19a.5.5 0 0 1-.1.4l-.4.2h-.1l-.2-.4a.6.6 0 0 1 .6-.4zM83.5 81v.2l-.3.2H83l-.2-.3v-.2l.3-.2h.2zm-.3-12.6h-.3l-.2-.2V68l.2-.2h.5a.4.4 0 0 1 .1.3zm.9-15.3l-.2-.3a.4.4 0 0 1 .4-.3l.6.3h.1v.3a.4.4 0 0 1-.4.3l-.5-.2zm1 29h.4v.4a.4.4 0 0 1-.4.4H85l-.2-.2a.5.5 0 0 1 .2-.6zm.5-3.9a.5.5 0 0 1 .1-.5l.4-.3.2.2.3.2a.5.5 0 0 1-.1.4l-.4.2H86zm.8-25.3l-.4.2h-.1l-.2-.2a.5.5 0 0 1 .4-.5l.2-.2h.3l.2.2v.3l-.2.2h-.2zM86 31.6l.2-.3h.4a.5.5 0 0 1 .1.4l-.4.2h-.1c-.3 0-.3-.3-.3-.4zm-3.8-18l-.2.2h-.3l-.2-.2a.4.4 0 0 1 .1-.4h.1zM80 44.3s-.3-.3-.2-.5l.2-.2.3.2c.3 0 .4.2.4.3s-.1.3-.4.3H80zm.1 19.3v.2c-.5.1-.2-.6 0-.3zm-15 30.3H65a.4.4 0 0 1 .6.1.6.6 0 0 1-.1.6h-.2c-.3 0-.3-.3-.3-.4h.1zm-1.8-4.5c.1-.1.1-.2 0-.2h.1V89c.2 0 .4.2.4.5a.4.4 0 0 1-.1.3h-.2v-.2zm-2.5-70.5l-.2-.2v-.2l.2-.2a.5.5 0 0 1 .5.1.4.4 0 0 1 .1.3l-.2.2zm-.1.8v-.3c.3-.1.3.5 0 .4zm-.9 52.5a.2.2 0 0 1 0-.2h.1a.3.3 0 0 0 0-.2v-.3h.3a.5.5 0 0 1 .1.4.5.5 0 0 1-.5.5v-.2zm-.2-2.2l-.4-.2a.5.5 0 0 1-.1-.4l-.2-.3v-.2l.3-.2h.2l.2.3h.2a.5.5 0 0 1 .1.4l-.2.2zm0 4.3h-.4l-.2-.2a.4.4 0 0 1 .1-.4l.3-.2.3.3a.5.5 0 0 1-.2.5zm-2.3 13.2c0-.2.1-.4.6-.4h.1l.2.2a.5.5 0 0 1-.2.6l-.2.2h-.1a.4.4 0 0 1-.4-.3h.1zm-2.2-42.8c0 .3-.2.3-.3.3h-.3l-.3-.2a.9.9 0 0 1 .1-.5v-.2h-.1l-.2-.2a2.5 2.5 0 0 1 .5-1.3h.4a1.8 1.8 0 0 1-.1 1 1.3 1.3 0 0 0 .3 1.1zm-.8 38.5l-.2.3a.6.6 0 0 1-.6-.6v-.2h.2l.2-.2h.2a.6.6 0 0 1 .1.5.8.8 0 0 0 .1.2zm0 5.5l-.2.3-.3.2c-.3-.1-.3-.4-.3-.5a.7.7 0 0 0 0-.1l.2-.3h.2l.2.3h.1zm-2-22.3c.1-.1.1-.2 0-.2h.1V66c.2 0 .4.2.4.5a.4.4 0 0 1-.1.3h-.2v-.2zm.3-1h-.3l-.2-.2v-.3l.2-.2h.4a.5.5 0 0 1 .1.4zM52.5 25h-.1l-.2-.2a.5.5 0 0 1 .1-.3l.3-.3.3.2.2.3a.5.5 0 0 1-.6.4zm.3-1.2l-.3.2a.7.7 0 0 1-.4-.8l.2-.2h.3l.2.2zM52 97.3l.2-.2h.1a.5.5 0 0 1 .6.1h.1a.5.5 0 0 1-.1.4l-.4.2-.4-.2a.5.5 0 0 1 0-.2zm-9.2-53.6h-.3a.7.7 0 0 1 .2.4l.3.2a.5.5 0 0 1-.1.4h-.4l-.2-.4-.3-.2-.2-.3a.4.4 0 0 1 .4-.2h.1a.4.4 0 0 1 0-.3h.1l-.2-.3c-.2 0-.6-.1-.5-.6l.2-.2a.6.6 0 0 1 .6.2.5.5 0 0 1 .1.4h.1a.4.4 0 0 1 .4.3c0 .2-.2.4-.3.6zm.1 8.7h-.4a.6.6 0 0 1-.4-.6l.2-.2h.4l.2.2a.6.6 0 0 1 0 .6zm-2.4 34.2c0-.3.3-.3.4-.3h.1l.3.2v.3l-.2.2H41a.4.4 0 0 1-.3-.2h.1zm-2.7-23l-.3.3c-.1 0-.5-.1-.4-.7l.2-.2h.4a.5.5 0 0 1 .1.4.8.8 0 0 0 .1.2zm-2.5 30.1a.5.5 0 0 1 .1-.4.4.4 0 0 1 .4-.1l.2.3h-.1a.4.4 0 0 1 .3.5l-.2.2a.4.4 0 0 1-.4-.2l-.3-.3zM16.7 19.6h-.4l-.2-.2a.3.3 0 0 1 .3-.3h.4l.2.2a.3.3 0 0 1-.3.3zm.7.3h.1l.2.3a.5.5 0 0 1-.5.3h-.3a.5.5 0 0 1-.1-.4l.2-.2zm-.7 14.4a.4.4 0 0 1 0 .4h-.4l-.2-.3H16a.3.3 0 0 1 .1-.3.5.5 0 0 1 .6.2zM16 79.5l.2-.2h.3l.2.2v.3l-.2.2h-.3l-.2-.2zm.7-.7c-.3-.1-.3-.4-.3-.5a.7.7 0 0 0 0-.1l.3-.3a.4.4 0 0 1 .4.3.5.5 0 0 1-.1.5zm0-4.8h-.2v-.2c0-.2.1-.4.3-.4l.3-.2a.4.4 0 0 1 .3.4.6.6 0 0 1-.7.4zm.3-37.8h-.3V36c0-.1.1-.3.4-.3h.3l.2.4a.5.5 0 0 1-.6.1zm.4-10H17l-.2-.4a.7.7 0 0 1-.2-.6h.2l.2-.2h.3l.2.3c0 .2.1.3.4.4l.2.3a.4.4 0 0 1-.4.4h-.4zM33.3 40c.1-.4.5-.4.7-.1a.4.4 0 0 1 0 .4h-.5l-.2-.4zm0-15.6l-.2-.3v-.2l.3-.2h.2l.2.3v.2l-.3.2zm1.2 23.8h.2a.6.6 0 0 1 .1.5.2.2 0 0 0 0 .2l-.2.3a.9.9 0 0 1-.7-.7v-.2a.5.5 0 0 1-.2-.4l.2-.3h.4l.2.3zm.2 10.2l-.4.2a.5.5 0 0 1-.4-.2.5.5 0 0 1 0-.5h.4c.3 0 .4.2.4.3a.4.4 0 0 1 0 .1zm-.3 11.2a.5.5 0 0 1 .1.4h-.1l-.4.2a.5.5 0 0 1-.4-.3h-.1l-.2-.4a.7.7 0 0 1 1.1 0zm.1-7.4h-.2l-.2-.2a.4.4 0 0 1 .1-.3.5.5 0 0 1 .4-.2h.4l.3.2v.3a.8.8 0 0 1-.8.1zm.5-21.6h-.2v-.2a.4.4 0 0 0 0-.2.6.6 0 0 1-.1-.3h.2a.4.4 0 0 1 0-.2l.2-.2H35a.4.4 0 0 1 .4.2v.2a.3.3 0 0 1 .4.2.5.5 0 0 1 0 .5H35zm-.2-25.1l.3-.2a.7.7 0 0 1 .3.6l-.2.2h-.4a.5.5 0 0 1-.1-.4zm.8 3.8l.2.2a.3.3 0 0 1-.1.3h-.3l-.4-.2a.4.4 0 0 1 0-.4h.5zM35.2 56l.2-.2h.4l.2.4a.6.6 0 0 1-.6.4h-.1l-.2-.2zm-3.8-41.3a.3.3 0 0 1-.2-.3.6.6 0 0 1 .5-.5.4.4 0 0 1 .3.2.4.4 0 0 1-.1.3l-.3.2zm.4 27.8l.3-.2h.2l.2.3v.2l-.3.2H32l-.2-.3zm-9 41.2c0-.2.1-.3.1-.4a.6.6 0 0 1 0-.4l.3-.2c.3.1.6.3.6.6a.5.5 0 0 1-.1.5h-.4c0 .3-.2.4-.4.4v-.3zm-2.2-26.1l.3.2.2.3a.5.5 0 0 1-.5.4l-.4-.2a.5.5 0 0 1-.1-.4l.3-.2h-.1zm.7-34a.4.4 0 0 1-.4.3l-.4-.2a.4.4 0 0 1 0-.4h.5l.2.2a.4.4 0 0 1 0 .1zm-.6 2.9h.1a.5.5 0 0 1 .4.5l-.4.2h-.1c-.1 0-.3-.1-.3-.3l.3-.3zm.7 23.8v.3l-.2.3-.3.2a.3.3 0 0 1-.3-.4.5.5 0 0 1 .8-.4zm-.9 30.1h.6l.3.2a.4.4 0 0 1-.1.3l-.4.2h-.3a.4.4 0 0 1-.2-.7zm.8-1.7v-.2l.3-.2h.1l.3.2v.2a.4.4 0 0 1-.4.4h-.2zm.4-20.9h-.1l-.2-.2a.7.7 0 0 1 .1-.5.5.5 0 0 1 .5-.1l.2.3c-.1.2-.2.6-.6.6zM22 30h-.5v-.4h.2l.2-.3h.4a.4.4 0 0 1 .5.2.6.6 0 0 1 .1.6l-.2.2H22zm.7-13.1a.6.6 0 0 1 .7-.4v.3a.5.5 0 0 1-.3.4H23l-.3.2a.4.4 0 0 1 0-.6zm1 6v.1l-.3.2h-.2l-.2-.3v-.2l.3-.2h.2zm.1 64.2l.3-.2a.4.4 0 0 1 .3.4.5.5 0 0 1-.4.4l-.3-.2v-.2a.4.4 0 0 1 .1-.2zm.4-51.1l-.2.3h-.5a.4.4 0 0 1-.1-.5.2.2 0 0 0 0-.1l.2-.3h.1v-.3a.7.7 0 0 1 .6-.3l.3.2v.3l-.2.2h-.3a1 1 0 0 1 .1.5zm1-9.6h.2v-.2h.3v.2a.3.3 0 0 1-.3.4v-.2zm0 3.9c0 .1-.1.2-.1.2l-.3.3-.3-.2a.5.5 0 0 1 0-.4.5.5 0 0 0 0-.2l.2-.3a.4.4 0 0 1 .4.2.4.4 0 0 1 .1.4zm-.1-9.6h-.3l-.2-.2a.3.3 0 0 1 0-.1h-.1v-.3a.3.3 0 0 1 .3-.2l.6.3a.5.5 0 0 1 .1.4zm.1 20.1v-.3h-.1l-.2-.2a1.3 1.3 0 0 1 0-.6h-.1l-.2-.3-.3-.3v-.2a.3.3 0 0 0 .1-.3l.3-.3a.9.9 0 0 1 .5.6h.4l.2.3a.4.4 0 0 1-.4.3h.3c.1 0 .3 0 .4.2h.1v.4a.2.2 0 0 0 0 .2h.1l.2.4a.4.4 0 0 1-.3.2l-.4-.2h.2l-.2.3h-.2a.5.5 0 0 1-.4-.2zm0 6.9a.5.5 0 0 1-.5.4h-.1l-.2-.2a.4.4 0 0 1 0-.4.4.4 0 0 1 .3-.1h.3zm3.4-37h-.8l-.3-.2v-.2c0-.3.3-.5.6-.5l.5.2a.5.5 0 0 1 .1.7zm0 13.5h.2a.4.4 0 0 1 .4.3.5.5 0 0 1-.1.5H29a.4.4 0 0 1-.4-.3.5.5 0 0 1 .1-.5zm-.8 50h-.3l-.2-.2v-.2l.4-.2h.1c.1 0 .3.1.3.3l-.3.3zm-.7-14.6l-.2-.2v-.2l.2-.2a.5.5 0 0 1 .5.1.4.4 0 0 1 .1.3l-.2.2zm.5-35.7H27v-.4l.2-.2.2-.3a.8.8 0 0 1 .6.2v.3a.5.5 0 0 1-.3.4zm0-8.3a.4.4 0 0 1-.2.3l-.2.2c-.3 0-.3-.3-.3-.4l.4-.2h.2zm-.8 16.9l.3-.2h.2l.2.3v.2l-.3.2H27l-.2-.3zm-.1 2l.2.3c0 .2-.1.5-.5.5h-.1l-.2-.2v-.4l.2-.2zm.2 41.5a.4.4 0 0 1 .4-.3.4.4 0 0 1 .4.2.3.3 0 0 1 0 .3l-.3.2-.3-.2a.4.4 0 0 1-.2-.2zm1.1 5.8a.4.4 0 0 1 0 .4h-.3l-.3-.2-.2-.3c.2-.2.6-.1.8.1zm-.1-2.6V79l.2-.2a.5.5 0 0 1 .5.1.4.4 0 0 1 .1.3l-.2.2h-.3zm.8-6.6a.5.5 0 0 1 .1-.5h.2c.3.1.3.4.3.5l-.3.3a.4.4 0 0 1-.3-.3zm.4-21.5l.2-.2h.4l.2.2a1.4 1.4 0 0 0 0 .3.6.6 0 0 1-.2.6h-.4a.9.9 0 0 1-.2-.9zm1.3-3.2c-.1 0-.1 0-.1-.4h.1V47c.3 0 .5.3.5.7a.7.7 0 0 1-.1.3l-.4.2v-.3zm-.2-26.2c-.1-.2 0-.4.1-.6h.2l.3.2a.6.6 0 0 1-.1.6l-.2.2zm0 28.4l.2.2a.3.3 0 0 1-.1.3H30l-.4-.2a.4.4 0 0 1 0-.4h.5zm0 5l.2.2a.5.5 0 0 1-.1.4.6.6 0 0 1-.5.2h-.2l-.2-.3a.7.7 0 0 1 .8-.4zm-.6 12.7l.2-.2h.3l.2.2v.3l-.2.2h-.3l-.2-.2zm.9 1.3h.2l.3.2v.4l-.2.2-.5-.2a.7.7 0 0 1-.2-.6zm0 1.5l.3-.2h.2l.2.3v.2l-.3.2h-.2l-.2-.3zm.4-40.6h-.4l-.2-.3c.1-.2.2-.3.3-.3l.3.2.2.3a.3.3 0 0 1-.2.2zm-11.7-1.1h.1l.3.2a.6.6 0 0 1-.1.5.8.8 0 0 1-.6.2l-.2-.2c-.2-.6.3-.7.5-.7zm-.3-8c0-.3.3-.3.4-.3h.1l.3.2v.3l-.3.2-.3-.2zm-.2 29.9h.5a.4.4 0 0 1 .3.2h-.1l.2.3a.4.4 0 0 1-.4.3l-.4-.2a.4.4 0 0 1-.1-.6zm.6 25.2h.2a.4.4 0 0 1 .4.3h-.1l.2.3a.4.4 0 0 1-.4.2.5.5 0 0 1-.5-.4.4.4 0 0 1 .2-.5zm-.2 9.6h.2a.3.3 0 0 1 .3.3.4.4 0 0 1 .1.4h-.3l-.5-.5a.4.4 0 0 1 .2-.3zm.8 1.1a.6.6 0 0 1 .5.3zm15.3-11h.1v-.3a.5.5 0 1 1 0 .9V76h-.1zm1-14.8v-.4a.6.6 0 0 1 .6-.2h.1l.4.2a.6.6 0 0 1-.7.6h-.2zm1.6-15.4h-.1l-.2-.2a.5.5 0 0 1 .1-.5h.1l.3-.2.3.2a.5.5 0 0 1 0 .4l-.2.2zm.2-11.2h-.2a.7.7 0 0 1-.1-.4v-.2a.5.5 0 0 1 .6-.1h.1l.3.3a.8.8 0 0 1-.7.4zm.6 2.4a.3.3 0 0 1-.1.3h-.3a.5.5 0 0 1-.4-.4.3.3 0 0 1 .1-.3h.2a.6.6 0 0 1 .5.5zm-.3 18.8h.1l.3-.2a.5.5 0 0 1 .2.5.6.6 0 0 1-.5.5h-.2l-.2-.2a.5.5 0 0 1 .3-.5zm1.6 4.7l-.3.2-.3-.2a.4.4 0 0 1-.1-.3.4.4 0 0 1 .4-.3.4.4 0 0 1 .4.2.3.3 0 0 1-.1.5zm.2 2.1v.2l-.3.2h-.2l-.2-.3v-.2l.3-.2h.2zm-.7-48.5l-.3.2-.3-.2a.4.4 0 0 1 .3-.6.4.4 0 0 1 .4.2.3.3 0 0 1 0 .5zm-.9 55.9v-.4l.3-.2c.4.1.7.4.7.9v.2h-.9v-.7zm.9 10.9h.3a.5.5 0 0 1 .3.7l-.3.2a.6.6 0 0 1-.3-.5.5.5 0 0 1 0-.4zm.4-17.2a.4.4 0 0 1 .1-.4l.3-.2.3.3a.5.5 0 0 1-.1.4H40zm1.7-16.7v.3H41a.4.4 0 0 1-.1-.3h.2l-.3-.3c0-.3.3-.3.4-.3h.1l.3.2zm.1 24.6v.2l-.3.2h-.2l-.2-.3v-.2l.3-.2h.2zm-.9-57.2v-1h.1V13h.3a.6.6 0 0 1 .2.4.6.6 0 0 1-.5.8zm.3 74.8c.1-.2.2-.2.3-.2l.3.2.3.2a.3.3 0 0 1-.1.3h-.6l-.3-.3a.3.3 0 0 1 .1-.2zm.4-43.7h-.1c-.1 0-.3-.1-.3-.3l.3-.3h.1a.5.5 0 0 1 .4.5zm.6-16.4v-.2l.3-.2a.5.5 0 0 1 .4.5l-.2.2h-.4zm2.1-7.3h.4a.5.5 0 0 1 .1.4l-.2.2H44a.5.5 0 0 1-.1-.4zm-.2-2.3h-.2l-.2-.3v-.2l.3-.2h.2l.2.3v.2zm-.8 38.6h.1l.5-.2h.1l.2.2v.3l-.3.2h-.2a.4.4 0 0 1-.4-.5zm.7-11.6a.5.5 0 0 1-.5-.5v-.2a.8.8 0 0 1 1 0v.2a.6.6 0 0 1-.5.6zm.4-2.3h-.1a.5.5 0 0 1-.3-.5l.2-.2h.1c.4 0 .5.4.5.5zM44 32.2V32a1 1 0 0 1 .2-.8h.7l.2.2v.2a.6.6 0 0 1 .1.8h-.4zm1.8 57a.6.6 0 0 1-.1.5h-.5a.5.5 0 0 1-.3-.6l.2-.2h.4zm-.1-5.2l.3-.3.3.2a.4.4 0 0 1 0 .3l-.3.2c-.3-.1-.3-.4-.3-.5a1 1 0 0 0 0 .1zm.7-8.1v-.4h.1a.4.4 0 0 1 .4.3.9.9 0 0 1 .1.3c0 .4-.2.4-.3.4h-.4a.4.4 0 0 1 0-.3l.1-.3zm.3-2.4h.1a1 1 0 0 1 .9 0v.7l-.4.2a1 1 0 0 1-.6-.3h-.1v-.3zm3.6 14.9h.3a.7.7 0 0 1 .4.5.5.5 0 0 1-.1.5h-.4c-.2-.2-.5-.6-.1-.9zm-.2-4.8l.3-.2a.5.5 0 0 1 .3.5.4.4 0 0 1-.4.4h-.2a.7.7 0 0 1 .1-.6zm.5-1.1h-.4a.5.5 0 0 1-.2-.4.6.6 0 0 1 .3-.5h.4a.4.4 0 0 1 .2.3.6.6 0 0 1-.2.7zm.2-13.1a.6.6 0 0 1-.5-.2.5.5 0 0 1-.1-.3v-.3c.1-.3.2-.4.4-.4h.4v.2l.2.2a.6.6 0 0 1 .1.4l-.3.2zm-.1-7.1c-.4-.1-.4-.4-.4-.5l.2-.2a.5.5 0 0 1 .5.1.5.5 0 0 1 .1.5h-.4zm.5-16.6l-.5.2a.6.6 0 0 1-.6-.5l.3-.3h.7l.2.2a.6.6 0 0 1-.1.5zm-1 27a.4.4 0 0 1 .3.5.5.5 0 0 1-.4.4h-.2v-.4h.1s0-.1.1-.3zm-.3-47.5h-.2c-.4 0-.5-.4-.5-.6l.2-.3a.6.6 0 0 1 .6.6zm-3.1 57a.5.5 0 0 1-.2-.6l.3-.2h.8l.2.2a.5.5 0 0 1-.3.6h-.1l-.3.2H47l-.2-.3zm.3 1.9a.5.5 0 0 1 .5.2l.3.4h.2a.4.4 0 0 1 .4.4.5.5 0 0 1-.5.4h-.2v-.3h-.1a.7.7 0 0 1-.6-.8zm2.1-34.6c0 .1-.1.3-.3.3s-.3-.2-.3-.3h.1l-.2-.4a.4.4 0 0 1 .3-.2c.3 0 .3.3.4.4h-.1zm-.1 22.3l-.3.2a.7.7 0 0 1-.3-.6l.3-.3c.1.1.5.2.4.8zm-.5-8.3h.2l.2.4a.3.3 0 0 1-.3.2h-.2l-.2-.3v-.2zm-.3 32.7v-.3a.5.5 0 0 1 .5.1h-.2l.3-.2.2.2a.3.3 0 0 1-.1.3h-.1l-.2.4h-.4l-.2-.3zm.8-.9H49l-.2-.2v-.4l.2-.2h.2l.2.2v.4zm.1-87.8h-.3a.7.7 0 0 1-.6-.4.6.6 0 0 1 .1-.6h.3a1.2 1.2 0 0 1 .5.8zm-.8 41.2c0 .2-.1.6-.6.6h-.2a.4.4 0 0 1-.1-.5.3.3 0 0 0 0-.2l.2-.3h.5zM48 23.4h-.4l-.2-.2a.5.5 0 0 1 .1-.4l.3-.2.3.3a.4.4 0 0 1 0 .6zm0-10.7l-.3.2h-.1c-.2 0-.6-.1-.5-.6l.2-.2h.2a.4.4 0 0 1 .5.6zm2.1 84.8a.3.3 0 0 1-.4-.3c0-.2 0-.3.1-.4h.4l-.2-.3v-.2l.3-.2h.2l.2.3h-.1l.3.2v.2a1.2 1.2 0 0 1-.4.8h-.2a.4.4 0 0 1-.2 0zm.9-16a.4.4 0 0 1 0-.4h.7l.2.2a.3.3 0 0 1-.1.3l-.4.2zm5-47.2l.2-.2a.6.6 0 0 1 .5.1l.3.3a.5.5 0 0 1-.5.4l-.4-.2a.5.5 0 0 1-.1-.4zm-.1-23.7c-.1-.3.2-.6.3-.7h.3a.6.6 0 0 1 .4.3.5.5 0 0 1-.1.4v.2l-.3.2c-.4-.1-.6-.2-.6-.4zm-2.1 37.8l.2-.2a.4.4 0 0 1 .4.1.5.5 0 0 1 .1.4.6.6 0 0 0 0 .1l-.3.3c-.1 0-.4-.1-.4-.7zm-.1-16.3l-.2-.2-.2-.4a.7.7 0 0 1 .6-.3l.2.2a.6.6 0 0 1-.1.5zm.4-5.3h-.3l-.2-.3v-.2l.3-.2a.5.5 0 0 1 .4.5l-.2.2zm-1-7l.3-.2.2-.2a.6.6 0 0 1 .6.2h.1l.2.3a.5.5 0 0 1-.5.3h-.1a.4.4 0 0 1 0 .1.4.4 0 0 1-.5.3h-.1l-.2-.2zm.2 30.3a.4.4 0 0 1 .5.2.7.7 0 0 1-.2.6h-.2c-.3-.1-.3-.4-.3-.5a.9.9 0 0 0 0-.1zm.1 8.5h.5l.2.3a.4.4 0 0 1-.2.3l-.2.2c-.1 0-.3 0-.3-.3zm.7 22.7l-.2-.2a.6.6 0 0 1 .1-.5l.3-.2a.7.7 0 0 1 .3.6l-.2.3zm1.1-43.2l-.3.2h-.2l-.2-.3v-.2l.3-.2h.2l.2.3zm.6 3.6h.4l.2.2a1 1 0 0 1-.2.8h-.3l-.3-.3h-.1l-.3-.3c.1-.2.2-.4.5-.4zm.6 6.3a.5.5 0 0 1 .1.4l-.2.2h-.1a.7.7 0 0 1-.5-.3h-.1V48c-.1-.3.4-.3.7 0zm.4 2.9h.3l.3.2a.3.3 0 0 1-.3.3h-.4v-.3c-.3-.2-.1-.2-.1-.2zm.8 11.3v.4h-.2l-.4.2h-.3v-.2a.8.8 0 0 1 .7-.4zm.7-41.6c-.2-.2 0-.3 0-.5v-.2a.5.5 0 0 1 .5.5.4.4 0 0 1-.1.3h-.4v-.3zm.2 29.4l-.2-.2v-.2l.2-.2c.3-.1.5.1.5.5l-.3.3zm.4-36.7v.2l-.2.2h-.2l-.2-.2v-.3l.2-.2h.2l.2-.3.3-.2a.5.5 0 0 1 .4.3l.2.3a.4.4 0 0 1-.4.3h-.3zM60.2 42l-.4-.2h-.2l-.3-.3a.4.4 0 0 1 .4-.4l.7.3h.1v.3c.1 0 0 .3-.3.3zm-.6-7.3h.2l.3.2v.2a.4.4 0 0 1-.4.4h-.2v-.4l.3-.2zm14.5-23.5a.8.8 0 0 1 .1.3l-.3.2h-.6a.7.7 0 0 1-.1-.8.6.6 0 0 1 .5-.4h.1l.2.3a.3.3 0 0 0 .1.4zm1.4-2.4a.5.5 0 0 1 .4.5.5.5 0 0 1-.5.4H75v-.6l.3-.2zm.7 74.6l-.2.3h-1.7l-.2-.3.2-.3.2-.3h.9a.6.6 0 0 1 .6-.2l.2.2a.6.6 0 0 1-.1.5v.1zM73 71.1h-.3l-.2-.2v-.3l.2-.2h.5l.2.2h.3l.3.4h.3a.6.6 0 0 1-.2-.6h.2a.8.8 0 0 1-.2-.6.3.3 0 0 1 .3-.2h.2a.5.5 0 0 1 .1.4l.2.2a.4.4 0 0 1-.1.3.6.6 0 0 1 .2.6l-.3.2a.9.9 0 0 1 0 .6.5.5 0 0 1-.5.4h-.9a.6.6 0 0 1 0-.4zm.5-16.1l.3-.2c.1.1.4.2.4.4a.4.4 0 0 1-.1.4h-.3a.7.7 0 0 1-.3-.6zm1.4-17.9l-.3.2a.3.3 0 0 1-.2-.4.5.5 0 0 1 .5-.4.4.4 0 0 1 .4.2.4.4 0 0 1-.5.4zm.4 29.4l.2.2v.3l-.2.2H75l-.2-.2v-.3l.2-.2zm-1.8 19.7h.4l.2.2.3.3a.4.4 0 0 1-.4.4l-.3-.2a.6.6 0 0 1-.2-.7zm2-13.8l-.2-.2v-.4l.3-.2a.6.6 0 0 1 .4.6s-.1.2-.5.2zm.2-50h-.4l-.2-.3v-.2l.3-.2a.5.5 0 0 1 .4.5zm-.7-8.7l.2.2a.4.4 0 0 1-.1.4l-.2.2h-.2l-.2-.2V14l.2-.2zm-.1 5.3a.4.4 0 0 1 0 .4h-.4l-.2-.3h-.1a.3.3 0 0 1 .1-.3.5.5 0 0 1 .6.2zM74 30.5a.8.8 0 0 1 .2.6l-.3.2-.8-.4v-.3a.6.6 0 0 1 .8-.1zm-.7 21v.4l-.3.2a.7.7 0 0 1-.5-.2v-.2h-.1l-.3.2c-.3 0-.3-.3-.3-.4l.2-.3h.4l.2.2.2-.2h.2zm-.7-31l-.2.2a.6.6 0 0 1-.6-.4.5.5 0 0 1 .1-.6h.3a.7.7 0 0 1 .3.8zm-.3 19.8v.2c-.6.2-.3-.5-.1-.2zm-.3 7.8h.3l.2.2v.3l-.2.2h-.1a.4.4 0 0 1-.4-.2l-.2-.3c-.1.1 0-.1.3-.1zM71.8 68h.4v.4H72a.6.6 0 0 1-.5.3l-.3-.3a.4.4 0 0 0 0-.2l-.3-.2a.4.4 0 0 1 .4-.4zm-.7 8.6a.5.5 0 0 1 .1-.4h.4l.2.2a.4.4 0 0 1 0 .1v.2c0 .2-.2.3-.5.3v-.2.2h-.1zm.3 13.5l-.2.3h-.3l-.2-.4v-.2l.2-.2c.3 0 .4.1.4.5zM71.1 65a.5.5 0 0 1-.4.3l-.2-.2a.5.5 0 0 1 .1-.3l.2-.3h.2v.4zm-1.5 1.4h-.4l-.2-.2a.4.4 0 0 1 .1-.4l.3-.2.3.3a.5.5 0 0 1-.2.5zm0 6.3l-.3.2H69a.7.7 0 0 1 0-.7h.4a.6.6 0 0 1 .2.5zm-.4-25l-.3-.3a.4.4 0 0 1 .7-.3.5.5 0 0 1 .1.4l-.4.2zm.5 16.5V64l.2-.2h.2l.2.2a.4.4 0 0 1-.1.3.5.5 0 0 1-.4.2zM71 33.5l-.3.2h-.4l-.2-.3h-.2l-.4-.2a.4.4 0 0 1 0-.4h.2a.4.4 0 0 1 .5.2h-.1l.2.3h.2l.3-.2h.2l.2.2zm-.7-23.9h-.4c-.4-.1-.4-.4-.4-.5h.4c.4.1.5.3.4.5zm-.7 6.9a.6.6 0 0 1-.5.3l-.4-.2v-.2c.1-.3.3-.4.4-.4h.4zm-.7 35.1h.1l.3.3a.6.6 0 0 1-.2.4H69l-.3.2-.3-.2a.4.4 0 0 1 .1-.4zm-.7 24h-.1a.3.3 0 0 1 .1-.3.5.5 0 0 1 .7.1.4.4 0 0 1 0 .4h-.4l-.2-.3zm.2-6.4l-.2.2h-.3l-.2-.2V69l.2-.2a.5.5 0 0 1 .5.1.4.4 0 0 1 0 .3zm-.9-29.1h-.3a.7.7 0 0 1 0-.7h.2a.7.7 0 0 1 .7.2h.1v.3a.8.8 0 0 1-.7.2zm-.8 38.6h-.3l-.2-.2v-.2l.4-.2h.1c.1 0 .3.1.3.3l-.3.3zm-.6-15l-.3.2h-.2c-.1-.1-.1-.3 0-.7h.4a.7.7 0 0 1 .1.4zm.2 8l.2.2a.4.4 0 0 1-.4.5H66l-.3-.3c0-.4.3-.5.7-.5zm-.7-18.5l-.3.2h-.2L65 53v-.2l.3-.2h.2l.2.3zm-.1 27.2l.4-.2a.6.6 0 0 1 .4.6l-.2.2h-.3l-.2-.2zM66.8 69l-.3-.2-.2-.3c.1-.4.5-.4.7-.1a.4.4 0 0 1 0 .4zM68 28.3h-.4l-.2-.2v-.4l.2-.2h.2c.5 0 .5.4.5.6zm-.7-1.8l-.3.2h-.3l-.3-.4a.3.3 0 0 1 .3-.3l.6.3a.5.5 0 0 1 .1.4zm-.8 30.3l-.3.2a.6.6 0 0 1-.5-.4.4.4 0 0 1 .2-.4h.2c.2-.1.5 0 .5.6zm-2.4-18a.6.6 0 0 1 .2-.5h.1a.5.5 0 0 1 .6.3.6.6 0 0 1-.1.6h-.3l-.3.2-.4-.2V39a.5.5 0 0 1 .2-.2zm-.6-3.1a.5.5 0 0 1 .1-.4l.2-.2h.2l.2.2v.3l-.2.2h-.3zm1.3-5.6h-.2l-.2-.2a.4.4 0 0 1 .1-.4l.2-.2h.2l.2.2a.4.4 0 0 1-.1.4zm-1.5-6.4l-.4.2h-.1a1 1 0 0 1-.4.5H62a.3.3 0 0 1-.2-.4.8.8 0 0 1 .5-.6.5.5 0 0 1 .1-.3h.4c.3 0 .4.2.4.3a.4.4 0 0 1 .1.3zM62.4 55a.6.6 0 0 1-.5-.3.5.5 0 0 1 0-.5h.1a.5.5 0 0 1 .5.3l.2.3a.5.5 0 0 1-.3.2zm0 40.1H62l-.3-.2a.2.2 0 0 1 .1-.2.6.6 0 0 1 .1-.4h.4a.7.7 0 0 1 .1.8zm.4-21.8h.5l.2.2a.4.4 0 0 1-.4.4l-.4-.2a.5.5 0 0 1-.1-.4zm.9 14.1a.7.7 0 0 1-.1-.5l.2-.2h.3l.2.2v.4l-.2.2h-.5zm.6-36.9l.2-.2a.5.5 0 0 1 .5.4l.2.4-.4.2-.4-.2a.7.7 0 0 1-.1-.6zm.7 31.1c0-.3.3-.3.4-.3h.1l.3.2a.5.5 0 0 1-.1.4l-.4.2h-.1l-.2-.2a.3.3 0 0 1 0-.3zm12 7.8l-.2-.3a.5.5 0 0 1 .5-.3h.5l.2.2a.6.6 0 0 1-.1.4l-.2.2a.7.7 0 0 1-.5-.2zm.9-22.5h-.2l-.2-.3v-.2l.3-.2h.2l.2.3v.2zm1.5-31.3a.3.3 0 0 1-.2-.4c0-.2.3-.3.7-.4l.3.2v.3l-.3.2h-.1zm.6-21.1h-.3l-.2-.2a.4.4 0 0 1 .4-.4l.4.2a.5.5 0 0 1 .1.4v.2zm-.1 15.3a.4.4 0 0 1 .1.4l-.2.2h-.2a.5.5 0 0 1-.4-.2l-.2-.3a.4.4 0 0 1 .4-.3zm-.8 6l.2.2v.3l-.2.2h-.3l-.2-.2a.4.4 0 0 1 .1-.4l.2-.2zm-.6 10.1v-.3h.1v-.3a.4.4 0 0 1 .4.4.4.4 0 0 1-.1.3h-.3v-.3zm.7-3.6c-.3.4-.6-.2 0 0zm-.6 1.7v.5l-.2.2a.4.4 0 0 1-.4-.3.7.7 0 0 1 .1-.7h.5zm-.8 4.9h.1l.3-.3a.4.4 0 0 1 .3.3l.3.2c0 .4-.2.5-.4.5h-.1l-.3-.2a.3.3 0 0 1-.2-.2c-.3-.2-.1-.3 0-.4zm.4 40.1h.1a.5.5 0 0 1 .6.3.6.6 0 0 1-.1.6h-.2a.7.7 0 0 1-.4-.5.5.5 0 0 1 0-.4zm.6-5.6h-.2l-.2-.3h.1l-.3-.2a.4.4 0 0 1 0-.3l.2-.2a.4.4 0 0 1 .5.2.6.6 0 0 1 0 .4h.2l.2.3v.2zm.3-39.4c-.1-.2 0-.4.1-.6l.2-.2.3.2c.1.2 0 .4-.1.6l-.2.2zm1.5 32.8l.2-.2h.2l.2.2a.4.4 0 0 1-.1.3l-.4.2-.3-.3zm-39.2-73V4a.3.3 0 0 1-.3.2.4.4 0 0 1-.3-.2h.5zM17.6 17.1h.2a.4.4 0 0 1 .3.4.6.6 0 0 1-.2.4h-.3v-.2l-.2-.2zm-2.8 8.6c.3.1.4.2.4.4a.4.4 0 0 1-.4.4l-.4-.2V26a.4.4 0 0 1 .2-.3zm-.8.3a.4.4 0 0 1-.4.4h-.2a.6.6 0 0 1-.1-.5l.3-.2c.4-.1.5.1.5.3zm-2.3 40.1l-.2-.2-.3-.3a.4.4 0 0 1 .4-.3h.7a.4.4 0 0 1 0 .4.4.4 0 0 1-.3.1zM10 61.6l-.2.2h-.4l-.2-.2v-.2l.2-.2a.5.5 0 0 1 .5.1.4.4 0 0 1 .1.3zm-1.9 5.5a.8.8 0 0 1 .8-.5l.3.2a.6.6 0 0 1-.2.5h-.1l-.2.3h-.1a.4.4 0 0 1-.4-.3h.1zM5.2 41.3a.4.4 0 0 1-.2.4v-.5zm-.8 16.1h-.1v-.6l.2.2zm1.5-6.9c.3-.1.5.1.5.5l-.3.3h-.2l-.3-.3v-.2zm-.7 12.1a.4.4 0 0 1 .4-.3.4.4 0 0 1 .4.4.4.4 0 0 1-.3.4c-.2 0-.4-.2-.4-.2a.3.3 0 0 1-.1-.3zm.4-4.5a.6.6 0 0 1 .1-.6H6a.6.6 0 0 1 .4.4.6.6 0 0 1-.2.5h-.1a.4.4 0 0 1-.4-.3zm.9-1.1H6l-.2-.4a1.8 1.8 0 0 1-.1-.3l.2-.2H6c.1 0 .3 0 .3.3h.1a.5.5 0 0 1 .3.6zm0-3.1h-.7l-.2-.3a.6.6 0 0 1 .6-.5l.4.2a.6.6 0 0 1 .1.5zm0-4.7l-.6-.2a.4.4 0 0 1-.1-.4v-.2a.5.5 0 0 1 .7.1h.1v.5a.5.5 0 0 1-.1.2zm.4 6h.4v.4a.4.4 0 0 1-.4.4H7l-.2-.2a.5.5 0 0 1 .1-.6zm.5-1.3h-.2l-.2-.4v-.2l.3-.2h.2l.2.3v.2zm.9-13.1h-.1l.3.3c-.1.2-.2.3-.3.3l-.3-.2-.2-.3c0-.1.1-.3.3-.3a.3.3 0 0 1 .3.2zm0-8.5a.4.4 0 0 1 .4-.4l.4.2a.5.5 0 0 1 .1.4l-.2.2h-.6zm-.4 1.4h-.3a.6.6 0 0 1-.1-.5l.3-.2c.3 0 .4.3.4.4a.4.4 0 0 1-.4.3zM7.8 51l-.2-.3c0-.3.3-.3.4-.3l.3.2v.4l-.3.2zm2.4-1.8l.3-.2h.2l.2.3v.2l-.3.2h-.2l-.2-.3zm2.4-20.5v.3c-.1.3-.2.3-.3.3H12l-.3-.2a.3.3 0 0 1 .3-.3zm-.1-2.9v.2c-.6.2-.3-.5-.1-.1zm-.3 7.5a.5.5 0 0 1 .1.4l-.3.3h-.4a.5.5 0 0 1-.1-.4l.2-.2h.4zm-.3 19.3v-.3c.2 0 .2.6-.1.4zm0 7.5h.1l.2.3v.2l-.3.2h-.2l-.2-.3v-.2zm.1-20c0-.5.4-.6.6-.6h.2l.3.2a.6.6 0 0 1-.1.3l-.2.3h-.5zm1-15.3h-.4a.9.9 0 0 1 .2.4.4.4 0 0 1-.2.5h-.4a.5.5 0 0 1-.1-.4h.1L12 25a.4.4 0 0 1 .3-.2h.1c.1-.3.2-.4.4-.4h.4v.2c.1.1-.1.2-.2.2zm-1.2-.5h.1v.2h-.1v.3h-.2zm.4 23.5v-.2l.3-.2a.5.5 0 0 1 .4.5l-.2.2h-.4zm.1 25.3l.2-.2h.5l.2.3a.5.5 0 0 1-.5.4h-.1l-.2-.2zm.5-19.2h-.1l-.2-.2a.5.5 0 0 1 .1-.4.5.5 0 0 1 .7 0v.2a.5.5 0 0 1-.4.4zm.3-31.5l-.2.2.2-.3a.5.5 0 0 1 .1.1zM4.4 58.8v-.4h.2l.2.2a.4.4 0 0 1-.1.4l-.2.2zm40.4 39.7zm13.7-.2a.6.6 0 0 1 .2-.4h.1l.2-.2a.6.6 0 0 1 .7.3v.2zm35.2-56.6h-.2l-.2-.2v-.3l.2-.2h.4l.2.3v.2zm.1 29.7h.2l.2.3v.3l-.3.2h-.2l-.2-.3v-.2zm1-17.4v.4h-.1v.3a.5.5 0 1 1 0-.9v.3zm.6-2.5l-.3.2c-.3-.1-.3-.4-.3-.5l.2-.2.3.2a.4.4 0 0 1 0 .4zm1-1.8a.3.3 0 0 1 .3-.2c.2 0 .4.2.4.4a.4.4 0 0 1-.2.4h-.1a.4.4 0 0 1-.3-.4h.1zm.2 8.5h.1c.2 0 .4.1.4.4l-.3.3h-.1c-.3 0-.3-.3-.3-.4zm2.3-17.9l.3-.3a.5.5 0 0 1 .3.3.4.4 0 0 1-.1.4H99a.3.3 0 0 1-.2-.5zm-.4 15.4a.5.5 0 0 1-.5.3l-.5-.2a.5.5 0 0 1-.1-.5l.3-.2h.3l-.2.2.4-.2a.4.4 0 0 1 .2.6zm-.1-15.5a.5.5 0 0 1-.1.5l-.3.3h-.6l-.2-.2a.6.6 0 0 1 1-.5zM97 34.1l.2-.2h.3a.4.4 0 0 1 .1.3l.5.2a.5.5 0 0 1 .1.4l-.3.2a1.7 1.7 0 0 1-.8-.4v-.4s-.2.1-.2-.1zm-.6.5h.3a1.1 1.1 0 0 1 .2.8l-.3.2c-.3 0-.4-.4-.4-.5v-.3zm-.1 2.2h.3a.7.7 0 0 1 .3.6l-.3.2c-.1-.1-.4-.2-.4-.4a.4.4 0 0 1-.1-.4zm-.3 7.3l-.3.2-.4-.2v.2h-1.1l-.3-.2a.6.6 0 0 1 .1-.3l.2-.2h1.1v-.2a.6.6 0 0 1 .6.2.6.6 0 0 1 .1.5zm-1.6-9.6l.2-.2h.2l.3.3h.2l.2.3v.2l-.3.2H95V35h-.2l-.2-.4zm.1.5a1.4 1.4 0 0 1 .7.3h.4a.4.4 0 0 1 0 .3l-.2.2h-.3v.3H95l.2.3v.4l-.3.2h-.3a.4.4 0 0 1-.2-.4h-.1a.6.6 0 0 1-.5-.6.6.6 0 0 1-.4-.2.3.3 0 0 1-.1-.3.4.4 0 0 1 .4-.3.4.4 0 0 1 .4.4h.3v.2h.1a.7.7 0 0 1-.4-.5l.2-.2zm-1.7-.2a.5.5 0 0 1 .2-.4h.2a.7.7 0 0 1 0-.2V34h.2a.3.3 0 0 1 .3.2h.3l.2.2c0 .3-.5.4-.6.4a1.4 1.4 0 0 1 0 .2.7.7 0 0 0 0 .1l-.4.2h-.1c0 .1-.1.2-.1.2v.2h-.3a.5.5 0 0 1-.2-.4.4.4 0 0 1 .3-.4z"
       id="path3" />
  </g>
  <g
     id="SvgjsG4844"
     featurekey="symbolFeature-0"
     transform="matrix(0.90359471,0,0,0.90359471,156.98406,155.65227)"
     style="fill:#393939">
    <path
       d="m 59.393,25.715 c 0,5.777 -4.684,10.458 -10.461,10.458 -5.78,0 -10.459,-4.681 -10.459,-10.458 0,-5.781 4.679,-10.461 10.459,-10.461 5.777,-10e-4 10.461,4.68 10.461,10.461 z"
       id="path6"
       inkscape:connector-curvature="0" />
    <path
       d="m 38.741,32.013 c 0,0.932 -0.756,1.688 -1.687,1.688 -0.935,0 -1.689,-0.756 -1.689,-1.688 0,-0.938 0.754,-1.69 1.689,-1.69 0.931,0 1.687,0.752 1.687,1.69 z"
       id="path8"
       inkscape:connector-curvature="0" />
    <circle
       cx="31.497999"
       cy="31.025999"
       r="1.691"
       id="circle10" />
    <circle
       cx="36.780998"
       cy="37.083"
       r="1.691"
       id="circle12" />
    <path
       d="m 30.298,24.234 c 0,0.935 -0.754,1.692 -1.688,1.692 -0.934,0 -1.694,-0.757 -1.694,-1.692 0,-0.931 0.76,-1.691 1.694,-1.691 0.934,0 1.688,0.76 1.688,1.691 z"
       id="path14"
       inkscape:connector-curvature="0" />
    <path
       d="m 31.496,18.667 c 0,0.938 -0.757,1.695 -1.688,1.695 -0.934,0 -1.693,-0.756 -1.693,-1.695 0,-0.931 0.759,-1.691 1.693,-1.691 0.93,0.001 1.688,0.76 1.688,1.691 z"
       id="path16"
       inkscape:connector-curvature="0" />
    <path
       d="m 34.528,14.358 c 0,0.933 -0.762,1.687 -1.693,1.687 -0.935,0 -1.688,-0.754 -1.688,-1.687 0,-0.935 0.753,-1.694 1.688,-1.694 0.931,0 1.693,0.759 1.693,1.694 z"
       id="path18"
       inkscape:connector-curvature="0" />
    <path
       d="m 37.054,9.844 c 0,0.935 -0.758,1.689 -1.689,1.689 -0.939,0 -1.696,-0.754 -1.696,-1.689 0,-0.933 0.757,-1.691 1.696,-1.691 0.931,0 1.689,0.758 1.689,1.691 z"
       id="path20"
       inkscape:connector-curvature="0" />
    <path
       d="m 44.656,6.865 c 0,0.938 -0.753,1.691 -1.687,1.691 -0.932,0 -1.688,-0.753 -1.688,-1.691 0,-0.933 0.757,-1.691 1.688,-1.691 0.934,0 1.687,0.758 1.687,1.691 z"
       id="path22"
       inkscape:connector-curvature="0" />
    <path
       d="m 52.795,6.865 c 0,0.938 -0.752,1.691 -1.693,1.691 -0.931,0 -1.688,-0.753 -1.688,-1.691 0,-0.933 0.757,-1.691 1.688,-1.691 0.941,0 1.693,0.758 1.693,1.691 z"
       id="path24"
       inkscape:connector-curvature="0" />
    <circle
       cx="56.546001"
       cy="8.5559998"
       r="1.6900001"
       id="circle26" />
    <circle
       cx="62.042"
       cy="10.391"
       r="1.6900001"
       id="circle28" />
    <circle
       cx="65.424004"
       cy="14.094"
       r="1.691"
       id="circle30" />
    <path
       d="m 70,19.281 c 0,0.935 -0.756,1.691 -1.688,1.691 -0.934,0 -1.695,-0.756 -1.695,-1.691 0,-0.933 0.762,-1.688 1.695,-1.688 0.932,0 1.688,0.755 1.688,1.688 z"
       id="path32"
       inkscape:connector-curvature="0" />
    <path
       d="m 70.848,25.133 c 0,0.932 -0.76,1.688 -1.695,1.688 -0.934,0 -1.688,-0.756 -1.688,-1.688 0,-0.931 0.754,-1.689 1.688,-1.689 0.935,0 1.695,0.758 1.695,1.689 z"
       id="path34"
       inkscape:connector-curvature="0" />
    <path
       d="m 70.848,30.323 c 0,0.931 -0.76,1.69 -1.695,1.69 -0.934,0 -1.688,-0.759 -1.688,-1.69 0,-0.938 0.754,-1.692 1.688,-1.692 0.935,-0.001 1.695,0.754 1.695,1.692 z"
       id="path36"
       inkscape:connector-curvature="0" />
    <path
       d="m 68.805,34.482 c 0,0.931 -0.756,1.691 -1.689,1.691 -0.939,0 -1.693,-0.76 -1.693,-1.691 0,-0.932 0.754,-1.688 1.693,-1.688 0.933,0.001 1.689,0.757 1.689,1.688 z"
       id="path38"
       inkscape:connector-curvature="0" />
    <path
       d="m 76.155289,56.184465 c 0,0.936 -0.758,1.696 -1.689,1.696 -0.934,0 -1.693,-0.76 -1.693,-1.696 0,-0.932 0.76,-1.688 1.693,-1.688 0.932,0 1.689,0.756 1.689,1.688 z"
       id="path40"
       inkscape:connector-curvature="0" />
    <path
       d="m 57.289,42.228 c 0,0.937 -0.762,1.696 -1.693,1.696 -0.936,0 -1.689,-0.759 -1.689,-1.696 0,-0.931 0.754,-1.686 1.689,-1.686 0.931,0 1.693,0.754 1.693,1.686 z"
       id="path42"
       inkscape:connector-curvature="0" />
    <path
       d="m 52.795,38.773 c 0,0.931 -0.752,1.69 -1.693,1.69 -0.931,0 -1.688,-0.759 -1.688,-1.69 0,-0.937 0.757,-1.691 1.688,-1.691 0.941,10e-4 1.693,0.754 1.693,1.691 z"
       id="path44"
       inkscape:connector-curvature="0" />
    <path
       d="m 50.733652,41.79411 c 0,0.937 -0.757,1.696 -1.688,1.696 -0.934,0 -1.691,-0.759 -1.691,-1.696 0,-0.931 0.757,-1.686 1.691,-1.686 0.931,0 1.688,0.754 1.688,1.686 z"
       id="path46"
       inkscape:connector-curvature="0" />
    <path
       d="m 46.351,38.357 c 0,0.932 -0.754,1.691 -1.694,1.691 -0.931,0 -1.687,-0.759 -1.687,-1.691 0,-0.933 0.756,-1.69 1.687,-1.69 0.939,0 1.694,0.757 1.694,1.69 z"
       id="path48"
       inkscape:connector-curvature="0" />
    <path
       d="m 59.560863,174.19003 c 0,1.2587 -1.015818,2.26915 -2.265127,2.26915 -1.253334,0 -2.265127,-1.0091 -2.265127,-2.26915 0,-1.25065 1.011793,-2.26915 2.265127,-2.26915 1.249309,0 2.265127,1.0185 2.265127,2.26915 z"
       id="path50"
       inkscape:connector-curvature="0"
       style="stroke-width:1.34189987" />
    <circle
       cx="40.865002"
       cy="35.391998"
       r="1.688"
       id="circle52" />
    <path
       d="m -80.268648,128.96103 c 0,1.6902 -1.3626,3.0492 -3.0384,3.0492 -1.6812,0 -3.0474,-1.3572 -3.0474,-3.0492 0,-1.6794 1.3662,-3.0384 3.0474,-3.0384 1.6758,0.002 3.0384,1.359 3.0384,3.0384 z"
       id="path54"
       inkscape:connector-curvature="0"
       style="stroke-width:1.80000007" />
    <path
       d="m 37.042,21.169 c 0,0.937 -0.756,1.69 -1.688,1.69 -0.935,0 -1.689,-0.754 -1.689,-1.69 0,-0.932 0.754,-1.69 1.689,-1.69 0.932,0 1.688,0.758 1.688,1.69 z"
       id="path56"
       inkscape:connector-curvature="0" />
    <path
       d="m 39.598,16.045 c 0,0.931 -0.762,1.691 -1.687,1.691 -0.935,0 -1.695,-0.76 -1.695,-1.691 0,-0.931 0.76,-1.687 1.695,-1.687 0.925,0 1.687,0.756 1.687,1.687 z"
       id="path58"
       inkscape:connector-curvature="0" />
    <path
       d="m 42.969,12.664 c 0,0.932 -0.755,1.694 -1.688,1.694 -0.938,0 -1.693,-0.763 -1.693,-1.694 0,-0.931 0.756,-1.688 1.693,-1.688 0.933,10e-4 1.688,0.756 1.688,1.688 z"
       id="path60"
       inkscape:connector-curvature="0" />
    <circle
       cx="47.241001"
       cy="10.977"
       r="1.691"
       id="circle62" />
    <path
       d="m 55.174,12.082 c 0,0.935 -0.755,1.691 -1.694,1.691 -0.933,0 -1.688,-0.756 -1.688,-1.691 0,-0.933 0.755,-1.691 1.688,-1.691 0.939,0 1.694,0.757 1.694,1.691 z"
       id="path64"
       inkscape:connector-curvature="0" />
    <path
       d="m 59.932,14.358 c 0,0.933 -0.76,1.687 -1.695,1.687 -0.934,0 -1.688,-0.754 -1.688,-1.687 0,-0.935 0.754,-1.694 1.688,-1.694 0.935,0 1.695,0.759 1.695,1.694 z"
       id="path66"
       inkscape:connector-curvature="0" />
    <path
       d="m 64.01,18.635 c 0,0.931 -0.754,1.691 -1.688,1.691 -0.93,0 -1.693,-0.76 -1.693,-1.691 0,-0.937 0.764,-1.691 1.693,-1.691 0.934,0 1.688,0.755 1.688,1.691 z"
       id="path68"
       inkscape:connector-curvature="0" />
    <path
       d="m 65.422,23.536 c 0,0.937 -0.756,1.694 -1.689,1.694 -0.932,0 -1.691,-0.758 -1.691,-1.694 0,-0.931 0.76,-1.691 1.691,-1.691 0.933,0 1.689,0.759 1.689,1.691 z"
       id="path70"
       inkscape:connector-curvature="0" />
    <path
       d="m 64.646,28.956 c 0,0.935 -0.758,1.687 -1.689,1.687 -0.934,0 -1.693,-0.752 -1.693,-1.687 0,-0.935 0.76,-1.694 1.693,-1.694 0.932,-0.001 1.689,0.759 1.689,1.694 z"
       id="path72"
       inkscape:connector-curvature="0" />
    <path
       d="m 63.307,33.701 c 0,0.935 -0.754,1.691 -1.689,1.691 -0.932,0 -1.686,-0.756 -1.686,-1.691 0,-0.931 0.754,-1.688 1.686,-1.688 0.935,0 1.689,0.757 1.689,1.688 z"
       id="path74"
       inkscape:connector-curvature="0" />
    <path
       d="m 59.393,37.083 c 0,0.931 -0.76,1.691 -1.695,1.691 -0.932,0 -1.686,-0.76 -1.686,-1.691 0,-0.933 0.754,-1.691 1.686,-1.691 0.935,0 1.695,0.757 1.695,1.691 z"
       id="path76"
       inkscape:connector-curvature="0" />
    <path
       d="M 36.779,37.083"
       id="path78"
       inkscape:connector-curvature="0" />
    <path
       d="M 37.054,32.013"
       id="path80"
       inkscape:connector-curvature="0" />
    <path
       d="m 36.957,37.197 -0.355,-0.229 c 0.249,-0.388 6.171,-9.52 12.267,-11.455 l 0.128,0.403 c -5.951,1.889 -11.98,11.187 -12.04,11.281 z"
       id="path82"
       inkscape:connector-curvature="0" />
    <path
       d="m 37.255,32.079 -0.401,-0.132 c 0.78,-2.381 3.12,-4.274 6.769,-5.475 2.73,-0.898 5.268,-1.103 5.293,-1.104 l 0.032,0.422 c -0.099,0.007 -9.905,0.828 -11.693,6.289 z"
       id="path88"
       inkscape:connector-curvature="0" />
    <path
       d="m 31.705,31.058 -0.418,-0.064 c 0.794,-5.128 16.935,-5.473 17.622,-5.485 l 0.008,0.423 c -0.166,0.003 -16.472,0.347 -17.212,5.126 z"
       id="path90"
       inkscape:connector-curvature="0" />
    <path
       d="M 48.852,25.425 C 48.703,25.364 33.883,19.363 28.758,24.384 l -0.296,-0.302 c 2.244,-2.2 6.395,-2.704 12.333,-1.5 4.389,0.89 8.18,2.436 8.217,2.452 z"
       id="path92"
       inkscape:connector-curvature="0" />
    <path
       d="m 48.808,24.405 c -0.075,-0.054 -7.601,-5.39 -13.374,-3.041 l -0.159,-0.392 c 2.485,-1.011 5.66,-0.794 9.179,0.625 2.644,1.066 4.582,2.45 4.602,2.464 z"
       id="path94"
       inkscape:connector-curvature="0" />
    <path
       d="M 48.412,25.745 C 48.282,25.642 35.293,15.413 29.921,18.846 L 29.693,18.49 c 5.625,-3.595 18.438,6.493 18.981,6.924 z"
       id="path96"
       inkscape:connector-curvature="0" />
    <path
       d="m 48.754,24.93 c -0.06,-0.093 -5.989,-9.225 -10.819,-8.675 l -0.048,-0.42 c 5.098,-0.579 10.976,8.48 11.223,8.867 z"
       id="path98"
       inkscape:connector-curvature="0" />
    <path
       d="M 49.209,25.977 C 49.175,25.84 45.699,12.297 32.872,14.567 L 32.799,14.151 C 46.014,11.82 49.585,25.736 49.62,25.877 Z"
       id="path100"
       inkscape:connector-curvature="0" />
    <path
       d="M 48.332,25.929 C 48.331,25.841 48.171,17.11 44.651,13.965 43.698,13.114 42.567,12.744 41.302,12.874 L 41.26,12.453 c 1.398,-0.137 2.629,0.265 3.673,1.197 3.659,3.269 3.817,11.907 3.822,12.273 z"
       id="path102"
       inkscape:connector-curvature="0" />
    <path
       d="M 48.343,25.686 C 48.289,25.522 42.847,9.269 35.387,10.055 l -0.044,-0.42 c 3.297,-0.347 6.552,2.24 9.689,7.688 2.314,4.018 3.698,8.19 3.712,8.232 z"
       id="path104"
       inkscape:connector-curvature="0" />
    <path
       d="M 48.702,26.839 C 48.685,26.657 47.014,8.649 42.893,7.062 l 0.152,-0.395 c 4.363,1.681 6.009,19.381 6.077,20.134 z"
       id="path106"
       inkscape:connector-curvature="0" />
    <path
       d="M 48.248,26.567 47.826,26.548 C 48.068,20.92 48.091,11.763 47.125,11.154 l 0.226,-0.357 c 1.459,0.92 1.003,13.298 0.897,15.77 z"
       id="path108"
       inkscape:connector-curvature="0" />
    <path
       d="m 48.321,27.423 0.011,-1.184 c 0.006,-0.631 0.169,-15.504 2.589,-19.484 l 0.361,0.22 c -1.979,3.255 -2.415,14.493 -2.505,18.127 1.281,-3.031 5.183,-11.366 9.48,-10.954 l -0.041,0.421 c -4.793,-0.456 -9.428,11.625 -9.475,11.747 z"
       id="path110"
       inkscape:connector-curvature="0" />
    <path
       d="m 48.025,25.751 -0.416,-0.072 c 0.088,-0.505 2.197,-12.391 5.793,-13.794 l 0.154,0.394 c -3.377,1.317 -5.51,13.351 -5.531,13.472 z"
       id="path112"
       inkscape:connector-curvature="0" />
    <path
       d="m 48.622,25.236 -0.423,-0.013 c 0.001,-0.041 0.135,-4.118 1.207,-8.201 1.436,-5.471 3.901,-8.472 7.129,-8.678 l 0.027,0.422 c -7.374,0.471 -7.936,16.31 -7.94,16.47 z"
       id="path114"
       inkscape:connector-curvature="0" />
    <path
       d="m 48.243,26.132 -0.387,-0.17 c 0.305,-0.695 7.556,-17.01 14.223,-15.78 l -0.076,0.416 C 55.647,9.424 48.316,25.965 48.243,26.132 Z"
       id="path116"
       inkscape:connector-curvature="0" />
    <path
       d="M 47.172,26.354 47.91,25.539 C 48.349,25.055 58.739,13.687 66.353,14.147 l -0.027,0.422 c -6.206,-0.408 -14.714,7.76 -17.314,10.425 3.772,-1.781 16.502,-7.554 19.88,-6.022 l -0.174,0.385 c -3.726,-1.681 -20.39,6.431 -20.558,6.514 z"
       id="path118"
       inkscape:connector-curvature="0" />
    <path
       d="m 47.947,26.316 -0.261,-0.333 c 0.451,-0.353 11.074,-8.627 14.696,-7.55 l -0.121,0.405 C 58.853,17.819 48.056,26.23 47.947,26.316 Z"
       id="path120"
       inkscape:connector-curvature="0" />
    <path
       d="M 56.509134,173.30839 C 50.06113,142.97607 42.353992,49.094936 42.047784,45.024419 l -0.06748,-0.648272 -0.09961,-0.80186 c -0.267162,-1.610115 0.761469,-11.936443 2.781531,-17.034627 3.565766,-6.157767 2.30979,-17.2002722 10.43357,-5.685997 l 3.667893,6.431795 C 44.29674,6.7669218 42.284274,42.134709 42.347703,43.111706 42.880635,50.10481 51.161092,144.77562 57.197219,173.16555 Z"
       id="path122"
       inkscape:connector-curvature="0"
       style="stroke-width:3.65094042"
       sodipodi:nodetypes="cccccccccc" />
    <path
       d="M 69.062,25.324 C 63.528,22.74 49.247,25.002 49.103,25.024 l -0.067,-0.417 c 0.591,-0.095 14.551,-2.307 20.206,0.334 z"
       id="path124"
       inkscape:connector-curvature="0" />
    <path
       d="M 62.798,29.095 C 59.419,25.226 48.9,24.832 48.794,24.828 l 0.014,-0.423 c 0.44,0.015 10.81,0.405 14.309,4.411 z"
       id="path126"
       inkscape:connector-curvature="0" />
    <path
       d="M 68.946,30.368 C 68.316,27.511 53.898,25.842 48.395,25.441 l 0.031,-0.422 c 0.82,0.06 20.107,1.51 20.932,5.258 z"
       id="path128"
       inkscape:connector-curvature="0" />
    <path
       d="M 61.439,33.815 C 58.252,28.871 48.745,25.416 48.649,25.381 l 0.143,-0.397 c 0.396,0.142 9.738,3.537 13.003,8.603 z"
       id="path130"
       inkscape:connector-curvature="0" />
    <path
       d="M 66.919,34.561 C 64.925,29.586 48.899,24.486 48.737,24.436 l 0.127,-0.403 c 0.668,0.21 16.379,5.212 18.447,10.372 z"
       id="path132"
       inkscape:connector-curvature="0" />
    <path
       d="M 57.896,37.155 57.5,37.009 c 0.1,-0.272 0.011,-0.719 -0.256,-1.291 -1.55,-3.322 -8.133,-9.452 -8.726,-9.666 l 0.051,-0.141 -0.091,-0.263 c 0.44,-0.153 3.415,2.835 4.005,3.437 2.276,2.317 6.006,6.447 5.413,8.07 z"
       id="path134"
       inkscape:connector-curvature="0" />
    <path
       d="M 73.832565,54.829951 C 72.898065,48.155837 49.24825,25.220431 49.012,24.994 l 0.024,-0.387 c 0.983501,0.934869 24.073016,23.017509 25.056516,30.057051 z"
       id="path136"
       inkscape:connector-curvature="0"
       style="stroke-width:1.98073578"
       sodipodi:nodetypes="ccccc" />
    <path
       d="M 55.385,42.235 C 55.239,38.248 48.947,26.266 48.883,26.146 l 0.374,-0.197 c 0.261,0.496 6.401,12.189 6.55,16.271 z"
       id="path138"
       inkscape:connector-curvature="0" />
    <path
       d="m 51.31,38.809 -0.417,-0.072 c 0.382,-2.214 -1.988,-10.506 -2.468,-12.151 -1.211,0.88 -6.633,5.009 -7.353,8.845 l -0.415,-0.078 c 0.839,-4.472 7.484,-9.091 7.767,-9.285 l 0.239,-0.165 0.083,0.278 c 0.123,0.41 3.003,10.081 2.564,12.628 z"
       id="path140"
       inkscape:connector-curvature="0" />
    <path
       d="m 44.446,38.374 c -0.32,-4.099 4.582,-11.714 4.791,-12.036 l 0.354,0.229 c -0.05,0.078 -5.034,7.817 -4.725,11.773 z"
       id="path142"
       inkscape:connector-curvature="0" />
    <path
       d="m 48.913,42.316 -0.384,-0.178 c 1.072,-2.31 -0.301,-17.153 -0.315,-17.303 l 0.421,-0.039 c 0.057,0.616 1.397,15.108 0.278,17.52 z"
       id="path144"
       inkscape:connector-curvature="0" />
    <path
       style="fill:#393939;stroke-width:5.61841536"
       d="M 38.917099,25.648219 C 32.749425,15.335036 -65.974649,97.108494 -84.021892,129.52262 l -0.429664,0.0645 c 2.565574,-5.74452 10.719854,-16.18096 18.63244,-24.41459 C -53.839478,92.706812 -19.006857,59.073049 11.609477,37.681223 38.952187,18.13491 40.298188,25.230913 40.547171,25.095665 Z"
       id="path92-3"
       inkscape:connector-curvature="0"
       sodipodi:nodetypes="cccsccc" />
    <path
       style="fill:#393939;stroke-width:6.00069427"
       d="M 45.787882,16.609946 C 45.365588,15.747861 -12.333953,-76.602459 -61.348532,-68.722719 l -0.45907,-1.135849 c 18.196554,-2.391605 42.313055,6.128359 74.277101,40.958302 21.676397,23.2092335 34.638004,46.019841 34.74728,46.240536 z"
       id="path104-6"
       inkscape:connector-curvature="0"
       sodipodi:nodetypes="cccccc" />
    <circle
       style="fill:#393939;stroke-width:1.5"
       cx="157.73973"
       cy="-10.856774"
       r="2.5349998"
       id="circle28-5" />
    <path
       style="fill:#393939;stroke-width:3.97152042"
       d="m 57.567113,23.122335 -1.82102,0.559728 c 2.172924,-1.538699 53.831527,-37.659381 101.329517,-34.936216 l -0.54145,0.921006 C 111.25184,-12.932331 58.08719,22.752604 57.567113,23.122335 Z"
       id="path116-6"
       inkscape:connector-curvature="0"
       sodipodi:nodetypes="ccccc" />
    <circle
       style="fill:#393939;stroke-width:1.5"
       cx="-63.065041"
       cy="-68.923943"
       r="2.5349998"
       id="circle28-5-2" />
  </g>
  <g
     id="SvgjsG4845"
     featurekey="nameFeature-0"
     transform="matrix(0.5580502166855448,0,0,0.5580502166855448,52.77357633586421,195.30232440313338)"
     fill="#393939">
    <path
       d="M32.813 27.344 c-0.98961 2.3959 -2.3438 4.375 -4.0625 5.9375 c-1.7709 1.6666 -3.8542 2.9688 -6.2501 3.9063 s-5.0781 1.4063 -8.0469 1.4063 l-8.6719 0 l0 -5.9375 l8.5938 0 c1.9791 0 3.776 -0.3125 5.3906 -0.9375 c1.5625 -0.625 2.9166 -1.5104 4.0625 -2.6563 s2.0313 -2.5 2.6563 -4.0625 s0.9375 -3.2813 0.9375 -5.1563 c0 -1.8229 -0.3125 -3.5156 -0.9375 -5.0781 c-0.625 -1.6146 -1.5104 -2.9427 -2.6563 -3.9844 c-1.0416 -1.0938 -2.3958 -1.9791 -4.0624 -2.6563 c-1.6666 -0.625 -3.4635 -0.9375 -5.3906 -0.9375 l-8.5938 0 l0 -5.9375 l8.6719 0 c2.7604 0 5.4166 0.49477 7.9688 1.4844 c2.3959 0.88539 4.5052 2.2135 6.3281 3.9844 c1.7709 1.6146 3.125 3.5938 4.0625 5.9375 c0.98961 2.3959 1.4844 4.8438 1.4844 7.3438 c0 2.7084 -0.49477 5.1563 -1.4844 7.3438 z M71.703 38.5937 l7.0313 0 l-13.594 -37.266 l-7.1094 0 l7.8906 22.266 z M42.9531 38.5937 l6.875 0 l8.125 -19.844 l-3.3594 -8.9063 z M85.8281 38.5937 l6.4844 0 l0 -19.922 l-6.4844 -9.1406 l0 29.063 z M111.76599999999999 1.4059999999999988 l0 25.703 l-18.359 -25.703 l-7.0313 0 l26.406 37.188 l5.3906 0 l0 -37.188 l-6.4063 0 z M155.813 27.344 c-0.98961 2.3959 -2.3438 4.375 -4.0625 5.9375 c-1.7709 1.6666 -3.8542 2.9688 -6.2501 3.9063 s-5.0781 1.4063 -8.0469 1.4063 l-8.6719 0 l0 -5.9375 l8.5938 0 c1.9791 0 3.776 -0.3125 5.3906 -0.9375 c1.5625 -0.625 2.9166 -1.5104 4.0625 -2.6563 s2.0313 -2.5 2.6563 -4.0625 s0.9375 -3.2813 0.9375 -5.1563 c0 -1.8229 -0.3125 -3.5156 -0.9375 -5.0781 c-0.625 -1.6146 -1.5104 -2.9427 -2.6563 -3.9844 c-1.0416 -1.0938 -2.3958 -1.9791 -4.0624 -2.6563 c-1.6666 -0.625 -3.4635 -0.9375 -5.3906 -0.9375 l-8.5938 0 l0 -5.9375 l8.6719 0 c2.7604 0 5.4166 0.49477 7.9688 1.4844 c2.3959 0.88539 4.5052 2.2135 6.3281 3.9844 c1.7709 1.6146 3.125 3.5938 4.0625 5.9375 c0.98961 2.3959 1.4844 4.8438 1.4844 7.3438 c0 2.7084 -0.49477 5.1563 -1.4844 7.3438 z M170.0938 1.4059999999999988 l27.813 0 l0 5.9375 l-27.813 0 l0 -5.9375 z M170.0938 32.6562 l27.734 0 l0 5.9375 l-27.734 0 l0 -5.9375 z M170.0938 16.875 l25.078 0 l0 5.8594 l-25.078 0 l0 -5.8594 z M212.0313 1.4059999999999988 l6.4063 0 l0 31.25 l19.531 0 l0 5.9375 l-25.938 0 l0 -37.188 z M269.281 16.875 l0 -15.547 l-6.5625 0 l0 37.344 l6.5625 0 l0 -21.797 z M304.344 32.6562 c-0.78125 -0.15625 -1.5105 -0.3907 -2.1876 -0.7032 c-1.4584 -0.67711 -2.7344 -1.6146 -3.8281 -2.8125 c-1.0416 -1.0938 -1.875 -2.4479 -2.5 -4.0625 c-0.57289 -1.6146 -0.85938 -3.2552 -0.85938 -4.9219 l0 -0.15625 l0 -0.23438 c0 -1.7188 0.28648 -3.3854 0.85938 -5 c0.67711 -1.6666 1.5105 -2.9948 2.5001 -3.9844 c1.0416 -1.1979 2.2916 -2.1094 3.75 -2.7344 c0.88539 -0.41664 1.6406 -0.67703 2.2656 -0.78117 l0 -5.8594 c-1.8229 0.26039 -3.4375 0.70313 -4.8438 1.3281 c-2.2916 0.98961 -4.2448 2.3177 -5.8594 3.9844 s-2.8906 3.6458 -3.8281 5.9374 s-1.4063 4.6875 -1.4063 7.1875 l0 0.15625 l0 0.23438 c0 2.5521 0.46875 4.948 1.4063 7.1876 c0.83336 2.2396 2.0834 4.1927 3.75 5.8594 c1.6666 1.7188 3.6198 3.0469 5.8594 3.9844 c1.4063 0.625 3.0469 1.0677 4.9219 1.3281 l0 -5.9375 z M325.594 20 l0.000076294 -0.23438 c0 -2.5521 -0.46875 -4.948 -1.4063 -7.1876 c-0.9375 -2.2916 -2.2135 -4.2708 -3.8281 -5.9374 c-1.5625 -1.6666 -3.4896 -2.9688 -5.7813 -3.9063 c-1.3021 -0.625 -2.8906 -1.0677 -4.7656 -1.3281 l0 5.9375 l0.9375 0.3125 c0.46875 0.15625 0.83336 0.28648 1.0938 0.39063 c1.4584 0.67711 2.7344 1.6146 3.8281 2.8125 c1.0416 1.0938 1.875 2.4479 2.5 4.0625 c0.57289 1.6146 0.85938 3.2552 0.85938 4.9219 l0 0.15625 l0 0.23438 c0 1.7188 -0.28648 3.3854 -0.85938 5 c-0.67711 1.6666 -1.5105 2.9948 -2.5001 3.9844 c-1.0416 1.1979 -2.2916 2.1094 -3.75 2.7344 c-0.67711 0.3125 -1.3802 0.54688 -2.1094 0.70313 l0 5.9375 c1.5625 -0.20836 3.125 -0.65109 4.6875 -1.3282 c2.1354 -0.88539 4.0885 -2.2135 5.8594 -3.9844 c1.7188 -1.8229 2.9948 -3.802 3.8281 -5.9374 c0.9375 -2.2916 1.4063 -4.6875 1.4063 -7.1875 l0 -0.15625 z M331.8281 38.5937 l6.4844 0 l0 -19.922 l-6.4844 -9.1406 l0 29.063 z M357.766 1.4059999999999988 l0 25.703 l-18.359 -25.703 l-7.0313 0 l26.406 37.188 l5.3906 0 l0 -37.188 l-6.4063 0 z"
       id="path147" />
  </g>
</svg>
