<svg width="432.3411971855615" height="470" viewBox="0 0 489.06249999999994 531.661975533051" class="css-1j8o68f"><defs id="SvgjsDefs4238"></defs><g id="SvgjsG4239" featurekey="rootContainer" transform="matrix(4.7713418185604795,0,0,4.7713418185604795,-9.59830202915765e-7,41.045731622068196)" fill="#ffffff"><path xmlns="http://www.w3.org/2000/svg" d="M23.3 83.5zm55.3-37.8h.3-.3zm23.5 7.9a15.2 15.2 0 0 0-.6-1.9V51c.2-.3.4-.5.4-1.6s0-1.6-.1-2.4-.1-1.7-.2-2.6l-.7-.8a49.6 49.6 0 0 0-7.7-19.9h-.4a2.6 2.6 0 0 0-.3-.7h.2l-1-1.4a40.3 40.3 0 0 0-4.3-5.9 28.9 28.9 0 0 0-6.5-5.5 58.5 58.5 0 0 0-6.7-3.6L72 5.5 71 5A52.6 52.6 0 0 0 58.3.6L57 .3 55.6.2H48a51.1 51.1 0 0 0-17.6 3.6l-.6.3A76.9 76.9 0 0 0 22 8.4a37.7 37.7 0 0 0-5.6 4.4 54.5 54.5 0 0 0-4.9 5.5 68.2 68.2 0 0 0-4.1 6 38.7 38.7 0 0 0-3.1 6.5l-.6 1.3a40.8 40.8 0 0 0-2.9 9.7 60 60 0 0 0-.7 6.3c0 .7 0 1.3-.1 1.9v5.9c.1 1.1.2 2.1.3 3.2s.3 2.1.6 3.2a64.4 64.4 0 0 0 2.4 7.4 46.2 46.2 0 0 0 3 6.3 39.5 39.5 0 0 0 4 6.1l1.4 1.6A52.7 52.7 0 0 0 25.4 95l1.5.9 1.4.8a26.9 26.9 0 0 0 7.7 3.7 50.5 50.5 0 0 0 6.6 1.7l3.4.5 3.4.2a40.9 40.9 0 0 0 10.1-.9l2.8-.7 2.9-.7a36.5 36.5 0 0 0 4.9-1.6l1.4-.6 1.4-.7 2.7-1.4a54.9 54.9 0 0 0 9.7-6.5c2.2-1.9 4.3-4.2 6.3-6.3l.9-1.1c1.2-2.1 2.7-4 4-6.1l.6-.8c1.6-3.2 2.8-6.6 4.2-9.8l.2-.7a53.4 53.4 0 0 0 .9-6.1c.1-1 .1-2 .1-2.9a17.6 17.6 0 0 0-.4-2.3zm-14-29.3a.4.4 0 0 1 .3.4.4.4 0 0 1-.4.4l-.3-.2v-.2a.4.4 0 0 1 .2-.3zm0 51H88l-.3.2a.4.4 0 0 1-.3-.3.6.6 0 0 1 .2-.5h.1l.2-.2h.3c.1.5 0 .7 0 .8zM87.9 44a.7.7 0 0 1-.6.3l-.2-.2a.4.4 0 0 1 .4-.5h.2zm-.3 25.7h.2a.4.4 0 0 1 .4.3.5.5 0 0 1-.1.5h-.2a.4.4 0 0 1-.4-.3.5.5 0 0 1 .1-.5zm1.1-4.2c0-.3.3-.3.3-.3h.3c.3 0 .3.3.3.4l-.2.3h-.5zm.9 13.6h-.4a.5.5 0 0 1-.1-.4l.4-.2h.1c.3 0 .3.3.3.4zm.1-24.4h-.2l-.2-.2a.5.5 0 0 1 .1-.4.6.6 0 0 1 .6-.2l.2.4a.5.5 0 0 1-.5.3zm2.2-30.3h-.3l-.4-.2a.4.4 0 0 1 0-.4h.5l.2.2a.3.3 0 0 1 0 .3zm.2 1.4a.5.5 0 0 1-.1.3l-.2.3a.4.4 0 0 1-.4-.5.5.5 0 0 1 .6-.4zm-.6 10.4v.4h-.1a.8.8 0 0 1-.6.3h-.6a.4.4 0 0 1-.1-.5.7.7 0 0 1 .5-.5h.1a.7.7 0 0 1 .8.2zm-.9 22.4l.5.2a.4.4 0 0 1 0 .4h-.9v-.3a.4.4 0 0 1 .4-.4zm.5-.7a.5.5 0 0 1 .1-.3l.3-.2a.7.7 0 0 1 .4.8h-.6zm.1.8l.3-.2c.3 0 .4.3.4.4a.4.4 0 0 1-.4.4h-.2a.6.6 0 0 1-.1-.7zm.6 11.7h.2a.7.7 0 0 1 .3.6l-.3.2a.6.6 0 0 1-.5-.4.4.4 0 0 1 .3-.5zm.1-28.4h-.3v-.3a.6.6 0 0 1 .8-.4l.2.4h-.1c-.2.1-.4.3-.6.3zm.4-11H92l-.2-.2a.5.5 0 0 1 .1-.5l.3-.3c.5 0 .4.5.4.7zM82.1 53.9a.5.5 0 0 1-.4-.2h-.1l-.2-.3a.4.4 0 0 1 .7 0 .6.6 0 0 1 .1.5zm3.5-34.1c0 .1-.2.3-.5.3h-.5l-.3-.3a.8.8 0 0 1 .9-.6h.1v.2zm-.7 4.3a.5.5 0 0 1 .1.4h-.3a.4.4 0 0 1-.3-.2h.1l-.2-.3c0-.2.4-.2.6.1zm-.6 19a.5.5 0 0 1-.1.4l-.4.2h-.1l-.2-.4a.6.6 0 0 1 .6-.4zM83.5 81v.2l-.3.2H83l-.2-.3v-.2l.3-.2h.2zm-.3-12.6h-.3l-.2-.2V68l.2-.2h.5a.4.4 0 0 1 .1.3zm.9-15.3l-.2-.3a.4.4 0 0 1 .4-.3l.6.3h.1v.3a.4.4 0 0 1-.4.3l-.5-.2zm1 29h.4v.4a.4.4 0 0 1-.4.4H85l-.2-.2a.5.5 0 0 1 .2-.6zm.5-3.9a.5.5 0 0 1 .1-.5l.4-.3.2.2.3.2a.5.5 0 0 1-.1.4l-.4.2H86zm.8-25.3l-.4.2h-.1l-.2-.2a.5.5 0 0 1 .4-.5l.2-.2h.3l.2.2v.3l-.2.2h-.2zM86 31.6l.2-.3h.4a.5.5 0 0 1 .1.4l-.4.2h-.1c-.3 0-.3-.3-.3-.4zm-3.8-18l-.2.2h-.3l-.2-.2a.4.4 0 0 1 .1-.4h.1zM80 44.3s-.3-.3-.2-.5l.2-.2.3.2c.3 0 .4.2.4.3s-.1.3-.4.3H80zm.1 19.3v.2c-.5.1-.2-.6 0-.3zm-15 30.3H65a.4.4 0 0 1 .6.1.6.6 0 0 1-.1.6h-.2c-.3 0-.3-.3-.3-.4h.1zm-1.8-4.5c.1-.1.1-.2 0-.2h.1V89c.2 0 .4.2.4.5a.4.4 0 0 1-.1.3h-.2v-.2zm-2.5-70.5l-.2-.2v-.2l.2-.2a.5.5 0 0 1 .5.1.4.4 0 0 1 .1.3l-.2.2zm-.1.8v-.3c.3-.1.3.5 0 .4zm-.9 52.5a.2.2 0 0 1 0-.2h.1a.3.3 0 0 0 0-.2v-.3h.3a.5.5 0 0 1 .1.4.5.5 0 0 1-.5.5v-.2zm-.2-2.2l-.4-.2a.5.5 0 0 1-.1-.4l-.2-.3v-.2l.3-.2h.2l.2.3h.2a.5.5 0 0 1 .1.4l-.2.2zm0 4.3h-.4l-.2-.2a.4.4 0 0 1 .1-.4l.3-.2.3.3a.5.5 0 0 1-.2.5zm-2.3 13.2c0-.2.1-.4.6-.4h.1l.2.2a.5.5 0 0 1-.2.6l-.2.2h-.1a.4.4 0 0 1-.4-.3h.1zm-2.2-42.8c0 .3-.2.3-.3.3h-.3l-.3-.2a.9.9 0 0 1 .1-.5v-.2h-.1l-.2-.2a2.5 2.5 0 0 1 .5-1.3h.4a1.8 1.8 0 0 1-.1 1 1.3 1.3 0 0 0 .3 1.1zm-.8 38.5l-.2.3a.6.6 0 0 1-.6-.6v-.2h.2l.2-.2h.2a.6.6 0 0 1 .1.5.8.8 0 0 0 .1.2zm0 5.5l-.2.3-.3.2c-.3-.1-.3-.4-.3-.5a.7.7 0 0 0 0-.1l.2-.3h.2l.2.3h.1zm-2-22.3c.1-.1.1-.2 0-.2h.1V66c.2 0 .4.2.4.5a.4.4 0 0 1-.1.3h-.2v-.2zm.3-1h-.3l-.2-.2v-.3l.2-.2h.4a.5.5 0 0 1 .1.4zM52.5 25h-.1l-.2-.2a.5.5 0 0 1 .1-.3l.3-.3.3.2.2.3a.5.5 0 0 1-.6.4zm.3-1.2l-.3.2a.7.7 0 0 1-.4-.8l.2-.2h.3l.2.2zM52 97.3l.2-.2h.1a.5.5 0 0 1 .6.1h.1a.5.5 0 0 1-.1.4l-.4.2-.4-.2a.5.5 0 0 1 0-.2zm-9.2-53.6h-.3a.7.7 0 0 1 .2.4l.3.2a.5.5 0 0 1-.1.4h-.4l-.2-.4-.3-.2-.2-.3a.4.4 0 0 1 .4-.2h.1a.4.4 0 0 1 0-.3h.1l-.2-.3c-.2 0-.6-.1-.5-.6l.2-.2a.6.6 0 0 1 .6.2.5.5 0 0 1 .1.4h.1a.4.4 0 0 1 .4.3c0 .2-.2.4-.3.6zm.1 8.7h-.4a.6.6 0 0 1-.4-.6l.2-.2h.4l.2.2a.6.6 0 0 1 0 .6zm-2.4 34.2c0-.3.3-.3.4-.3h.1l.3.2v.3l-.2.2H41a.4.4 0 0 1-.3-.2h.1zm-2.7-23l-.3.3c-.1 0-.5-.1-.4-.7l.2-.2h.4a.5.5 0 0 1 .1.4.8.8 0 0 0 .1.2zm-2.5 30.1a.5.5 0 0 1 .1-.4.4.4 0 0 1 .4-.1l.2.3h-.1a.4.4 0 0 1 .3.5l-.2.2a.4.4 0 0 1-.4-.2l-.3-.3zM16.7 19.6h-.4l-.2-.2a.3.3 0 0 1 .3-.3h.4l.2.2a.3.3 0 0 1-.3.3zm.7.3h.1l.2.3a.5.5 0 0 1-.5.3h-.3a.5.5 0 0 1-.1-.4l.2-.2zm-.7 14.4a.4.4 0 0 1 0 .4h-.4l-.2-.3H16a.3.3 0 0 1 .1-.3.5.5 0 0 1 .6.2zM16 79.5l.2-.2h.3l.2.2v.3l-.2.2h-.3l-.2-.2zm.7-.7c-.3-.1-.3-.4-.3-.5a.7.7 0 0 0 0-.1l.3-.3a.4.4 0 0 1 .4.3.5.5 0 0 1-.1.5zm0-4.8h-.2v-.2c0-.2.1-.4.3-.4l.3-.2a.4.4 0 0 1 .3.4.6.6 0 0 1-.7.4zm.3-37.8h-.3V36c0-.1.1-.3.4-.3h.3l.2.4a.5.5 0 0 1-.6.1zm.4-10H17l-.2-.4a.7.7 0 0 1-.2-.6h.2l.2-.2h.3l.2.3c0 .2.1.3.4.4l.2.3a.4.4 0 0 1-.4.4h-.4zM33.3 40c.1-.4.5-.4.7-.1a.4.4 0 0 1 0 .4h-.5l-.2-.4zm0-15.6l-.2-.3v-.2l.3-.2h.2l.2.3v.2l-.3.2zm1.2 23.8h.2a.6.6 0 0 1 .1.5.2.2 0 0 0 0 .2l-.2.3a.9.9 0 0 1-.7-.7v-.2a.5.5 0 0 1-.2-.4l.2-.3h.4l.2.3zm.2 10.2l-.4.2a.5.5 0 0 1-.4-.2.5.5 0 0 1 0-.5h.4c.3 0 .4.2.4.3a.4.4 0 0 1 0 .1zm-.3 11.2a.5.5 0 0 1 .1.4h-.1l-.4.2a.5.5 0 0 1-.4-.3h-.1l-.2-.4a.7.7 0 0 1 1.1 0zm.1-7.4h-.2l-.2-.2a.4.4 0 0 1 .1-.3.5.5 0 0 1 .4-.2h.4l.3.2v.3a.8.8 0 0 1-.8.1zm.5-21.6h-.2v-.2a.4.4 0 0 0 0-.2.6.6 0 0 1-.1-.3h.2a.4.4 0 0 1 0-.2l.2-.2H35a.4.4 0 0 1 .4.2v.2a.3.3 0 0 1 .4.2.5.5 0 0 1 0 .5H35zm-.2-25.1l.3-.2a.7.7 0 0 1 .3.6l-.2.2h-.4a.5.5 0 0 1-.1-.4zm.8 3.8l.2.2a.3.3 0 0 1-.1.3h-.3l-.4-.2a.4.4 0 0 1 0-.4h.5zM35.2 56l.2-.2h.4l.2.4a.6.6 0 0 1-.6.4h-.1l-.2-.2zm-3.8-41.3a.3.3 0 0 1-.2-.3.6.6 0 0 1 .5-.5.4.4 0 0 1 .3.2.4.4 0 0 1-.1.3l-.3.2zm.4 27.8l.3-.2h.2l.2.3v.2l-.3.2H32l-.2-.3zm-9 41.2c0-.2.1-.3.1-.4a.6.6 0 0 1 0-.4l.3-.2c.3.1.6.3.6.6a.5.5 0 0 1-.1.5h-.4c0 .3-.2.4-.4.4v-.3zm-2.2-26.1l.3.2.2.3a.5.5 0 0 1-.5.4l-.4-.2a.5.5 0 0 1-.1-.4l.3-.2h-.1zm.7-34a.4.4 0 0 1-.4.3l-.4-.2a.4.4 0 0 1 0-.4h.5l.2.2a.4.4 0 0 1 0 .1zm-.6 2.9h.1a.5.5 0 0 1 .4.5l-.4.2h-.1c-.1 0-.3-.1-.3-.3l.3-.3zm.7 23.8v.3l-.2.3-.3.2a.3.3 0 0 1-.3-.4.5.5 0 0 1 .8-.4zm-.9 30.1h.6l.3.2a.4.4 0 0 1-.1.3l-.4.2h-.3a.4.4 0 0 1-.2-.7zm.8-1.7v-.2l.3-.2h.1l.3.2v.2a.4.4 0 0 1-.4.4h-.2zm.4-20.9h-.1l-.2-.2a.7.7 0 0 1 .1-.5.5.5 0 0 1 .5-.1l.2.3c-.1.2-.2.6-.6.6zM22 30h-.5v-.4h.2l.2-.3h.4a.4.4 0 0 1 .5.2.6.6 0 0 1 .1.6l-.2.2H22zm.7-13.1a.6.6 0 0 1 .7-.4v.3a.5.5 0 0 1-.3.4H23l-.3.2a.4.4 0 0 1 0-.6zm1 6v.1l-.3.2h-.2l-.2-.3v-.2l.3-.2h.2zm.1 64.2l.3-.2a.4.4 0 0 1 .3.4.5.5 0 0 1-.4.4l-.3-.2v-.2a.4.4 0 0 1 .1-.2zm.4-51.1l-.2.3h-.5a.4.4 0 0 1-.1-.5.2.2 0 0 0 0-.1l.2-.3h.1v-.3a.7.7 0 0 1 .6-.3l.3.2v.3l-.2.2h-.3a1 1 0 0 1 .1.5zm1-9.6h.2v-.2h.3v.2a.3.3 0 0 1-.3.4v-.2zm0 3.9c0 .1-.1.2-.1.2l-.3.3-.3-.2a.5.5 0 0 1 0-.4.5.5 0 0 0 0-.2l.2-.3a.4.4 0 0 1 .4.2.4.4 0 0 1 .1.4zm-.1-9.6h-.3l-.2-.2a.3.3 0 0 1 0-.1h-.1v-.3a.3.3 0 0 1 .3-.2l.6.3a.5.5 0 0 1 .1.4zm.1 20.1v-.3h-.1l-.2-.2a1.3 1.3 0 0 1 0-.6h-.1l-.2-.3-.3-.3v-.2a.3.3 0 0 0 .1-.3l.3-.3a.9.9 0 0 1 .5.6h.4l.2.3a.4.4 0 0 1-.4.3h.3c.1 0 .3 0 .4.2h.1v.4a.2.2 0 0 0 0 .2h.1l.2.4a.4.4 0 0 1-.3.2l-.4-.2h.2l-.2.3h-.2a.5.5 0 0 1-.4-.2zm0 6.9a.5.5 0 0 1-.5.4h-.1l-.2-.2a.4.4 0 0 1 0-.4.4.4 0 0 1 .3-.1h.3zm3.4-37h-.8l-.3-.2v-.2c0-.3.3-.5.6-.5l.5.2a.5.5 0 0 1 .1.7zm0 13.5h.2a.4.4 0 0 1 .4.3.5.5 0 0 1-.1.5H29a.4.4 0 0 1-.4-.3.5.5 0 0 1 .1-.5zm-.8 50h-.3l-.2-.2v-.2l.4-.2h.1c.1 0 .3.1.3.3l-.3.3zm-.7-14.6l-.2-.2v-.2l.2-.2a.5.5 0 0 1 .5.1.4.4 0 0 1 .1.3l-.2.2zm.5-35.7H27v-.4l.2-.2.2-.3a.8.8 0 0 1 .6.2v.3a.5.5 0 0 1-.3.4zm0-8.3a.4.4 0 0 1-.2.3l-.2.2c-.3 0-.3-.3-.3-.4l.4-.2h.2zm-.8 16.9l.3-.2h.2l.2.3v.2l-.3.2H27l-.2-.3zm-.1 2l.2.3c0 .2-.1.5-.5.5h-.1l-.2-.2v-.4l.2-.2zm.2 41.5a.4.4 0 0 1 .4-.3.4.4 0 0 1 .4.2.3.3 0 0 1 0 .3l-.3.2-.3-.2a.4.4 0 0 1-.2-.2zm1.1 5.8a.4.4 0 0 1 0 .4h-.3l-.3-.2-.2-.3c.2-.2.6-.1.8.1zm-.1-2.6V79l.2-.2a.5.5 0 0 1 .5.1.4.4 0 0 1 .1.3l-.2.2h-.3zm.8-6.6a.5.5 0 0 1 .1-.5h.2c.3.1.3.4.3.5l-.3.3a.4.4 0 0 1-.3-.3zm.4-21.5l.2-.2h.4l.2.2a1.4 1.4 0 0 0 0 .3.6.6 0 0 1-.2.6h-.4a.9.9 0 0 1-.2-.9zm1.3-3.2c-.1 0-.1 0-.1-.4h.1V47c.3 0 .5.3.5.7a.7.7 0 0 1-.1.3l-.4.2v-.3zm-.2-26.2c-.1-.2 0-.4.1-.6h.2l.3.2a.6.6 0 0 1-.1.6l-.2.2zm0 28.4l.2.2a.3.3 0 0 1-.1.3H30l-.4-.2a.4.4 0 0 1 0-.4h.5zm0 5l.2.2a.5.5 0 0 1-.1.4.6.6 0 0 1-.5.2h-.2l-.2-.3a.7.7 0 0 1 .8-.4zm-.6 12.7l.2-.2h.3l.2.2v.3l-.2.2h-.3l-.2-.2zm.9 1.3h.2l.3.2v.4l-.2.2-.5-.2a.7.7 0 0 1-.2-.6zm0 1.5l.3-.2h.2l.2.3v.2l-.3.2h-.2l-.2-.3zm.4-40.6h-.4l-.2-.3c.1-.2.2-.3.3-.3l.3.2.2.3a.3.3 0 0 1-.2.2zm-11.7-1.1h.1l.3.2a.6.6 0 0 1-.1.5.8.8 0 0 1-.6.2l-.2-.2c-.2-.6.3-.7.5-.7zm-.3-8c0-.3.3-.3.4-.3h.1l.3.2v.3l-.3.2-.3-.2zm-.2 29.9h.5a.4.4 0 0 1 .3.2h-.1l.2.3a.4.4 0 0 1-.4.3l-.4-.2a.4.4 0 0 1-.1-.6zm.6 25.2h.2a.4.4 0 0 1 .4.3h-.1l.2.3a.4.4 0 0 1-.4.2.5.5 0 0 1-.5-.4.4.4 0 0 1 .2-.5zm-.2 9.6h.2a.3.3 0 0 1 .3.3.4.4 0 0 1 .1.4h-.3l-.5-.5a.4.4 0 0 1 .2-.3zm.8 1.1a.6.6 0 0 1 .5.3zm15.3-11h.1v-.3a.5.5 0 1 1 0 .9V76h-.1zm1-14.8v-.4a.6.6 0 0 1 .6-.2h.1l.4.2a.6.6 0 0 1-.7.6h-.2zm1.6-15.4h-.1l-.2-.2a.5.5 0 0 1 .1-.5h.1l.3-.2.3.2a.5.5 0 0 1 0 .4l-.2.2zm.2-11.2h-.2a.7.7 0 0 1-.1-.4v-.2a.5.5 0 0 1 .6-.1h.1l.3.3a.8.8 0 0 1-.7.4zm.6 2.4a.3.3 0 0 1-.1.3h-.3a.5.5 0 0 1-.4-.4.3.3 0 0 1 .1-.3h.2a.6.6 0 0 1 .5.5zm-.3 18.8h.1l.3-.2a.5.5 0 0 1 .2.5.6.6 0 0 1-.5.5h-.2l-.2-.2a.5.5 0 0 1 .3-.5zm1.6 4.7l-.3.2-.3-.2a.4.4 0 0 1-.1-.3.4.4 0 0 1 .4-.3.4.4 0 0 1 .4.2.3.3 0 0 1-.1.5zm.2 2.1v.2l-.3.2h-.2l-.2-.3v-.2l.3-.2h.2zm-.7-48.5l-.3.2-.3-.2a.4.4 0 0 1 .3-.6.4.4 0 0 1 .4.2.3.3 0 0 1 0 .5zm-.9 55.9v-.4l.3-.2c.4.1.7.4.7.9v.2h-.9v-.7zm.9 10.9h.3a.5.5 0 0 1 .3.7l-.3.2a.6.6 0 0 1-.3-.5.5.5 0 0 1 0-.4zm.4-17.2a.4.4 0 0 1 .1-.4l.3-.2.3.3a.5.5 0 0 1-.1.4H40zm1.7-16.7v.3H41a.4.4 0 0 1-.1-.3h.2l-.3-.3c0-.3.3-.3.4-.3h.1l.3.2zm.1 24.6v.2l-.3.2h-.2l-.2-.3v-.2l.3-.2h.2zm-.9-57.2v-1h.1V13h.3a.6.6 0 0 1 .2.4.6.6 0 0 1-.5.8zm.3 74.8c.1-.2.2-.2.3-.2l.3.2.3.2a.3.3 0 0 1-.1.3h-.6l-.3-.3a.3.3 0 0 1 .1-.2zm.4-43.7h-.1c-.1 0-.3-.1-.3-.3l.3-.3h.1a.5.5 0 0 1 .4.5zm.6-16.4v-.2l.3-.2a.5.5 0 0 1 .4.5l-.2.2h-.4zm2.1-7.3h.4a.5.5 0 0 1 .1.4l-.2.2H44a.5.5 0 0 1-.1-.4zm-.2-2.3h-.2l-.2-.3v-.2l.3-.2h.2l.2.3v.2zm-.8 38.6h.1l.5-.2h.1l.2.2v.3l-.3.2h-.2a.4.4 0 0 1-.4-.5zm.7-11.6a.5.5 0 0 1-.5-.5v-.2a.8.8 0 0 1 1 0v.2a.6.6 0 0 1-.5.6zm.4-2.3h-.1a.5.5 0 0 1-.3-.5l.2-.2h.1c.4 0 .5.4.5.5zM44 32.2V32a1 1 0 0 1 .2-.8h.7l.2.2v.2a.6.6 0 0 1 .1.8h-.4zm1.8 57a.6.6 0 0 1-.1.5h-.5a.5.5 0 0 1-.3-.6l.2-.2h.4zm-.1-5.2l.3-.3.3.2a.4.4 0 0 1 0 .3l-.3.2c-.3-.1-.3-.4-.3-.5a1 1 0 0 0 0 .1zm.7-8.1v-.4h.1a.4.4 0 0 1 .4.3.9.9 0 0 1 .1.3c0 .4-.2.4-.3.4h-.4a.4.4 0 0 1 0-.3l.1-.3zm.3-2.4h.1a1 1 0 0 1 .9 0v.7l-.4.2a1 1 0 0 1-.6-.3h-.1v-.3zm3.6 14.9h.3a.7.7 0 0 1 .4.5.5.5 0 0 1-.1.5h-.4c-.2-.2-.5-.6-.1-.9zm-.2-4.8l.3-.2a.5.5 0 0 1 .3.5.4.4 0 0 1-.4.4h-.2a.7.7 0 0 1 .1-.6zm.5-1.1h-.4a.5.5 0 0 1-.2-.4.6.6 0 0 1 .3-.5h.4a.4.4 0 0 1 .2.3.6.6 0 0 1-.2.7zm.2-13.1a.6.6 0 0 1-.5-.2.5.5 0 0 1-.1-.3v-.3c.1-.3.2-.4.4-.4h.4v.2l.2.2a.6.6 0 0 1 .1.4l-.3.2zm-.1-7.1c-.4-.1-.4-.4-.4-.5l.2-.2a.5.5 0 0 1 .5.1.5.5 0 0 1 .1.5h-.4zm.5-16.6l-.5.2a.6.6 0 0 1-.6-.5l.3-.3h.7l.2.2a.6.6 0 0 1-.1.5zm-1 27a.4.4 0 0 1 .3.5.5.5 0 0 1-.4.4h-.2v-.4h.1s0-.1.1-.3zm-.3-47.5h-.2c-.4 0-.5-.4-.5-.6l.2-.3a.6.6 0 0 1 .6.6zm-3.1 57a.5.5 0 0 1-.2-.6l.3-.2h.8l.2.2a.5.5 0 0 1-.3.6h-.1l-.3.2H47l-.2-.3zm.3 1.9a.5.5 0 0 1 .5.2l.3.4h.2a.4.4 0 0 1 .4.4.5.5 0 0 1-.5.4h-.2v-.3h-.1a.7.7 0 0 1-.6-.8zm2.1-34.6c0 .1-.1.3-.3.3s-.3-.2-.3-.3h.1l-.2-.4a.4.4 0 0 1 .3-.2c.3 0 .3.3.4.4h-.1zm-.1 22.3l-.3.2a.7.7 0 0 1-.3-.6l.3-.3c.1.1.5.2.4.8zm-.5-8.3h.2l.2.4a.3.3 0 0 1-.3.2h-.2l-.2-.3v-.2zm-.3 32.7v-.3a.5.5 0 0 1 .5.1h-.2l.3-.2.2.2a.3.3 0 0 1-.1.3h-.1l-.2.4h-.4l-.2-.3zm.8-.9H49l-.2-.2v-.4l.2-.2h.2l.2.2v.4zm.1-87.8h-.3a.7.7 0 0 1-.6-.4.6.6 0 0 1 .1-.6h.3a1.2 1.2 0 0 1 .5.8zm-.8 41.2c0 .2-.1.6-.6.6h-.2a.4.4 0 0 1-.1-.5.3.3 0 0 0 0-.2l.2-.3h.5zM48 23.4h-.4l-.2-.2a.5.5 0 0 1 .1-.4l.3-.2.3.3a.4.4 0 0 1 0 .6zm0-10.7l-.3.2h-.1c-.2 0-.6-.1-.5-.6l.2-.2h.2a.4.4 0 0 1 .5.6zm2.1 84.8a.3.3 0 0 1-.4-.3c0-.2 0-.3.1-.4h.4l-.2-.3v-.2l.3-.2h.2l.2.3h-.1l.3.2v.2a1.2 1.2 0 0 1-.4.8h-.2a.4.4 0 0 1-.2 0zm.9-16a.4.4 0 0 1 0-.4h.7l.2.2a.3.3 0 0 1-.1.3l-.4.2zm5-47.2l.2-.2a.6.6 0 0 1 .5.1l.3.3a.5.5 0 0 1-.5.4l-.4-.2a.5.5 0 0 1-.1-.4zm-.1-23.7c-.1-.3.2-.6.3-.7h.3a.6.6 0 0 1 .4.3.5.5 0 0 1-.1.4v.2l-.3.2c-.4-.1-.6-.2-.6-.4zm-2.1 37.8l.2-.2a.4.4 0 0 1 .4.1.5.5 0 0 1 .1.4.6.6 0 0 0 0 .1l-.3.3c-.1 0-.4-.1-.4-.7zm-.1-16.3l-.2-.2-.2-.4a.7.7 0 0 1 .6-.3l.2.2a.6.6 0 0 1-.1.5zm.4-5.3h-.3l-.2-.3v-.2l.3-.2a.5.5 0 0 1 .4.5l-.2.2zm-1-7l.3-.2.2-.2a.6.6 0 0 1 .6.2h.1l.2.3a.5.5 0 0 1-.5.3h-.1a.4.4 0 0 1 0 .1.4.4 0 0 1-.5.3h-.1l-.2-.2zm.2 30.3a.4.4 0 0 1 .5.2.7.7 0 0 1-.2.6h-.2c-.3-.1-.3-.4-.3-.5a.9.9 0 0 0 0-.1zm.1 8.5h.5l.2.3a.4.4 0 0 1-.2.3l-.2.2c-.1 0-.3 0-.3-.3zm.7 22.7l-.2-.2a.6.6 0 0 1 .1-.5l.3-.2a.7.7 0 0 1 .3.6l-.2.3zm1.1-43.2l-.3.2h-.2l-.2-.3v-.2l.3-.2h.2l.2.3zm.6 3.6h.4l.2.2a1 1 0 0 1-.2.8h-.3l-.3-.3h-.1l-.3-.3c.1-.2.2-.4.5-.4zm.6 6.3a.5.5 0 0 1 .1.4l-.2.2h-.1a.7.7 0 0 1-.5-.3h-.1V48c-.1-.3.4-.3.7 0zm.4 2.9h.3l.3.2a.3.3 0 0 1-.3.3h-.4v-.3c-.3-.2-.1-.2-.1-.2zm.8 11.3v.4h-.2l-.4.2h-.3v-.2a.8.8 0 0 1 .7-.4zm.7-41.6c-.2-.2 0-.3 0-.5v-.2a.5.5 0 0 1 .5.5.4.4 0 0 1-.1.3h-.4v-.3zm.2 29.4l-.2-.2v-.2l.2-.2c.3-.1.5.1.5.5l-.3.3zm.4-36.7v.2l-.2.2h-.2l-.2-.2v-.3l.2-.2h.2l.2-.3.3-.2a.5.5 0 0 1 .4.3l.2.3a.4.4 0 0 1-.4.3h-.3zM60.2 42l-.4-.2h-.2l-.3-.3a.4.4 0 0 1 .4-.4l.7.3h.1v.3c.1 0 0 .3-.3.3zm-.6-7.3h.2l.3.2v.2a.4.4 0 0 1-.4.4h-.2v-.4l.3-.2zm14.5-23.5a.8.8 0 0 1 .1.3l-.3.2h-.6a.7.7 0 0 1-.1-.8.6.6 0 0 1 .5-.4h.1l.2.3a.3.3 0 0 0 .1.4zm1.4-2.4a.5.5 0 0 1 .4.5.5.5 0 0 1-.5.4H75v-.6l.3-.2zm.7 74.6l-.2.3h-1.7l-.2-.3.2-.3.2-.3h.9a.6.6 0 0 1 .6-.2l.2.2a.6.6 0 0 1-.1.5v.1zM73 71.1h-.3l-.2-.2v-.3l.2-.2h.5l.2.2h.3l.3.4h.3a.6.6 0 0 1-.2-.6h.2a.8.8 0 0 1-.2-.6.3.3 0 0 1 .3-.2h.2a.5.5 0 0 1 .1.4l.2.2a.4.4 0 0 1-.1.3.6.6 0 0 1 .2.6l-.3.2a.9.9 0 0 1 0 .6.5.5 0 0 1-.5.4h-.9a.6.6 0 0 1 0-.4zm.5-16.1l.3-.2c.1.1.4.2.4.4a.4.4 0 0 1-.1.4h-.3a.7.7 0 0 1-.3-.6zm1.4-17.9l-.3.2a.3.3 0 0 1-.2-.4.5.5 0 0 1 .5-.4.4.4 0 0 1 .4.2.4.4 0 0 1-.5.4zm.4 29.4l.2.2v.3l-.2.2H75l-.2-.2v-.3l.2-.2zm-1.8 19.7h.4l.2.2.3.3a.4.4 0 0 1-.4.4l-.3-.2a.6.6 0 0 1-.2-.7zm2-13.8l-.2-.2v-.4l.3-.2a.6.6 0 0 1 .4.6s-.1.2-.5.2zm.2-50h-.4l-.2-.3v-.2l.3-.2a.5.5 0 0 1 .4.5zm-.7-8.7l.2.2a.4.4 0 0 1-.1.4l-.2.2h-.2l-.2-.2V14l.2-.2zm-.1 5.3a.4.4 0 0 1 0 .4h-.4l-.2-.3h-.1a.3.3 0 0 1 .1-.3.5.5 0 0 1 .6.2zM74 30.5a.8.8 0 0 1 .2.6l-.3.2-.8-.4v-.3a.6.6 0 0 1 .8-.1zm-.7 21v.4l-.3.2a.7.7 0 0 1-.5-.2v-.2h-.1l-.3.2c-.3 0-.3-.3-.3-.4l.2-.3h.4l.2.2.2-.2h.2zm-.7-31l-.2.2a.6.6 0 0 1-.6-.4.5.5 0 0 1 .1-.6h.3a.7.7 0 0 1 .3.8zm-.3 19.8v.2c-.6.2-.3-.5-.1-.2zm-.3 7.8h.3l.2.2v.3l-.2.2h-.1a.4.4 0 0 1-.4-.2l-.2-.3c-.1.1 0-.1.3-.1zM71.8 68h.4v.4H72a.6.6 0 0 1-.5.3l-.3-.3a.4.4 0 0 0 0-.2l-.3-.2a.4.4 0 0 1 .4-.4zm-.7 8.6a.5.5 0 0 1 .1-.4h.4l.2.2a.4.4 0 0 1 0 .1v.2c0 .2-.2.3-.5.3v-.2.2h-.1zm.3 13.5l-.2.3h-.3l-.2-.4v-.2l.2-.2c.3 0 .4.1.4.5zM71.1 65a.5.5 0 0 1-.4.3l-.2-.2a.5.5 0 0 1 .1-.3l.2-.3h.2v.4zm-1.5 1.4h-.4l-.2-.2a.4.4 0 0 1 .1-.4l.3-.2.3.3a.5.5 0 0 1-.2.5zm0 6.3l-.3.2H69a.7.7 0 0 1 0-.7h.4a.6.6 0 0 1 .2.5zm-.4-25l-.3-.3a.4.4 0 0 1 .7-.3.5.5 0 0 1 .1.4l-.4.2zm.5 16.5V64l.2-.2h.2l.2.2a.4.4 0 0 1-.1.3.5.5 0 0 1-.4.2zM71 33.5l-.3.2h-.4l-.2-.3h-.2l-.4-.2a.4.4 0 0 1 0-.4h.2a.4.4 0 0 1 .5.2h-.1l.2.3h.2l.3-.2h.2l.2.2zm-.7-23.9h-.4c-.4-.1-.4-.4-.4-.5h.4c.4.1.5.3.4.5zm-.7 6.9a.6.6 0 0 1-.5.3l-.4-.2v-.2c.1-.3.3-.4.4-.4h.4zm-.7 35.1h.1l.3.3a.6.6 0 0 1-.2.4H69l-.3.2-.3-.2a.4.4 0 0 1 .1-.4zm-.7 24h-.1a.3.3 0 0 1 .1-.3.5.5 0 0 1 .7.1.4.4 0 0 1 0 .4h-.4l-.2-.3zm.2-6.4l-.2.2h-.3l-.2-.2V69l.2-.2a.5.5 0 0 1 .5.1.4.4 0 0 1 0 .3zm-.9-29.1h-.3a.7.7 0 0 1 0-.7h.2a.7.7 0 0 1 .7.2h.1v.3a.8.8 0 0 1-.7.2zm-.8 38.6h-.3l-.2-.2v-.2l.4-.2h.1c.1 0 .3.1.3.3l-.3.3zm-.6-15l-.3.2h-.2c-.1-.1-.1-.3 0-.7h.4a.7.7 0 0 1 .1.4zm.2 8l.2.2a.4.4 0 0 1-.4.5H66l-.3-.3c0-.4.3-.5.7-.5zm-.7-18.5l-.3.2h-.2L65 53v-.2l.3-.2h.2l.2.3zm-.1 27.2l.4-.2a.6.6 0 0 1 .4.6l-.2.2h-.3l-.2-.2zM66.8 69l-.3-.2-.2-.3c.1-.4.5-.4.7-.1a.4.4 0 0 1 0 .4zM68 28.3h-.4l-.2-.2v-.4l.2-.2h.2c.5 0 .5.4.5.6zm-.7-1.8l-.3.2h-.3l-.3-.4a.3.3 0 0 1 .3-.3l.6.3a.5.5 0 0 1 .1.4zm-.8 30.3l-.3.2a.6.6 0 0 1-.5-.4.4.4 0 0 1 .2-.4h.2c.2-.1.5 0 .5.6zm-2.4-18a.6.6 0 0 1 .2-.5h.1a.5.5 0 0 1 .6.3.6.6 0 0 1-.1.6h-.3l-.3.2-.4-.2V39a.5.5 0 0 1 .2-.2zm-.6-3.1a.5.5 0 0 1 .1-.4l.2-.2h.2l.2.2v.3l-.2.2h-.3zm1.3-5.6h-.2l-.2-.2a.4.4 0 0 1 .1-.4l.2-.2h.2l.2.2a.4.4 0 0 1-.1.4zm-1.5-6.4l-.4.2h-.1a1 1 0 0 1-.4.5H62a.3.3 0 0 1-.2-.4.8.8 0 0 1 .5-.6.5.5 0 0 1 .1-.3h.4c.3 0 .4.2.4.3a.4.4 0 0 1 .1.3zM62.4 55a.6.6 0 0 1-.5-.3.5.5 0 0 1 0-.5h.1a.5.5 0 0 1 .5.3l.2.3a.5.5 0 0 1-.3.2zm0 40.1H62l-.3-.2a.2.2 0 0 1 .1-.2.6.6 0 0 1 .1-.4h.4a.7.7 0 0 1 .1.8zm.4-21.8h.5l.2.2a.4.4 0 0 1-.4.4l-.4-.2a.5.5 0 0 1-.1-.4zm.9 14.1a.7.7 0 0 1-.1-.5l.2-.2h.3l.2.2v.4l-.2.2h-.5zm.6-36.9l.2-.2a.5.5 0 0 1 .5.4l.2.4-.4.2-.4-.2a.7.7 0 0 1-.1-.6zm.7 31.1c0-.3.3-.3.4-.3h.1l.3.2a.5.5 0 0 1-.1.4l-.4.2h-.1l-.2-.2a.3.3 0 0 1 0-.3zm12 7.8l-.2-.3a.5.5 0 0 1 .5-.3h.5l.2.2a.6.6 0 0 1-.1.4l-.2.2a.7.7 0 0 1-.5-.2zm.9-22.5h-.2l-.2-.3v-.2l.3-.2h.2l.2.3v.2zm1.5-31.3a.3.3 0 0 1-.2-.4c0-.2.3-.3.7-.4l.3.2v.3l-.3.2h-.1zm.6-21.1h-.3l-.2-.2a.4.4 0 0 1 .4-.4l.4.2a.5.5 0 0 1 .1.4v.2zm-.1 15.3a.4.4 0 0 1 .1.4l-.2.2h-.2a.5.5 0 0 1-.4-.2l-.2-.3a.4.4 0 0 1 .4-.3zm-.8 6l.2.2v.3l-.2.2h-.3l-.2-.2a.4.4 0 0 1 .1-.4l.2-.2zm-.6 10.1v-.3h.1v-.3a.4.4 0 0 1 .4.4.4.4 0 0 1-.1.3h-.3v-.3zm.7-3.6c-.3.4-.6-.2 0 0zm-.6 1.7v.5l-.2.2a.4.4 0 0 1-.4-.3.7.7 0 0 1 .1-.7h.5zm-.8 4.9h.1l.3-.3a.4.4 0 0 1 .3.3l.3.2c0 .4-.2.5-.4.5h-.1l-.3-.2a.3.3 0 0 1-.2-.2c-.3-.2-.1-.3 0-.4zm.4 40.1h.1a.5.5 0 0 1 .6.3.6.6 0 0 1-.1.6h-.2a.7.7 0 0 1-.4-.5.5.5 0 0 1 0-.4zm.6-5.6h-.2l-.2-.3h.1l-.3-.2a.4.4 0 0 1 0-.3l.2-.2a.4.4 0 0 1 .5.2.6.6 0 0 1 0 .4h.2l.2.3v.2zm.3-39.4c-.1-.2 0-.4.1-.6l.2-.2.3.2c.1.2 0 .4-.1.6l-.2.2zm1.5 32.8l.2-.2h.2l.2.2a.4.4 0 0 1-.1.3l-.4.2-.3-.3zm-39.2-73V4a.3.3 0 0 1-.3.2.4.4 0 0 1-.3-.2h.5zM17.6 17.1h.2a.4.4 0 0 1 .3.4.6.6 0 0 1-.2.4h-.3v-.2l-.2-.2zm-2.8 8.6c.3.1.4.2.4.4a.4.4 0 0 1-.4.4l-.4-.2V26a.4.4 0 0 1 .2-.3zm-.8.3a.4.4 0 0 1-.4.4h-.2a.6.6 0 0 1-.1-.5l.3-.2c.4-.1.5.1.5.3zm-2.3 40.1l-.2-.2-.3-.3a.4.4 0 0 1 .4-.3h.7a.4.4 0 0 1 0 .4.4.4 0 0 1-.3.1zM10 61.6l-.2.2h-.4l-.2-.2v-.2l.2-.2a.5.5 0 0 1 .5.1.4.4 0 0 1 .1.3zm-1.9 5.5a.8.8 0 0 1 .8-.5l.3.2a.6.6 0 0 1-.2.5h-.1l-.2.3h-.1a.4.4 0 0 1-.4-.3h.1zM5.2 41.3a.4.4 0 0 1-.2.4v-.5zm-.8 16.1h-.1v-.6l.2.2zm1.5-6.9c.3-.1.5.1.5.5l-.3.3h-.2l-.3-.3v-.2zm-.7 12.1a.4.4 0 0 1 .4-.3.4.4 0 0 1 .4.4.4.4 0 0 1-.3.4c-.2 0-.4-.2-.4-.2a.3.3 0 0 1-.1-.3zm.4-4.5a.6.6 0 0 1 .1-.6H6a.6.6 0 0 1 .4.4.6.6 0 0 1-.2.5h-.1a.4.4 0 0 1-.4-.3zm.9-1.1H6l-.2-.4a1.8 1.8 0 0 1-.1-.3l.2-.2H6c.1 0 .3 0 .3.3h.1a.5.5 0 0 1 .3.6zm0-3.1h-.7l-.2-.3a.6.6 0 0 1 .6-.5l.4.2a.6.6 0 0 1 .1.5zm0-4.7l-.6-.2a.4.4 0 0 1-.1-.4v-.2a.5.5 0 0 1 .7.1h.1v.5a.5.5 0 0 1-.1.2zm.4 6h.4v.4a.4.4 0 0 1-.4.4H7l-.2-.2a.5.5 0 0 1 .1-.6zm.5-1.3h-.2l-.2-.4v-.2l.3-.2h.2l.2.3v.2zm.9-13.1h-.1l.3.3c-.1.2-.2.3-.3.3l-.3-.2-.2-.3c0-.1.1-.3.3-.3a.3.3 0 0 1 .3.2zm0-8.5a.4.4 0 0 1 .4-.4l.4.2a.5.5 0 0 1 .1.4l-.2.2h-.6zm-.4 1.4h-.3a.6.6 0 0 1-.1-.5l.3-.2c.3 0 .4.3.4.4a.4.4 0 0 1-.4.3zM7.8 51l-.2-.3c0-.3.3-.3.4-.3l.3.2v.4l-.3.2zm2.4-1.8l.3-.2h.2l.2.3v.2l-.3.2h-.2l-.2-.3zm2.4-20.5v.3c-.1.3-.2.3-.3.3H12l-.3-.2a.3.3 0 0 1 .3-.3zm-.1-2.9v.2c-.6.2-.3-.5-.1-.1zm-.3 7.5a.5.5 0 0 1 .1.4l-.3.3h-.4a.5.5 0 0 1-.1-.4l.2-.2h.4zm-.3 19.3v-.3c.2 0 .2.6-.1.4zm0 7.5h.1l.2.3v.2l-.3.2h-.2l-.2-.3v-.2zm.1-20c0-.5.4-.6.6-.6h.2l.3.2a.6.6 0 0 1-.1.3l-.2.3h-.5zm1-15.3h-.4a.9.9 0 0 1 .2.4.4.4 0 0 1-.2.5h-.4a.5.5 0 0 1-.1-.4h.1L12 25a.4.4 0 0 1 .3-.2h.1c.1-.3.2-.4.4-.4h.4v.2c.1.1-.1.2-.2.2zm-1.2-.5h.1v.2h-.1v.3h-.2zm.4 23.5v-.2l.3-.2a.5.5 0 0 1 .4.5l-.2.2h-.4zm.1 25.3l.2-.2h.5l.2.3a.5.5 0 0 1-.5.4h-.1l-.2-.2zm.5-19.2h-.1l-.2-.2a.5.5 0 0 1 .1-.4.5.5 0 0 1 .7 0v.2a.5.5 0 0 1-.4.4zm.3-31.5l-.2.2.2-.3a.5.5 0 0 1 .1.1zM4.4 58.8v-.4h.2l.2.2a.4.4 0 0 1-.1.4l-.2.2zm40.4 39.7zm13.7-.2a.6.6 0 0 1 .2-.4h.1l.2-.2a.6.6 0 0 1 .7.3v.2zm35.2-56.6h-.2l-.2-.2v-.3l.2-.2h.4l.2.3v.2zm.1 29.7h.2l.2.3v.3l-.3.2h-.2l-.2-.3v-.2zm1-17.4v.4h-.1v.3a.5.5 0 1 1 0-.9v.3zm.6-2.5l-.3.2c-.3-.1-.3-.4-.3-.5l.2-.2.3.2a.4.4 0 0 1 0 .4zm1-1.8a.3.3 0 0 1 .3-.2c.2 0 .4.2.4.4a.4.4 0 0 1-.2.4h-.1a.4.4 0 0 1-.3-.4h.1zm.2 8.5h.1c.2 0 .4.1.4.4l-.3.3h-.1c-.3 0-.3-.3-.3-.4zm2.3-17.9l.3-.3a.5.5 0 0 1 .3.3.4.4 0 0 1-.1.4H99a.3.3 0 0 1-.2-.5zm-.4 15.4a.5.5 0 0 1-.5.3l-.5-.2a.5.5 0 0 1-.1-.5l.3-.2h.3l-.2.2.4-.2a.4.4 0 0 1 .2.6zm-.1-15.5a.5.5 0 0 1-.1.5l-.3.3h-.6l-.2-.2a.6.6 0 0 1 1-.5zM97 34.1l.2-.2h.3a.4.4 0 0 1 .1.3l.5.2a.5.5 0 0 1 .1.4l-.3.2a1.7 1.7 0 0 1-.8-.4v-.4s-.2.1-.2-.1zm-.6.5h.3a1.1 1.1 0 0 1 .2.8l-.3.2c-.3 0-.4-.4-.4-.5v-.3zm-.1 2.2h.3a.7.7 0 0 1 .3.6l-.3.2c-.1-.1-.4-.2-.4-.4a.4.4 0 0 1-.1-.4zm-.3 7.3l-.3.2-.4-.2v.2h-1.1l-.3-.2a.6.6 0 0 1 .1-.3l.2-.2h1.1v-.2a.6.6 0 0 1 .6.2.6.6 0 0 1 .1.5zm-1.6-9.6l.2-.2h.2l.3.3h.2l.2.3v.2l-.3.2H95V35h-.2l-.2-.4zm.1.5a1.4 1.4 0 0 1 .7.3h.4a.4.4 0 0 1 0 .3l-.2.2h-.3v.3H95l.2.3v.4l-.3.2h-.3a.4.4 0 0 1-.2-.4h-.1a.6.6 0 0 1-.5-.6.6.6 0 0 1-.4-.2.3.3 0 0 1-.1-.3.4.4 0 0 1 .4-.3.4.4 0 0 1 .4.4h.3v.2h.1a.7.7 0 0 1-.4-.5l.2-.2zm-1.7-.2a.5.5 0 0 1 .2-.4h.2a.7.7 0 0 1 0-.2V34h.2a.3.3 0 0 1 .3.2h.3l.2.2c0 .3-.5.4-.6.4a1.4 1.4 0 0 1 0 .2.7.7 0 0 0 0 .1l-.4.2h-.1c0 .1-.1.2-.1.2v.2h-.3a.5.5 0 0 1-.2-.4.4.4 0 0 1 .3-.4z"></path></g><g id="SvgjsG4240" featurekey="symbolFeature-0" transform="matrix(0.9035947079391314,0,0,0.9035947079391314,248.67884451020407,224.3248011741516)" fill="#364f6b"><path xmlns="http://www.w3.org/2000/svg" d="M59.393,25.715c0,5.777-4.684,10.458-10.461,10.458c-5.78,0-10.459-4.681-10.459-10.458c0-5.781,4.679-10.461,10.459-10.461  C54.709,15.253,59.393,19.934,59.393,25.715z"></path><path xmlns="http://www.w3.org/2000/svg" d="M38.741,32.013c0,0.932-0.756,1.688-1.687,1.688c-0.935,0-1.689-0.756-1.689-1.688c0-0.938,0.754-1.69,1.689-1.69  C37.985,30.323,38.741,31.075,38.741,32.013z"></path><circle xmlns="http://www.w3.org/2000/svg" cx="31.498" cy="31.026" r="1.691"></circle><circle xmlns="http://www.w3.org/2000/svg" cx="36.781" cy="37.083" r="1.691"></circle><path xmlns="http://www.w3.org/2000/svg" d="M30.298,24.234c0,0.935-0.754,1.692-1.688,1.692s-1.694-0.757-1.694-1.692c0-0.931,0.76-1.691,1.694-1.691  S30.298,23.303,30.298,24.234z"></path><path xmlns="http://www.w3.org/2000/svg" d="M31.496,18.667c0,0.938-0.757,1.695-1.688,1.695c-0.934,0-1.693-0.756-1.693-1.695c0-0.931,0.759-1.691,1.693-1.691  C30.738,16.977,31.496,17.736,31.496,18.667z"></path><path xmlns="http://www.w3.org/2000/svg" d="M34.528,14.358c0,0.933-0.762,1.687-1.693,1.687c-0.935,0-1.688-0.754-1.688-1.687c0-0.935,0.753-1.694,1.688-1.694  C33.766,12.664,34.528,13.423,34.528,14.358z"></path><path xmlns="http://www.w3.org/2000/svg" d="M37.054,9.844c0,0.935-0.758,1.689-1.689,1.689c-0.939,0-1.696-0.754-1.696-1.689c0-0.933,0.757-1.691,1.696-1.691  C36.296,8.153,37.054,8.911,37.054,9.844z"></path><path xmlns="http://www.w3.org/2000/svg" d="M44.656,6.865c0,0.938-0.753,1.691-1.687,1.691c-0.932,0-1.688-0.753-1.688-1.691c0-0.933,0.757-1.691,1.688-1.691  C43.903,5.174,44.656,5.932,44.656,6.865z"></path><path xmlns="http://www.w3.org/2000/svg" d="M52.795,6.865c0,0.938-0.752,1.691-1.693,1.691c-0.931,0-1.688-0.753-1.688-1.691c0-0.933,0.757-1.691,1.688-1.691  C52.043,5.174,52.795,5.932,52.795,6.865z"></path><circle xmlns="http://www.w3.org/2000/svg" cx="56.546" cy="8.556" r="1.69"></circle><circle xmlns="http://www.w3.org/2000/svg" cx="62.042" cy="10.391" r="1.69"></circle><circle xmlns="http://www.w3.org/2000/svg" cx="65.424" cy="14.094" r="1.691"></circle><path xmlns="http://www.w3.org/2000/svg" d="M70,19.281c0,0.935-0.756,1.691-1.688,1.691c-0.934,0-1.695-0.756-1.695-1.691c0-0.933,0.762-1.688,1.695-1.688  C69.244,17.593,70,18.348,70,19.281z"></path><path xmlns="http://www.w3.org/2000/svg" d="M70.848,25.133c0,0.932-0.76,1.688-1.695,1.688c-0.934,0-1.688-0.756-1.688-1.688c0-0.931,0.754-1.689,1.688-1.689  C70.088,23.444,70.848,24.202,70.848,25.133z"></path><path xmlns="http://www.w3.org/2000/svg" d="M70.848,30.323c0,0.931-0.76,1.69-1.695,1.69c-0.934,0-1.688-0.759-1.688-1.69c0-0.938,0.754-1.692,1.688-1.692  C70.088,28.63,70.848,29.385,70.848,30.323z"></path><path xmlns="http://www.w3.org/2000/svg" d="M68.805,34.482c0,0.931-0.756,1.691-1.689,1.691c-0.939,0-1.693-0.76-1.693-1.691c0-0.932,0.754-1.688,1.693-1.688  C68.049,32.795,68.805,33.551,68.805,34.482z"></path><path xmlns="http://www.w3.org/2000/svg" d="M64.646,39.201c0,0.936-0.758,1.696-1.689,1.696c-0.934,0-1.693-0.76-1.693-1.696c0-0.932,0.76-1.688,1.693-1.688  C63.889,37.513,64.646,38.269,64.646,39.201z"></path><path xmlns="http://www.w3.org/2000/svg" d="M57.289,42.228c0,0.937-0.762,1.696-1.693,1.696c-0.936,0-1.689-0.759-1.689-1.696c0-0.931,0.754-1.686,1.689-1.686  C56.527,40.542,57.289,41.296,57.289,42.228z"></path><path xmlns="http://www.w3.org/2000/svg" d="M52.795,38.773c0,0.931-0.752,1.69-1.693,1.69c-0.931,0-1.688-0.759-1.688-1.69c0-0.937,0.757-1.691,1.688-1.691  C52.043,37.083,52.795,37.836,52.795,38.773z"></path><path xmlns="http://www.w3.org/2000/svg" d="M50.409,42.228c0,0.937-0.757,1.696-1.688,1.696c-0.934,0-1.691-0.759-1.691-1.696c0-0.931,0.757-1.686,1.691-1.686  C49.652,40.542,50.409,41.296,50.409,42.228z"></path><path xmlns="http://www.w3.org/2000/svg" d="M46.351,38.357c0,0.932-0.754,1.691-1.694,1.691c-0.931,0-1.687-0.759-1.687-1.691c0-0.933,0.756-1.69,1.687-1.69  C45.596,36.667,46.351,37.424,46.351,38.357z"></path><path xmlns="http://www.w3.org/2000/svg" d="M42.148,41.457c0,0.938-0.757,1.691-1.688,1.691c-0.934,0-1.688-0.752-1.688-1.691c0-0.932,0.754-1.691,1.688-1.691  C41.391,39.766,42.148,40.525,42.148,41.457z"></path><circle xmlns="http://www.w3.org/2000/svg" cx="40.865" cy="35.392" r="1.688"></circle><path xmlns="http://www.w3.org/2000/svg" d="M36.216,26.82c0,0.939-0.757,1.694-1.688,1.694c-0.934,0-1.693-0.754-1.693-1.694c0-0.933,0.759-1.688,1.693-1.688  C35.459,25.133,36.216,25.887,36.216,26.82z"></path><path xmlns="http://www.w3.org/2000/svg" d="M37.042,21.169c0,0.937-0.756,1.69-1.688,1.69c-0.935,0-1.689-0.754-1.689-1.69c0-0.932,0.754-1.69,1.689-1.69  C36.286,19.479,37.042,20.237,37.042,21.169z"></path><path xmlns="http://www.w3.org/2000/svg" d="M39.598,16.045c0,0.931-0.762,1.691-1.687,1.691c-0.935,0-1.695-0.76-1.695-1.691s0.76-1.687,1.695-1.687  C38.836,14.358,39.598,15.114,39.598,16.045z"></path><path xmlns="http://www.w3.org/2000/svg" d="M42.969,12.664c0,0.932-0.755,1.694-1.688,1.694c-0.938,0-1.693-0.763-1.693-1.694s0.756-1.688,1.693-1.688  C42.214,10.977,42.969,11.732,42.969,12.664z"></path><circle xmlns="http://www.w3.org/2000/svg" cx="47.241" cy="10.977" r="1.691"></circle><path xmlns="http://www.w3.org/2000/svg" d="M55.174,12.082c0,0.935-0.755,1.691-1.694,1.691c-0.933,0-1.688-0.756-1.688-1.691c0-0.933,0.755-1.691,1.688-1.691  C54.419,10.391,55.174,11.148,55.174,12.082z"></path><path xmlns="http://www.w3.org/2000/svg" d="M59.932,14.358c0,0.933-0.76,1.687-1.695,1.687c-0.934,0-1.688-0.754-1.688-1.687c0-0.935,0.754-1.694,1.688-1.694  C59.172,12.664,59.932,13.423,59.932,14.358z"></path><path xmlns="http://www.w3.org/2000/svg" d="M64.01,18.635c0,0.931-0.754,1.691-1.688,1.691c-0.93,0-1.693-0.76-1.693-1.691c0-0.937,0.764-1.691,1.693-1.691  C63.256,16.944,64.01,17.699,64.01,18.635z"></path><path xmlns="http://www.w3.org/2000/svg" d="M65.422,23.536c0,0.937-0.756,1.694-1.689,1.694c-0.932,0-1.691-0.758-1.691-1.694c0-0.931,0.76-1.691,1.691-1.691  C64.666,21.845,65.422,22.604,65.422,23.536z"></path><path xmlns="http://www.w3.org/2000/svg" d="M64.646,28.956c0,0.935-0.758,1.687-1.689,1.687c-0.934,0-1.693-0.752-1.693-1.687c0-0.935,0.76-1.694,1.693-1.694  C63.889,27.261,64.646,28.021,64.646,28.956z"></path><path xmlns="http://www.w3.org/2000/svg" d="M63.307,33.701c0,0.935-0.754,1.691-1.689,1.691c-0.932,0-1.686-0.756-1.686-1.691c0-0.931,0.754-1.688,1.686-1.688  C62.553,32.013,63.307,32.77,63.307,33.701z"></path><path xmlns="http://www.w3.org/2000/svg" d="M59.393,37.083c0,0.931-0.76,1.691-1.695,1.691c-0.932,0-1.686-0.76-1.686-1.691c0-0.933,0.754-1.691,1.686-1.691  C58.633,35.392,59.393,36.149,59.393,37.083z"></path><path xmlns="http://www.w3.org/2000/svg" d="M36.779,37.083"></path><path xmlns="http://www.w3.org/2000/svg" d="M37.054,32.013"></path><path xmlns="http://www.w3.org/2000/svg" d="M36.957,37.197l-0.355-0.229c0.249-0.388,6.171-9.52,12.267-11.455l0.128,0.403C43.046,27.805,37.017,37.103,36.957,37.197z  "></path><path xmlns="http://www.w3.org/2000/svg" d="M48.931,95.249c-0.198,0-0.375-0.141-0.415-0.343c-0.042-0.216-4.189-21.809-4.297-35.955  c-0.104-14.149,3.589-29.935,3.626-30.093c0.053-0.228,0.279-0.369,0.508-0.314c0.227,0.054,0.368,0.281,0.314,0.508  c-0.037,0.157-3.707,15.847-3.603,29.893c0.107,14.067,4.239,35.585,4.281,35.801c0.044,0.229-0.105,0.451-0.335,0.495  C48.985,95.246,48.958,95.249,48.931,95.249z"></path><path xmlns="http://www.w3.org/2000/svg" d="M34.668,26.978l-0.281-0.315c2.494-2.219,6.473-2.409,9.371-2.18c3.118,0.248,5.692,1.022,5.718,1.03l-0.123,0.404  C49.252,25.886,39.246,22.908,34.668,26.978z"></path><path xmlns="http://www.w3.org/2000/svg" d="M37.255,32.079l-0.401-0.132c0.78-2.381,3.12-4.274,6.769-5.475c2.73-0.898,5.268-1.103,5.293-1.104l0.032,0.422  C48.849,25.797,39.043,26.618,37.255,32.079z"></path><path xmlns="http://www.w3.org/2000/svg" d="M31.705,31.058l-0.418-0.064c0.794-5.128,16.935-5.473,17.622-5.485l0.008,0.423C48.751,25.935,32.445,26.279,31.705,31.058  z"></path><path xmlns="http://www.w3.org/2000/svg" d="M48.852,25.425c-0.149-0.061-14.969-6.062-20.094-1.041l-0.296-0.302c2.244-2.2,6.395-2.704,12.333-1.5  c4.389,0.89,8.18,2.436,8.217,2.452L48.852,25.425z"></path><path xmlns="http://www.w3.org/2000/svg" d="M48.808,24.405c-0.075-0.054-7.601-5.39-13.374-3.041l-0.159-0.392c2.485-1.011,5.66-0.794,9.179,0.625  c2.644,1.066,4.582,2.45,4.602,2.464L48.808,24.405z"></path><path xmlns="http://www.w3.org/2000/svg" d="M48.412,25.745c-0.13-0.103-13.119-10.332-18.491-6.899l-0.228-0.356c5.625-3.595,18.438,6.493,18.981,6.924L48.412,25.745z  "></path><path xmlns="http://www.w3.org/2000/svg" d="M48.754,24.93c-0.06-0.093-5.989-9.225-10.819-8.675l-0.048-0.42c5.098-0.579,10.976,8.48,11.223,8.867L48.754,24.93z"></path><path xmlns="http://www.w3.org/2000/svg" d="M49.209,25.977c-0.034-0.137-3.51-13.68-16.337-11.41l-0.073-0.416c13.215-2.331,16.786,11.585,16.821,11.726L49.209,25.977  z"></path><path xmlns="http://www.w3.org/2000/svg" d="M48.332,25.929c-0.001-0.088-0.161-8.819-3.681-11.964c-0.953-0.851-2.084-1.221-3.349-1.091l-0.042-0.421  c1.398-0.137,2.629,0.265,3.673,1.197c3.659,3.269,3.817,11.907,3.822,12.273L48.332,25.929z"></path><path xmlns="http://www.w3.org/2000/svg" d="M48.343,25.686c-0.054-0.164-5.496-16.417-12.956-15.631l-0.044-0.42c3.297-0.347,6.552,2.24,9.689,7.688  c2.314,4.018,3.698,8.19,3.712,8.232L48.343,25.686z"></path><path xmlns="http://www.w3.org/2000/svg" d="M48.702,26.839c-0.017-0.182-1.688-18.19-5.809-19.777l0.152-0.395c4.363,1.681,6.009,19.381,6.077,20.134L48.702,26.839z"></path><path xmlns="http://www.w3.org/2000/svg" d="M48.248,26.567l-0.422-0.019c0.242-5.628,0.265-14.785-0.701-15.394l0.226-0.357C48.81,11.717,48.354,24.095,48.248,26.567z  "></path><path xmlns="http://www.w3.org/2000/svg" d="M48.321,27.423l0.011-1.184c0.006-0.631,0.169-15.504,2.589-19.484l0.361,0.22c-1.979,3.255-2.415,14.493-2.505,18.127  c1.281-3.031,5.183-11.366,9.48-10.954l-0.041,0.421c-4.793-0.456-9.428,11.625-9.475,11.747L48.321,27.423z"></path><path xmlns="http://www.w3.org/2000/svg" d="M48.025,25.751l-0.416-0.072c0.088-0.505,2.197-12.391,5.793-13.794l0.154,0.394C50.179,13.596,48.046,25.63,48.025,25.751z  "></path><path xmlns="http://www.w3.org/2000/svg" d="M48.622,25.236l-0.423-0.013c0.001-0.041,0.135-4.118,1.207-8.201c1.436-5.471,3.901-8.472,7.129-8.678l0.027,0.422  C49.188,9.237,48.626,25.076,48.622,25.236z"></path><path xmlns="http://www.w3.org/2000/svg" d="M48.243,26.132l-0.387-0.17c0.305-0.695,7.556-17.01,14.223-15.78l-0.076,0.416C55.647,9.424,48.316,25.965,48.243,26.132z"></path><path xmlns="http://www.w3.org/2000/svg" d="M47.172,26.354l0.738-0.815c0.439-0.484,10.829-11.852,18.443-11.392l-0.027,0.422c-6.206-0.408-14.714,7.76-17.314,10.425  c3.772-1.781,16.502-7.554,19.88-6.022l-0.174,0.385c-3.726-1.681-20.39,6.431-20.558,6.514L47.172,26.354z"></path><path xmlns="http://www.w3.org/2000/svg" d="M47.947,26.316l-0.261-0.333c0.451-0.353,11.074-8.627,14.696-7.55l-0.121,0.405C58.853,17.819,48.056,26.23,47.947,26.316z  "></path><path xmlns="http://www.w3.org/2000/svg" d="M40.249,41.46c-0.072-3.873,7.431-15.928,7.75-16.439l0.032-0.051l0.053-0.026c0.023-0.012,2.343-1.161,5.418-1.928  c2.851-0.71,6.955-1.231,10.319,0.328l-0.178,0.384c-5.989-2.778-14.564,1.206-15.318,1.569c-0.544,0.878-7.722,12.531-7.654,16.156  L40.249,41.46z"></path><path xmlns="http://www.w3.org/2000/svg" d="M69.062,25.324c-5.534-2.584-19.815-0.322-19.959-0.3l-0.067-0.417c0.591-0.095,14.551-2.307,20.206,0.334L69.062,25.324z"></path><path xmlns="http://www.w3.org/2000/svg" d="M62.798,29.095c-3.379-3.869-13.898-4.263-14.004-4.267l0.014-0.423c0.44,0.015,10.81,0.405,14.309,4.411L62.798,29.095z"></path><path xmlns="http://www.w3.org/2000/svg" d="M68.946,30.368c-0.63-2.857-15.048-4.526-20.551-4.927l0.031-0.422c0.82,0.06,20.107,1.51,20.932,5.258L68.946,30.368z"></path><path xmlns="http://www.w3.org/2000/svg" d="M61.439,33.815c-3.187-4.944-12.694-8.399-12.79-8.434l0.143-0.397c0.396,0.142,9.738,3.537,13.003,8.603L61.439,33.815z"></path><path xmlns="http://www.w3.org/2000/svg" d="M66.919,34.561c-1.994-4.975-18.02-10.075-18.182-10.125l0.127-0.403c0.668,0.21,16.379,5.212,18.447,10.372L66.919,34.561z  "></path><path xmlns="http://www.w3.org/2000/svg" d="M57.896,37.155l-0.396-0.146c0.1-0.272,0.011-0.719-0.256-1.291c-1.55-3.322-8.133-9.452-8.726-9.666l0.051-0.141  l-0.091-0.263c0.44-0.153,3.415,2.835,4.005,3.437C54.759,31.402,58.489,35.532,57.896,37.155z"></path><path xmlns="http://www.w3.org/2000/svg" d="M62.749,39.238c-0.534-2.977-14.019-13.041-14.154-13.142l0.252-0.339c0.562,0.417,13.756,10.267,14.318,13.407  L62.749,39.238z"></path><path xmlns="http://www.w3.org/2000/svg" d="M55.385,42.235c-0.146-3.987-6.438-15.969-6.502-16.089l0.374-0.197c0.261,0.496,6.401,12.189,6.55,16.271L55.385,42.235z"></path><path xmlns="http://www.w3.org/2000/svg" d="M51.31,38.809l-0.417-0.072c0.382-2.214-1.988-10.506-2.468-12.151c-1.211,0.88-6.633,5.009-7.353,8.845l-0.415-0.078  c0.839-4.472,7.484-9.091,7.767-9.285l0.239-0.165l0.083,0.278C48.869,26.591,51.749,36.262,51.31,38.809z"></path><path xmlns="http://www.w3.org/2000/svg" d="M44.446,38.374c-0.32-4.099,4.582-11.714,4.791-12.036l0.354,0.229c-0.05,0.078-5.034,7.817-4.725,11.773L44.446,38.374z"></path><path xmlns="http://www.w3.org/2000/svg" d="M48.913,42.316l-0.384-0.178c1.072-2.31-0.301-17.153-0.315-17.303l0.421-0.039C48.692,25.412,50.032,39.904,48.913,42.316z  "></path></g><g id="SvgjsG4241" featurekey="nameFeature-0" transform="matrix(0.5580502166855448,0,0,0.5580502166855448,141.77357633586422,269.3023244031334)" fill="#364f6b"><path d="M32.813 27.344 c-0.98961 2.3959 -2.3438 4.375 -4.0625 5.9375 c-1.7709 1.6666 -3.8542 2.9688 -6.2501 3.9063 s-5.0781 1.4063 -8.0469 1.4063 l-8.6719 0 l0 -5.9375 l8.5938 0 c1.9791 0 3.776 -0.3125 5.3906 -0.9375 c1.5625 -0.625 2.9166 -1.5104 4.0625 -2.6563 s2.0313 -2.5 2.6563 -4.0625 s0.9375 -3.2813 0.9375 -5.1563 c0 -1.8229 -0.3125 -3.5156 -0.9375 -5.0781 c-0.625 -1.6146 -1.5104 -2.9427 -2.6563 -3.9844 c-1.0416 -1.0938 -2.3958 -1.9791 -4.0624 -2.6563 c-1.6666 -0.625 -3.4635 -0.9375 -5.3906 -0.9375 l-8.5938 0 l0 -5.9375 l8.6719 0 c2.7604 0 5.4166 0.49477 7.9688 1.4844 c2.3959 0.88539 4.5052 2.2135 6.3281 3.9844 c1.7709 1.6146 3.125 3.5938 4.0625 5.9375 c0.98961 2.3959 1.4844 4.8438 1.4844 7.3438 c0 2.7084 -0.49477 5.1563 -1.4844 7.3438 z M71.703 38.5937 l7.0313 0 l-13.594 -37.266 l-7.1094 0 l7.8906 22.266 z M42.9531 38.5937 l6.875 0 l8.125 -19.844 l-3.3594 -8.9063 z M85.8281 38.5937 l6.4844 0 l0 -19.922 l-6.4844 -9.1406 l0 29.063 z M111.76599999999999 1.4059999999999988 l0 25.703 l-18.359 -25.703 l-7.0313 0 l26.406 37.188 l5.3906 0 l0 -37.188 l-6.4063 0 z M155.813 27.344 c-0.98961 2.3959 -2.3438 4.375 -4.0625 5.9375 c-1.7709 1.6666 -3.8542 2.9688 -6.2501 3.9063 s-5.0781 1.4063 -8.0469 1.4063 l-8.6719 0 l0 -5.9375 l8.5938 0 c1.9791 0 3.776 -0.3125 5.3906 -0.9375 c1.5625 -0.625 2.9166 -1.5104 4.0625 -2.6563 s2.0313 -2.5 2.6563 -4.0625 s0.9375 -3.2813 0.9375 -5.1563 c0 -1.8229 -0.3125 -3.5156 -0.9375 -5.0781 c-0.625 -1.6146 -1.5104 -2.9427 -2.6563 -3.9844 c-1.0416 -1.0938 -2.3958 -1.9791 -4.0624 -2.6563 c-1.6666 -0.625 -3.4635 -0.9375 -5.3906 -0.9375 l-8.5938 0 l0 -5.9375 l8.6719 0 c2.7604 0 5.4166 0.49477 7.9688 1.4844 c2.3959 0.88539 4.5052 2.2135 6.3281 3.9844 c1.7709 1.6146 3.125 3.5938 4.0625 5.9375 c0.98961 2.3959 1.4844 4.8438 1.4844 7.3438 c0 2.7084 -0.49477 5.1563 -1.4844 7.3438 z M170.0938 1.4059999999999988 l27.813 0 l0 5.9375 l-27.813 0 l0 -5.9375 z M170.0938 32.6562 l27.734 0 l0 5.9375 l-27.734 0 l0 -5.9375 z M170.0938 16.875 l25.078 0 l0 5.8594 l-25.078 0 l0 -5.8594 z M212.0313 1.4059999999999988 l6.4063 0 l0 31.25 l19.531 0 l0 5.9375 l-25.938 0 l0 -37.188 z M269.281 16.875 l0 -15.547 l-6.5625 0 l0 37.344 l6.5625 0 l0 -21.797 z M304.344 32.6562 c-0.78125 -0.15625 -1.5105 -0.3907 -2.1876 -0.7032 c-1.4584 -0.67711 -2.7344 -1.6146 -3.8281 -2.8125 c-1.0416 -1.0938 -1.875 -2.4479 -2.5 -4.0625 c-0.57289 -1.6146 -0.85938 -3.2552 -0.85938 -4.9219 l0 -0.15625 l0 -0.23438 c0 -1.7188 0.28648 -3.3854 0.85938 -5 c0.67711 -1.6666 1.5105 -2.9948 2.5001 -3.9844 c1.0416 -1.1979 2.2916 -2.1094 3.75 -2.7344 c0.88539 -0.41664 1.6406 -0.67703 2.2656 -0.78117 l0 -5.8594 c-1.8229 0.26039 -3.4375 0.70313 -4.8438 1.3281 c-2.2916 0.98961 -4.2448 2.3177 -5.8594 3.9844 s-2.8906 3.6458 -3.8281 5.9374 s-1.4063 4.6875 -1.4063 7.1875 l0 0.15625 l0 0.23438 c0 2.5521 0.46875 4.948 1.4063 7.1876 c0.83336 2.2396 2.0834 4.1927 3.75 5.8594 c1.6666 1.7188 3.6198 3.0469 5.8594 3.9844 c1.4063 0.625 3.0469 1.0677 4.9219 1.3281 l0 -5.9375 z M325.594 20 l0.000076294 -0.23438 c0 -2.5521 -0.46875 -4.948 -1.4063 -7.1876 c-0.9375 -2.2916 -2.2135 -4.2708 -3.8281 -5.9374 c-1.5625 -1.6666 -3.4896 -2.9688 -5.7813 -3.9063 c-1.3021 -0.625 -2.8906 -1.0677 -4.7656 -1.3281 l0 5.9375 l0.9375 0.3125 c0.46875 0.15625 0.83336 0.28648 1.0938 0.39063 c1.4584 0.67711 2.7344 1.6146 3.8281 2.8125 c1.0416 1.0938 1.875 2.4479 2.5 4.0625 c0.57289 1.6146 0.85938 3.2552 0.85938 4.9219 l0 0.15625 l0 0.23438 c0 1.7188 -0.28648 3.3854 -0.85938 5 c-0.67711 1.6666 -1.5105 2.9948 -2.5001 3.9844 c-1.0416 1.1979 -2.2916 2.1094 -3.75 2.7344 c-0.67711 0.3125 -1.3802 0.54688 -2.1094 0.70313 l0 5.9375 c1.5625 -0.20836 3.125 -0.65109 4.6875 -1.3282 c2.1354 -0.88539 4.0885 -2.2135 5.8594 -3.9844 c1.7188 -1.8229 2.9948 -3.802 3.8281 -5.9374 c0.9375 -2.2916 1.4063 -4.6875 1.4063 -7.1875 l0 -0.15625 z M331.8281 38.5937 l6.4844 0 l0 -19.922 l-6.4844 -9.1406 l0 29.063 z M357.766 1.4059999999999988 l0 25.703 l-18.359 -25.703 l-7.0313 0 l26.406 37.188 l5.3906 0 l0 -37.188 l-6.4063 0 z"></path></g><g id="SvgjsG4242" featurekey="sloganFeature-0" transform="matrix(2.25,0,0,2.25,245,301)" fill="#364f6b"><path d="         "></path></g><g id="SvgjsG4243" featurekey="sloganFeature-1" transform="matrix(0.5076593604348797,0,0,0.5076593604348797,87.5042401464384,310.68274800000097)" fill="#364f6b"><path d="M15.352 19.29687 l3.5156 0 l-6.7969 -18.633 l-3.5547 0 l3.9453 11.133 z M0.97656 19.29687 l3.4375 0 l4.0625 -9.9219 l-1.6797 -4.4531 z M41.305 12.5 c-0.1823 -0.4948 -0.44266 -0.92441 -0.78121 -1.289 c-0.23438 -0.26043 -0.61199 -0.55992 -1.1328 -0.89848 c-0.57293 -0.28645 -1.0807 -0.50781 -1.5234 -0.66406 c0.3125 -0.1823 0.65105 -0.39063 1.0156 -0.625 c0.36457 -0.3125 0.63801 -0.61199 0.82031 -0.89844 c0.23438 -0.3125 0.42969 -0.69012 0.58594 -1.1328 c0.15625 -0.46875 0.23438 -0.97656 0.23438 -1.5234 c0 -1.4583 -0.54688 -2.6172 -1.6406 -3.4766 s-2.5781 -1.2891 -4.4531 -1.2891 l-7.2266 0 l0 2.8906 l6.8359 0 c0.98957 0 1.7969 0.20832 2.4219 0.625 c0.54688 0.41668 0.82031 1.0156 0.82031 1.7969 c0 0.88543 -0.3125 1.5234 -0.9375 1.9141 c-0.65105 0.41668 -1.4974 0.625 -2.5391 0.625 l-6.6016 0 l0 2.7344 l7.3047 0 c1.25 0 2.2005 0.22137 2.8516 0.66406 c0.625 0.46875 0.9375 1.0938 0.9375 1.875 c0 0.83332 -0.3125 1.4713 -0.9375 1.914 c-0.65105 0.4427 -1.5234 0.66406 -2.6172 0.66406 l-7.5391 0 l0 2.8906 l7.5 0 c1.0156 0 1.9531 -0.11719 2.8125 -0.35156 c0.88543 -0.26043 1.6016 -0.58594 2.1484 -0.97656 s1.0156 -0.92449 1.4063 -1.6016 c0.3125 -0.625 0.46875 -1.3542 0.46875 -2.1875 c0 -0.65105 -0.078125 -1.2109 -0.23438 -1.6797 z M51.6328 6.25 c0.46875 -1.1458 1.1458 -2.1223 2.0312 -2.9296 c0.8073 -0.8073 1.849 -1.4584 3.125 -1.9532 s2.6172 -0.74219 4.0234 -0.74219 l4.3359 0 l0 2.9688 l-4.2969 0 c-1.0156 0 -1.9141 0.16926 -2.6953 0.50781 c-0.83332 0.33855 -1.5104 0.78125 -2.0312 1.3281 c-0.54688 0.52082 -0.98957 1.1979 -1.3281 2.0312 c-0.3125 0.7552 -0.46875 1.6016 -0.46875 2.5391 s0.15625 1.7839 0.46875 2.5391 c0.3125 0.78125 0.7552 1.4583 1.3281 2.0313 c0.52082 0.52082 1.1979 0.95051 2.0312 1.2891 c0.83332 0.3125 1.7318 0.46875 2.6953 0.46875 l4.2969 0 l0 2.9688 l-4.3359 0 c-1.4583 0 -2.7864 -0.23438 -3.9844 -0.70313 c-1.25 -0.52082 -2.3047 -1.1849 -3.1641 -1.9922 c-0.88543 -0.83332 -1.5625 -1.8229 -2.0313 -2.9687 c-0.4948 -1.1979 -0.74219 -2.4219 -0.74219 -3.6719 c0 -1.3281 0.24738 -2.5651 0.74219 -3.7109 z M88.406 13.6719 c-0.4948 1.1979 -1.1719 2.1875 -2.0313 2.9688 c-0.88543 0.83332 -1.9271 1.4844 -3.125 1.9531 s-2.5391 0.70313 -4.0234 0.70313 l-4.3359 0 l0 -2.9688 l4.2969 0 c0.98957 0 1.888 -0.15625 2.6953 -0.46875 c0.78125 -0.3125 1.4583 -0.7552 2.0313 -1.3281 s1.0156 -1.25 1.3281 -2.0313 s0.46875 -1.6406 0.46875 -2.5781 c0 -0.91145 -0.15625 -1.7578 -0.46875 -2.5391 c-0.3125 -0.8073 -0.7552 -1.4714 -1.3281 -1.9922 c-0.52082 -0.54688 -1.1979 -0.98957 -2.0312 -1.3281 c-0.83332 -0.3125 -1.7318 -0.46875 -2.6953 -0.46875 l-4.2969 0 l0 -2.9688 l4.3359 0 c1.3802 0 2.7083 0.24738 3.9844 0.74219 c1.1979 0.4427 2.2526 1.1068 3.1641 1.9922 c0.88543 0.8073 1.5625 1.7969 2.0313 2.9688 c0.4948 1.1979 0.74219 2.4219 0.74219 3.6719 c0 1.3542 -0.24738 2.5781 -0.74219 3.6719 z M99.0469 0.7029999999999994 l13.906 0 l0 2.9688 l-13.906 0 l0 -2.9688 z M99.0469 16.3281 l13.867 0 l0 2.9688 l-13.867 0 l0 -2.9688 z M99.0469 8.437 l12.539 0 l0 2.9297 l-12.539 0 l0 -2.9297 z M123.0469 0.7029999999999994 l13.906 0 l0 2.9688 l-13.906 0 l0 -2.9688 z M123.0469 8.437 l2.9688 0 l0 10.859 l-2.9688 0 l0 -10.859 z M123.0469 8.437 l12.539 0 l0 2.9297 l-12.539 0 l0 -2.9297 z M154.938 11.4453 l6.9141 0 l0 -2.8906 l-6.9141 0 l0 2.8906 z M161.852 13.710899999999999 l-2.8907 0.000038147 l0 2.6563 l-2.8516 0 c-0.98957 0 -1.875 -0.15625 -2.6563 -0.46875 c-0.78125 -0.28645 -1.4714 -0.71613 -2.0703 -1.2891 c-0.54688 -0.59895 -0.97656 -1.276 -1.2891 -2.0312 c-0.3125 -0.72918 -0.46875 -1.5755 -0.46875 -2.5391 c0 -0.91145 0.15625 -1.7578 0.46875 -2.5391 c0.33855 -0.83332 0.76824 -1.5104 1.2891 -2.0312 c0.57293 -0.57293 1.263 -1.0287 2.0704 -1.3672 c0.78125 -0.3125 1.6667 -0.46875 2.6563 -0.46875 l5.7031 0.039063 l0 -2.9688 l-5.7031 -0.039063 c-1.4583 0 -2.7995 0.23438 -4.0234 0.70313 c-1.1979 0.46875 -2.2396 1.1198 -3.125 1.9531 c-0.85938 0.83332 -1.5495 1.8229 -2.0703 2.9687 c-0.46875 1.1198 -0.70313 2.3438 -0.70313 3.6719 s0.23438 2.5651 0.70313 3.7109 c0.52082 1.1979 1.2109 2.1875 2.0703 2.9688 c0.78125 0.78125 1.8229 1.4453 3.125 1.9922 c1.25 0.46875 2.5911 0.70313 4.0234 0.70313 l5.7422 0 l0 -5.625 z M173.5469 8.437 l0 -7.7734 l-3.2813 0 l0 18.672 l3.2813 0 l0 -10.898 z M182.492 0.6640000000000015 l0 7.7734 l-5.7031 0 l0 3.0469 l5.7031 0 l0 7.8516 l3.2422 0 l0 -18.672 l-3.2422 0 z M203.641 8.437 l0 -7.7734 l-3.2813 0 l0 18.672 l3.2813 0 l0 -10.898 z M231.547 15.625 c-0.28645 0.78125 -0.70309 1.4583 -1.25 2.0313 c-0.52082 0.52082 -1.1719 0.92445 -1.9531 1.2109 s-1.6146 0.42969 -2.5 0.42969 c-1.3542 0 -2.5261 -0.28645 -3.5156 -0.85938 c-0.9375 -0.57293 -1.7188 -1.2761 -2.3438 -2.1094 l2.1484 -2.1875 c0.41668 0.59895 0.96355 1.1328 1.6406 1.6016 c0.59895 0.36457 1.276 0.54688 2.0312 0.54688 c0.85938 0 1.5625 -0.28645 2.1094 -0.85938 c0.52082 -0.59895 0.78125 -1.5104 0.78125 -2.7343 l0 -11.992 l3.3203 0 l0 12.109 c0 1.0938 -0.15625 2.0313 -0.46875 2.8125 z M258.32 19.25781 l-6.3672 -8.125 l-2.2266 2.4219 l4.6484 5.7031 l3.9453 0 z M253.984 0.7029999999999994 l-8.8672 9.1797 l0 -9.1797 l-3.2031 0 l0 18.555 l3.2031 0 l0 -4.375 l13.164 -14.18 l-4.2969 0 z M267.5156 0.7029999999999994 l3.2031 0 l0 15.625 l9.7656 0 l0 2.9688 l-12.969 0 l0 -18.594 z M303.977 19.29687 l3.2813 0 l0 -13.711 l-3.2813 4.8047 l0 8.9063 z M307.258 0.7029999999999994 l-3.5156 0 l-5.7422 8.9063 l-5.7031 -8.9063 l-3.5156 0 l0 18.594 l3.2813 0 l0 -13.203 l5.8594 8.7891 l0.11719 0 l5.1172 -7.5781 c0.026054 -0.10418 1.3932 -2.3047 4.1016 -6.6016 z M313.9141 19.29687 l3.2422 0 l0 -9.9609 l-3.2422 -4.5703 l0 14.531 z M326.883 0.7029999999999994 l0 12.852 l-9.1797 -12.852 l-3.5156 0 l13.203 18.594 l2.6953 0 l0 -18.594 l-3.2031 0 z M344.6719 16.3281 c-0.39063 -0.078125 -0.75523 -0.19535 -1.0938 -0.3516 c-0.72918 -0.33855 -1.3672 -0.8073 -1.9141 -1.4063 c-0.52082 -0.54688 -0.9375 -1.2239 -1.25 -2.0313 c-0.28645 -0.8073 -0.42969 -1.6276 -0.42969 -2.4609 l0 -0.078125 l0 -0.11719 c0 -0.85938 0.14324 -1.6927 0.42969 -2.5 c0.33855 -0.83332 0.75523 -1.4974 1.25 -1.9922 c0.52082 -0.59895 1.1458 -1.0547 1.875 -1.3672 c0.4427 -0.20832 0.82031 -0.33852 1.1328 -0.39059 l0 -2.9297 c-0.91145 0.1302 -1.7188 0.35156 -2.4219 0.66406 c-1.1458 0.4948 -2.1224 1.1589 -2.9297 1.9922 s-1.4453 1.8229 -1.9141 2.9687 s-0.70313 2.3438 -0.70313 3.5938 l0 0.078125 l0 0.11719 c0 1.2761 0.23438 2.474 0.70313 3.5938 c0.41668 1.1198 1.0417 2.0964 1.875 2.9297 c0.83332 0.85938 1.8099 1.5234 2.9297 1.9922 c0.70313 0.3125 1.5234 0.53387 2.4609 0.66406 l0 -2.9688 z M355.297 10 l0.000038147 -0.11719 c0 -1.2761 -0.23438 -2.474 -0.70313 -3.5938 c-0.46875 -1.1458 -1.1068 -2.1354 -1.9141 -2.9687 c-0.78125 -0.83332 -1.7448 -1.4844 -2.8906 -1.9531 c-0.65105 -0.3125 -1.4453 -0.53387 -2.3828 -0.66406 l0 2.9688 l0.46875 0.15625 c0.23438 0.078125 0.41668 0.14324 0.54688 0.19531 c0.72918 0.33855 1.3672 0.8073 1.9141 1.4063 c0.52082 0.54688 0.9375 1.2239 1.25 2.0313 c0.28645 0.8073 0.42969 1.6276 0.42969 2.4609 l0 0.078125 l0 0.11719 c0 0.85938 -0.14324 1.6927 -0.42969 2.5 c-0.33855 0.83332 -0.75523 1.4974 -1.25 1.9922 c-0.52082 0.59895 -1.1458 1.0547 -1.875 1.3672 c-0.33855 0.15625 -0.69012 0.27344 -1.0547 0.35156 l0 2.9688 c0.78125 -0.10418 1.5625 -0.32555 2.3438 -0.6641 c1.0677 -0.4427 2.0443 -1.1068 2.9297 -1.9922 c0.85938 -0.91145 1.4974 -1.901 1.9141 -2.9687 c0.46875 -1.1458 0.70313 -2.3438 0.70313 -3.5938 l0 -0.078125 z M376.719 4.375 c-0.33855 -0.72918 -0.80734 -1.3802 -1.4063 -1.9532 c-0.625 -0.54688 -1.3672 -0.97656 -2.2266 -1.2891 c-0.9375 -0.28645 -1.9271 -0.42969 -2.9688 -0.42969 l-7.3047 0 l0 2.9297 l7.0313 0 c1.1719 0 2.1484 0.28645 2.9297 0.85938 c0.72918 0.54688 1.0938 1.3802 1.0938 2.5 c0 1.0156 -0.35156 1.8359 -1.0547 2.4609 c-0.7552 0.59895 -1.7448 0.89844 -2.9687 0.89844 l-7.0313 0 l0 8.9453 l3.2422 0 l0 -5.9766 l3.6719 0 c0.96355 0 1.9401 -0.14324 2.9297 -0.42969 c0.91145 -0.28645 1.6927 -0.69008 2.3438 -1.2109 c0.67707 -0.52082 1.2109 -1.1849 1.6016 -1.9922 c0.39063 -0.78125 0.58594 -1.6927 0.58594 -2.7344 c0 -0.98957 -0.15625 -1.8489 -0.46875 -2.5781 z M396.188 14.6094 l0.85938 0.78125 c0 -0.026054 0.013008 -0.039063 0.039063 -0.039063 z M394 16.2109 c-0.91145 0 -1.7188 -0.16922 -2.4219 -0.50777 c-0.7552 -0.3125 -1.3932 -0.76824 -1.914 -1.3672 c-0.54688 -0.54688 -0.96355 -1.2109 -1.25 -1.9922 c-0.28645 -0.70313 -0.42969 -1.5234 -0.42969 -2.4609 c0 -0.91145 0.14324 -1.7318 0.42969 -2.4609 c0.26043 -0.72918 0.66406 -1.3932 1.2109 -1.9922 c0.52082 -0.54688 1.1588 -1.0026 1.914 -1.3672 c0.70313 -0.33855 1.5104 -0.50781 2.4219 -0.50781 c0.8073 0 1.6276 0.16926 2.4609 0.50781 c0.72918 0.33855 1.3672 0.8073 1.9141 1.4063 c0.4948 0.54688 0.91148 1.2109 1.25 1.9922 c0.28645 0.8073 0.42969 1.6276 0.42969 2.4609 c0 0.625 -0.078125 1.2239 -0.23438 1.7969 c-0.1302 0.52082 -0.35156 1.0416 -0.66406 1.5625 l-3.0859 -2.7734 l-2.0313 2.2656 l0.039063 0.039063 l0.039063 -0.039063 l2.1094 1.875 l0.89844 0.74219 l-0.039063 0 l4.2578 3.7109 l1.9922 -2.1875 l-1.7969 -1.5234 c0.57293 -0.7552 1.0156 -1.6146 1.3281 -2.5781 c0.3125 -0.9375 0.46875 -1.9141 0.46875 -2.9297 c0 -1.2239 -0.23438 -2.4088 -0.70313 -3.5546 c-0.41668 -1.0417 -1.0417 -2.0052 -1.875 -2.8907 c-0.7552 -0.78125 -1.7318 -1.4453 -2.9297 -1.9922 c-1.1198 -0.46875 -2.3698 -0.70313 -3.75 -0.70313 c-1.4323 0 -2.6953 0.24738 -3.7891 0.74219 c-1.1458 0.46875 -2.1224 1.1328 -2.9297 1.9922 c-0.8073 0.72918 -1.4584 1.6927 -1.9532 2.8907 c-0.4427 1.0677 -0.66406 2.2526 -0.66406 3.5546 c0 1.1979 0.22137 2.3828 0.66406 3.5547 c0.46875 1.1458 1.1068 2.1224 1.9141 2.9297 c0.83332 0.83332 1.8099 1.4844 2.9297 1.9531 c1.0938 0.4948 2.3438 0.74219 3.75 0.74219 c1.0677 0 2.0443 -0.15625 2.9297 -0.46875 c0.026054 0 0.091172 -0.026054 0.19535 -0.078125 c-0.28645 -0.23438 -0.73566 -0.625 -1.3477 -1.1719 s-1.0612 -0.9375 -1.3477 -1.1719 l-0.39063 0 z M394.078 12.773399999999999 l-0.039063 0.039063 l2.1484 1.7969 z M425.891 19.29687 l-5.0391 -7.0313 c0.67707 -0.20832 1.276 -0.4557 1.7968 -0.74215 c0.57293 -0.36457 1.0417 -0.7682 1.4063 -1.2109 c0.41668 -0.4948 0.71617 -1.0287 0.89848 -1.6016 c0.23438 -0.625 0.35156 -1.3281 0.35156 -2.1094 c0 -0.91145 -0.15625 -1.7318 -0.46875 -2.4609 c-0.3125 -0.70313 -0.76824 -1.3151 -1.3672 -1.8359 c-0.57293 -0.4948 -1.3021 -0.88543 -2.1875 -1.1719 c-0.91145 -0.28645 -1.875 -0.42969 -2.8906 -0.42969 l-8.2813 0 l0 2.9688 l8.0078 0 c1.2239 0 2.1745 0.26043 2.8515 0.78125 s1.0156 1.3021 1.0156 2.3438 c0 0.96355 -0.33855 1.7188 -1.0156 2.2656 c-0.67707 0.57293 -1.6146 0.85938 -2.8125 0.85938 l-8.0469 0 l0 9.375 l3.2422 0 l0 -6.4844 l4.1016 0 l4.5703 6.4844 l3.8672 0 l0 0 z M444.461 0.7029999999999994 c-1.4323 0 -2.7604 0.2343 -3.9844 0.70305 c-1.1979 0.46875 -2.2396 1.1198 -3.125 1.9531 c-0.85938 0.78125 -1.5364 1.7708 -2.0313 2.9688 c-0.41668 1.0156 -0.65105 2.1224 -0.70313 3.3203 l0 1.1719 l3.4375 0 l0 -1.1719 c0.05207 -0.88543 0.19531 -1.6016 0.42969 -2.1484 c0.3125 -0.7552 0.74219 -1.4323 1.2891 -2.0312 c0.65105 -0.59895 1.3281 -1.0416 2.0313 -1.3281 c0.8073 -0.3125 1.6927 -0.46875 2.6563 -0.46875 l4.9219 0 l0 -2.9688 l-4.9219 0 z M445.945 9.492 l0.000038147 0.74215 l0.039063 0 c-0.05207 0.83332 -0.20832 1.6016 -0.46875 2.3047 c-0.33855 0.8073 -0.76824 1.4714 -1.2891 1.9922 c-0.57293 0.57293 -1.25 1.0156 -2.0313 1.3281 c-0.8073 0.3125 -1.6927 0.46875 -2.6563 0.46875 l-4.9219 0 l0 2.9688 l4.9219 0 c1.4323 0 2.7604 -0.23438 3.9844 -0.70313 c1.1979 -0.46875 2.2396 -1.1198 3.125 -1.9531 c0.91145 -0.91145 1.5885 -1.901 2.0312 -2.9687 c0.46875 -1.0417 0.70313 -2.1875 0.70313 -3.4375 l0 -0.74219 l-3.4375 0 z M467.641 3.75 l5.8984 0 l0 -3.0469 l-15.078 0 l0 3.0469 l9.1797 0 z M464.3594 6.797000000000001 l3.2813 0 l0 12.5 l-3.2813 0 l0 -12.5 z M494.57 0.6640000000000015 l0 10.625 c0 1.7188 -0.41668 2.9948 -1.25 3.8281 c-0.4427 0.4948 -1.0547 0.85938 -1.8359 1.0938 l0 3.0469 c0.625 -0.078125 1.1719 -0.20832 1.6406 -0.39063 c0.96355 -0.33855 1.7969 -0.84637 2.5 -1.5234 c0.70313 -0.7552 1.2239 -1.6276 1.5625 -2.6171 c0.39063 -1.0156 0.58594 -2.2136 0.58594 -3.5938 l0 -10.469 l-3.2031 0 z M485.4688 0.7029999999999994 l0 10.625 c0 1.6667 0.41668 2.9427 1.25 3.8282 c0.4948 0.4948 1.1068 0.84637 1.836 1.0547 l0 3.0859 c-0.4427 -0.05207 -0.98957 -0.18227 -1.6406 -0.39059 c-0.98957 -0.36457 -1.8099 -0.88539 -2.4609 -1.5625 c-0.72918 -0.67707 -1.263 -1.5364 -1.6016 -2.5781 c-0.36457 -0.9375 -0.54688 -2.1354 -0.54688 -3.5938 l0 -10.469 l3.1641 0 z M508.4922 0.6640000000000015 l-3.5156 0 l6.7969 18.633 l3.5547 0 l-3.9453 -11.172 z M522.867 0.6640000000000015 l-3.4375 0 l-4.0625 9.9219 l1.6797 4.4531 z M531.75 0.7029999999999994 l-3.0078 0 l3.7891 18.594 l3.2813 0 l-2.4219 -11.445 z M544.406 0.7029999999999994 l-2.1875 7.7734 l1.4844 5.6641 l3.5938 -13.438 l-2.8906 0 z M539.68 6.406000000000001 l-0.23438 -0.97656 l-1.25 -4.7266 l-1.6797 5.5469 l-0.078125 0.15625 l-0.625 2.1875 l1.1719 5.2344 l0.74219 -2.5781 l1.9141 8.0469 l3.3203 0 l-2.8906 -11.445 z M560.2422 14.6875 l1.7578 -2.3438 l-0.039063 -0.078125 z M570.438 0.7029999999999994 l-3.75 0 l-4.6484 6.6797 l-4.6094 -6.6797 l-3.8672 0 l6.5234 9.1406 l-6.7578 9.4531 l4.1797 0 z M570.672 19.29687 l-5.1563 -7.3047 l-1.9531 2.6172 l3.2813 4.6875 l3.8281 0 z M580.5703 0.6640000000000015 l-3.6328 0 l7.2656 11.289 l0 7.3828 l3.5547 0 l0 -7.4609 z M595.063 0.6640000000000015 l-3.3984 0 l-4.2969 6.1328 l1.9141 2.5781 z M611.367 6.016 l-8.9844 10.859 l0 2.4219 l15.234 0 l0 -2.8906 l-10.586 0 l8.4766 -10.391 l-4.1406 0 z M602.7344 0.7029999999999994 l14.883 0 l0 2.8906 l-14.883 0 l0 -2.8906 z"></path></g></svg>
